<svg xmlns="http://www.w3.org/2000/svg" width="32" height="32" id="finance"><g color="#000" transform="translate(-392 -2498.362)"><path fill="#f05542" d="M421 2507.363v14h-4v4l-3.698-4h-12.559l2.472-3.892 13.668-.076v-10.033z" overflow="visible" style="isolation:auto;mix-blend-mode:normal"></path><path fill="#4bbfeb" style="isolation:auto;mix-blend-mode:normal" d="M395 2503.362v16h5v5l4.623-5H419v-16z" overflow="visible"></path><circle cx="345" cy="2233.362" fill="#fcd062" stroke="#f8b84e" stroke-linecap="round" stroke-linejoin="round" stroke-miterlimit="0" overflow="visible" transform="translate(62 278)" style="isolation:auto;mix-blend-mode:normal" r="5.5"></circle><path fill="#34485c" fill-rule="evenodd" style="line-height:normal;text-indent:0;text-align:start;text-decoration-line:none;text-decoration-style:solid;text-decoration-color:#000;text-transform:none;block-progression:tb;isolation:auto;mix-blend-mode:normal" d="M406.992 2506.863a.5.5 0 0 0-.492.507v.44c-.98.206-1.748.998-1.748 1.996 0 1.163 1.04 2.055 2.248 2.055.73 0 1.248.495 1.248 1.054 0 .56-.518 1.053-1.248 1.053s-1.248-.494-1.248-1.053c.01-.676-1.01-.676-1 0 0 1.025.784 1.781 1.748 1.998v.444a.5.5 0 1 0 1 0v-.446c.98-.206 1.748-.998 1.748-1.996 0-1.163-1.04-2.054-2.248-2.054-.73 0-1.248-.496-1.248-1.055 0-.552.506-1.036 1.22-1.049a.5.5 0 0 0 .057 0c.714.014 1.219.496 1.219 1.047-.01.676 1.01.676 1 0 0-1.025-.784-1.781-1.748-1.998v-.438a.5.5 0 0 0-.508-.507z" font-family="sans-serif" font-weight="400" overflow="visible"></path></g></svg>