<svg xmlns="http://www.w3.org/2000/svg" xmlns:xlink="http://www.w3.org/1999/xlink" viewBox="0 0 1474.919 1057.844" id="law-education"><defs><linearGradient id="s" x1="1165.476" x2="1396.305" y1="505.957" y2="505.957" gradientUnits="userSpaceOnUse"><stop offset="0" stop-color="#c4cae9"></stop><stop offset=".204" stop-color="#cdd2ec"></stop><stop offset=".532" stop-color="#e5e7f5"></stop><stop offset=".821" stop-color="#fff"></stop></linearGradient><linearGradient id="a" x1="1071.959" x2="1302.789" y1="521.64" y2="521.64" gradientUnits="userSpaceOnUse"><stop offset="0" stop-color="#2a2780"></stop><stop offset="1" stop-color="#131147"></stop></linearGradient><linearGradient id="t" x1="1079.667" x2="1295.082" y1="472.664" y2="472.664" xlink:href="#a"></linearGradient><linearGradient id="u" x1="1133.46" x2="1241.289" y1="336.508" y2="336.508" gradientUnits="userSpaceOnUse"><stop offset="0" stop-color="#dae0f5"></stop><stop offset=".858" stop-color="#a3a9d0"></stop></linearGradient><linearGradient id="b" x1="1116.503" x2="1258.246" y1="402.978" y2="402.978" gradientUnits="userSpaceOnUse"><stop offset="0" stop-color="#5652cc"></stop><stop offset=".267" stop-color="#504cc3"></stop><stop offset="1" stop-color="#423eaf"></stop></linearGradient><linearGradient id="v" x1="1102.976" x2="1271.784" y1="425.472" y2="425.472" xlink:href="#b"></linearGradient><linearGradient id="w" x1="1124.856" x2="1249.893" y1="390.731" y2="390.731" xlink:href="#b"></linearGradient><linearGradient id="c" x1="428.357" x2="440.715" y1="334.548" y2="355.953" gradientTransform="matrix(-1 0 0 1 1662.217 0)" gradientUnits="userSpaceOnUse"><stop offset="0" stop-color="#ced3f8"></stop><stop offset="1" stop-color="#bbc0e6"></stop></linearGradient><linearGradient id="x" x1="317.173" x2="328.852" y1="399.522" y2="419.752" gradientTransform="matrix(-1 0 0 1 1662.217 0)" gradientUnits="userSpaceOnUse"><stop offset="0" stop-color="#ffaf6d"></stop><stop offset=".358" stop-color="#ea8f54"></stop><stop offset="1" stop-color="#c85a2b"></stop></linearGradient><linearGradient id="y" x1="1245.718" x2="1255.404" y1="366.847" y2="350.07" gradientUnits="userSpaceOnUse"><stop offset="0" stop-color="#dae0f5"></stop><stop offset=".408" stop-color="#ebeefa"></stop><stop offset="1" stop-color="#fff"></stop></linearGradient><linearGradient id="z" x1="203.953" x2="219.623" y1="460.283" y2="487.425" xlink:href="#c"></linearGradient><linearGradient id="A" x1="1124.856" x2="1249.893" y1="287.252" y2="287.252" gradientUnits="userSpaceOnUse"><stop offset="0" stop-color="#5652cc"></stop><stop offset=".651" stop-color="#3b389c"></stop><stop offset="1" stop-color="#302d88"></stop></linearGradient><linearGradient id="B" x1="1116.503" x2="1258.246" y1="280.587" y2="280.587" gradientUnits="userSpaceOnUse"><stop offset="0" stop-color="#5652cc"></stop><stop offset=".587" stop-color="#423ba8"></stop><stop offset="1" stop-color="#362e94"></stop></linearGradient><linearGradient id="C" x1="1102.976" x2="1271.784" y1="248.329" y2="248.329" xlink:href="#b"></linearGradient><linearGradient id="D" x1="508.803" x2="925.318" y1="798.13" y2="798.13" gradientUnits="userSpaceOnUse"><stop offset="0" stop-color="#a3a9d0"></stop><stop offset="1" stop-color="#fff"></stop></linearGradient><linearGradient id="E" x1="606.656" x2="658.53" y1="727.793" y2="637.943" gradientUnits="userSpaceOnUse"><stop offset=".156" stop-color="#a3a9d0"></stop><stop offset=".32" stop-color="#bbc0e6"></stop><stop offset=".644" stop-color="#bbc0e6"></stop><stop offset="1" stop-color="#a3a9d0"></stop></linearGradient><linearGradient id="F" x1="475.012" x2="616.618" y1="859.12" y2="613.849" gradientUnits="userSpaceOnUse"><stop offset=".204" stop-color="#f1f1f6"></stop><stop offset=".431" stop-color="#dfe4f4"></stop><stop offset=".787" stop-color="#dfe4f4"></stop><stop offset="1" stop-color="#f1f1f6"></stop></linearGradient><linearGradient id="G" x1="274.085" x2="366.969" y1="717.401" y2="717.401" gradientUnits="userSpaceOnUse"><stop offset="0" stop-color="#c4cae9"></stop><stop offset=".235" stop-color="#cad0eb"></stop><stop offset=".557" stop-color="#dcdff2"></stop><stop offset=".928" stop-color="#f9f9fd"></stop><stop offset="1" stop-color="#fff"></stop></linearGradient><linearGradient id="d" x1="235.914" x2="316.865" y1="687.896" y2="734.632" gradientUnits="userSpaceOnUse"><stop offset="0" stop-color="#6b67e9"></stop><stop offset="1" stop-color="#423eaf"></stop></linearGradient><linearGradient id="f" x1="284.777" x2="324.29" y1="695.573" y2="695.573" gradientUnits="userSpaceOnUse"><stop offset=".428" stop-color="#c4cae9"></stop><stop offset=".577" stop-color="#ced3ed"></stop><stop offset=".832" stop-color="#e9ecf7"></stop><stop offset="1" stop-color="#fff"></stop></linearGradient><linearGradient id="H" x1="252.358" x2="303.338" y1="678.359" y2="678.359" gradientUnits="userSpaceOnUse"><stop offset="0" stop-color="#5652cc"></stop><stop offset="1" stop-color="#362e94"></stop></linearGradient><linearGradient id="I" x1="251.973" x2="302.176" y1="620.759" y2="649.744" xlink:href="#d"></linearGradient><linearGradient id="J" x1="980.339" x2="1306.127" y1="695.776" y2="695.776" gradientUnits="userSpaceOnUse"><stop offset="0" stop-color="#d1d6f0"></stop><stop offset=".097" stop-color="#d6daf2"></stop><stop offset=".983" stop-color="#fff"></stop></linearGradient><linearGradient id="K" x1="813.202" x2="837.112" y1="694.469" y2="653.055" gradientUnits="userSpaceOnUse"><stop offset=".641" stop-color="#362e94"></stop><stop offset=".731" stop-color="#3e38a3"></stop><stop offset="1" stop-color="#5652cc"></stop></linearGradient><linearGradient id="e" x1="933.994" x2="957.901" y1="764.201" y2="722.793" gradientUnits="userSpaceOnUse"><stop offset=".641" stop-color="#c85a2b"></stop><stop offset=".818" stop-color="#e4864d"></stop><stop offset="1" stop-color="#ffaf6d"></stop></linearGradient><linearGradient id="L" x1="899.611" x2="923.519" y1="744.363" y2="702.955" xlink:href="#e"></linearGradient><linearGradient id="M" x1="865.229" x2="889.136" y1="724.526" y2="683.117" xlink:href="#e"></linearGradient><linearGradient id="N" x1="830.846" x2="854.753" y1="704.688" y2="663.279" xlink:href="#e"></linearGradient><linearGradient id="O" x1="796.463" x2="820.371" y1="684.85" y2="643.442" xlink:href="#e"></linearGradient><linearGradient id="P" x1="762.081" x2="785.988" y1="665.012" y2="623.604" xlink:href="#e"></linearGradient><linearGradient id="Q" x1="727.698" x2="751.605" y1="645.174" y2="603.766" xlink:href="#e"></linearGradient><linearGradient id="R" x1="693.315" x2="717.223" y1="625.337" y2="583.928" xlink:href="#e"></linearGradient><linearGradient id="S" x1="454.669" x2="644.469" y1="479.705" y2="479.705" xlink:href="#f"></linearGradient><linearGradient id="g" x1="253.091" x2="411.984" y1="453.834" y2="453.834" gradientUnits="userSpaceOnUse"><stop offset="0" stop-color="#e57139"></stop><stop offset="1" stop-color="#fb944b"></stop></linearGradient><linearGradient id="i" x1="253.879" x2="342.891" y1="472.977" y2="472.977" gradientUnits="userSpaceOnUse"><stop offset="0" stop-color="#f1f1f6"></stop><stop offset=".66" stop-color="#fbfbfd"></stop><stop offset=".844" stop-color="#fff"></stop></linearGradient><linearGradient id="h" x1="253.091" x2="411.984" y1="502.923" y2="502.923" gradientUnits="userSpaceOnUse"><stop offset="0" stop-color="#fb944b"></stop><stop offset="1" stop-color="#e57139"></stop></linearGradient><linearGradient id="T" x1="614.688" x2="773.581" y1="246.685" y2="246.685" xlink:href="#g"></linearGradient><linearGradient id="U" x1="614.688" x2="773.581" y1="295.776" y2="295.776" xlink:href="#h"></linearGradient><linearGradient id="V" x1="615.48" x2="704.492" y1="265.827" y2="265.827" xlink:href="#i"></linearGradient><linearGradient id="k" x1="620.774" x2="628.371" y1="56.994" y2="70.152" gradientUnits="userSpaceOnUse"><stop offset="0" stop-color="#807dfb"></stop><stop offset="1" stop-color="#423eaf"></stop></linearGradient><linearGradient id="W" x1="512.176" x2="608.298" y1="446.671" y2="446.671" gradientUnits="userSpaceOnUse"><stop offset="0" stop-color="#c4cae9"></stop><stop offset=".261" stop-color="#ced3ed"></stop><stop offset=".705" stop-color="#e9ecf7"></stop><stop offset="1" stop-color="#fff"></stop></linearGradient><linearGradient id="j" x1="418.497" x2="608.298" y1="491.933" y2="491.933" gradientUnits="userSpaceOnUse"><stop offset="0" stop-color="#5652cc"></stop><stop offset="1" stop-color="#423eaf"></stop></linearGradient><linearGradient id="X" x1="427.845" x2="598.951" y1="469.402" y2="469.402" xlink:href="#j"></linearGradient><linearGradient id="Y" x1="527.567" x2="598.951" y1="440.877" y2="440.877" gradientUnits="userSpaceOnUse"><stop offset="0" stop-color="#c4cae9"></stop><stop offset=".22" stop-color="#ced3ed"></stop><stop offset=".595" stop-color="#e9ecf7"></stop><stop offset=".844" stop-color="#fff"></stop></linearGradient><linearGradient id="Z" x1="513.398" x2="551.203" y1="400.672" y2="400.672" gradientUnits="userSpaceOnUse"><stop offset="0" stop-color="#c4cae9"></stop><stop offset="1" stop-color="#f1f1f6"></stop></linearGradient><linearGradient id="aa" x1="462.747" x2="564.049" y1="437.523" y2="437.523" xlink:href="#j"></linearGradient><linearGradient id="ab" x1="501.489" x2="513.4" y1="143.384" y2="143.384" gradientUnits="userSpaceOnUse"><stop offset="0" stop-color="#c4cae9"></stop><stop offset=".256" stop-color="#c8ceeb"></stop><stop offset=".521" stop-color="#d5d9ef"></stop><stop offset=".789" stop-color="#e9ebf7"></stop><stop offset="1" stop-color="#fff"></stop></linearGradient><linearGradient id="ac" x1="401.713" x2="409.309" y1="183.412" y2="196.569" xlink:href="#k"></linearGradient><linearGradient id="ad" x1="630.296" x2="981.641" y1="935.859" y2="935.859" gradientUnits="userSpaceOnUse"><stop offset="0" stop-color="#d1d7f3"></stop><stop offset=".456" stop-color="#e8ebf9"></stop><stop offset="1" stop-color="#fff"></stop></linearGradient><linearGradient id="ae" x1="937.503" x2="950.794" y1="819.051" y2="842.072" gradientUnits="userSpaceOnUse"><stop offset="0" stop-color="#f1f1f6"></stop><stop offset="1" stop-color="#c4cae9"></stop></linearGradient><linearGradient id="af" x1="860.033" x2="882.385" y1="853.315" y2="892.028" gradientUnits="userSpaceOnUse"><stop offset="0" stop-color="#807dfb"></stop><stop offset=".013" stop-color="#7f7bf9"></stop><stop offset=".324" stop-color="#5f5ace"></stop><stop offset=".603" stop-color="#4942ae"></stop><stop offset=".837" stop-color="#3b339b"></stop><stop offset="1" stop-color="#362e94"></stop></linearGradient><linearGradient id="l" x1="769.951" x2="792.317" y1="905.303" y2="944.042" gradientUnits="userSpaceOnUse"><stop offset="0" stop-color="#807dfb"></stop><stop offset=".377" stop-color="#635ed3"></stop><stop offset="1" stop-color="#362e94"></stop></linearGradient><linearGradient id="ag" x1="724.057" x2="744.176" y1="934.399" y2="969.246" gradientUnits="userSpaceOnUse"><stop offset="0" stop-color="#ffaf6d"></stop><stop offset="1" stop-color="#c85a2b"></stop></linearGradient><linearGradient id="ah" x1="672.244" x2="696.365" y1="959.689" y2="1001.47" xlink:href="#l"></linearGradient><linearGradient id="m" x1="679.308" x2="684.82" y1="977.15" y2="986.698" gradientUnits="userSpaceOnUse"><stop offset="0" stop-color="#f6f6fb"></stop><stop offset="1" stop-color="#ced3f8"></stop></linearGradient><linearGradient id="ai" x1="156.183" x2="365.62" y1="886.334" y2="886.334" gradientUnits="userSpaceOnUse"><stop offset="0" stop-color="#c4cae9"></stop><stop offset=".464" stop-color="#e1e4f4"></stop><stop offset="1" stop-color="#fff"></stop></linearGradient><linearGradient id="aj" x1="58.048" x2="240.487" y1="874.281" y2="874.281" gradientUnits="userSpaceOnUse"><stop offset="0" stop-color="#5652cc"></stop><stop offset=".424" stop-color="#3b369e"></stop><stop offset=".798" stop-color="#27217c"></stop><stop offset="1" stop-color="#20196f"></stop></linearGradient><linearGradient id="ak" x1="416.422" x2="559.957" y1="979.258" y2="979.258" gradientUnits="userSpaceOnUse"><stop offset=".453" stop-color="#c4c9e4"></stop><stop offset="1" stop-color="#fff"></stop></linearGradient><linearGradient id="al" x1="383.539" x2="524.125" y1="990.486" y2="990.486" xlink:href="#h"></linearGradient><linearGradient id="am" x1="396.742" x2="510.92" y1="944.674" y2="944.674" xlink:href="#h"></linearGradient><linearGradient id="an" x1="432.141" x2="462.994" y1="974.452" y2="974.452" xlink:href="#h"></linearGradient><linearGradient id="ao" x1="960.543" x2="1126.079" y1="380.796" y2="380.796" gradientUnits="userSpaceOnUse"><stop offset="0" stop-color="#d1d7f3"></stop><stop offset=".071" stop-color="#d6dbf4"></stop><stop offset=".551" stop-color="#f4f5fc"></stop><stop offset=".823" stop-color="#fff"></stop></linearGradient><linearGradient id="ap" x1="975.978" x2="1002.993" y1="239.147" y2="192.356" xlink:href="#m"></linearGradient><linearGradient id="aq" x1="921.95" x2="948.963" y1="270.337" y2="223.55" xlink:href="#m"></linearGradient><linearGradient id="ar" x1="942.243" x2="1024.331" y1="1036.598" y2="1036.598" gradientUnits="userSpaceOnUse"><stop offset="0" stop-color="#dae0f5"></stop><stop offset=".327" stop-color="#dee3f6"></stop><stop offset=".66" stop-color="#eaeef9"></stop><stop offset=".996" stop-color="#fff"></stop><stop offset="1" stop-color="#fff"></stop></linearGradient><linearGradient id="as" x1="1311.802" x2="1365.55" y1="834.947" y2="834.947" gradientUnits="userSpaceOnUse"><stop offset="0" stop-color="#dae0f5"></stop><stop offset=".571" stop-color="#f2f4fb"></stop><stop offset="1" stop-color="#fff"></stop></linearGradient><linearGradient id="at" x1="934.675" x2="1258.73" y1="937.028" y2="937.028" gradientUnits="userSpaceOnUse"><stop offset=".083" stop-color="#5652cc"></stop><stop offset=".108" stop-color="#514dc5"></stop><stop offset=".143" stop-color="#4541b3"></stop><stop offset=".149" stop-color="#423eaf"></stop></linearGradient><linearGradient id="n" x1="1102.523" x2="1230.389" y1="866.188" y2="866.188" gradientUnits="userSpaceOnUse"><stop offset="0" stop-color="#d1d7f3"></stop><stop offset=".5" stop-color="#e6e9f8"></stop><stop offset="1" stop-color="#fff"></stop></linearGradient><linearGradient id="au" x1="929.643" x2="1060.919" y1="970.183" y2="970.183" xlink:href="#n"></linearGradient><linearGradient id="av" x1="1026.935" x2="1127.958" y1="966.449" y2="966.449" xlink:href="#n"></linearGradient><linearGradient id="aw" x1="1198.495" x2="1315.223" y1="866.227" y2="866.227" xlink:href="#n"></linearGradient><linearGradient id="ax" x1="1009.143" x2="1076.879" y1="914.402" y2="914.402" xlink:href="#n"></linearGradient><linearGradient id="ay" x1="522.926" x2="514.545" y1="1188.311" y2="1174.497" gradientTransform="rotate(-120.001 783.882 782.607)" xlink:href="#m"></linearGradient><linearGradient id="o" x1="1102.539" x2="1291.483" y1="843.101" y2="843.101" gradientUnits="userSpaceOnUse"><stop offset=".529" stop-color="#bbc0e6"></stop><stop offset=".7" stop-color="#c7ccf2"></stop><stop offset=".869" stop-color="#ced3f8"></stop></linearGradient><linearGradient id="az" x1="929.647" x2="1104.144" y1="941.913" y2="941.913" xlink:href="#o"></linearGradient><linearGradient id="p" x1="1111.627" x2="1297.247" y1="888.253" y2="888.253" gradientUnits="userSpaceOnUse"><stop offset="0" stop-color="#ced3f8"></stop><stop offset=".497" stop-color="#c7ccf2"></stop><stop offset="1" stop-color="#bbc0e6"></stop></linearGradient><linearGradient id="aA" x1="1083.869" x2="1111.627" y1="903.28" y2="903.28" xlink:href="#p"></linearGradient><linearGradient id="aB" x1="923.932" x2="1109.976" y1="991.698" y2="991.698" xlink:href="#p"></linearGradient><linearGradient id="q" x1="-611.981" x2="-689.176" y1="1388.188" y2="1310.994" gradientTransform="matrix(-.7217 .9167 .75 .433 -284.8 872.937)" gradientUnits="userSpaceOnUse"><stop offset="0" stop-color="#e8ecf7"></stop><stop offset=".438" stop-color="#eff1f9"></stop><stop offset="1" stop-color="#fff"></stop></linearGradient><linearGradient id="r" x1="-694.13" x2="-592.056" y1="1358.33" y2="1358.33" gradientTransform="matrix(-.7217 .9167 .75 .433 -284.8 872.937)" gradientUnits="userSpaceOnUse"><stop offset="0" stop-color="#ced3f8"></stop><stop offset=".123" stop-color="#d9ddfa"></stop><stop offset=".426" stop-color="#eef0fd"></stop><stop offset=".721" stop-color="#fbfbfe"></stop><stop offset="1" stop-color="#fff"></stop></linearGradient><linearGradient id="aC" x1="-453.69" x2="-534.105" y1="1300.601" y2="1220.186" xlink:href="#q"></linearGradient><linearGradient id="aD" x1="-537.365" x2="-442.146" y1="1265.426" y2="1265.426" xlink:href="#r"></linearGradient><linearGradient id="aE" x1="523.078" x2="514.697" y1="806.479" y2="792.665" gradientTransform="rotate(-120.001 783.882 782.607)" xlink:href="#m"></linearGradient></defs><g style="isolation:isolate"><g><g><path d="M1362.501 458.839c-21.146-12.209-48.457-18.677-76.147-19.43v-.087h-98.98v27.58c-14.589 11.616-21.899 25.333-21.898 39.055 0 13.72 7.31 27.438 21.899 39.054v27.58h98.979v-.075c27.69-.752 55.001-7.232 76.147-19.441 22.536-13.011 33.805-30.065 33.804-47.118 0-17.053-11.268-34.107-33.804-47.118Z" style="mix-blend-mode:multiply" fill="url(#s)"></path><path fill="#362e94" d="M1105.763 423.57c22.201-12.817 51.197-19.321 80.293-19.512 29.975-.197 60.057 6.308 82.929 19.513 22.536 13.011 33.804 30.064 33.804 47.118 0 17.053-11.268 34.106-33.804 47.118-22.536 13.01-52.073 19.516-81.61 19.516s-59.075-6.505-81.611-19.517c-22.536-13.011-33.804-30.064-33.805-47.118 0-17.053 11.268-34.106 33.804-47.118Z"></path><path d="M1268.985 423.57c-22.536-13.01-52.073-19.502-81.61-19.502v128.805h41.46c14.63-3.245 28.354-8.255 40.15-15.066 22.536-13.012 33.804-30.065 33.804-47.118 0-17.054-11.268-34.107-33.804-47.118Z" style="mix-blend-mode:multiply" fill="#c4cae9"></path><path fill="url(#a)" d="M1268.985 517.807c-22.536 13.01-52.073 19.516-81.61 19.516s-59.075-6.505-81.611-19.517c-22.536-13.011-33.804-30.064-33.805-47.117v35.268c0 17.053 11.269 34.106 33.805 47.118 22.536 13.011 52.074 19.517 81.61 19.517 29.538 0 59.075-6.506 81.611-19.517s33.805-30.065 33.804-47.118v-35.268c0 17.053-11.268 34.106-33.804 47.118Z"></path><path fill="url(#t)" d="M1295.082 470.685a36.41 36.41 0 0 0-.503-6.003c-2.243-15.386-11.684-40.044-20.139-52.227a34.958 34.958 0 0 1 6.45 19.71c0 13.818-9.129 27.635-27.39 38.178-18.26 10.542-42.192 15.814-66.125 15.814s-47.866-5.272-66.127-15.814-27.39-24.36-27.39-38.178a34.956 34.956 0 0 1 6.447-19.705c-8.454 12.184-17.891 36.836-20.135 52.22a36.425 36.425 0 0 0-.503 6.008c0 15.915 10.516 31.83 31.547 43.972 21.031 12.142 48.596 18.213 76.16 18.213 27.566 0 55.13-6.07 76.161-18.213 21.031-12.142 31.547-28.057 31.547-43.971Z"></path><path fill="#362e94" d="M1121.248 393.987c17.989-10.386 41.483-15.656 65.058-15.81 24.288-.16 48.662 5.11 67.194 15.81 18.26 10.543 27.39 24.36 27.39 38.178.001 13.818-9.129 27.635-27.39 38.178-18.26 10.542-42.192 15.814-66.125 15.814s-47.866-5.272-66.127-15.814c-18.26-10.543-27.39-24.36-27.39-38.178 0-13.818 9.13-27.636 27.39-38.178Z"></path><path d="M1199.304 390.268c-.3 0-.598-.008-.897-.006-19.78.13-39.491 4.551-54.584 13.264-15.32 8.846-22.98 20.439-22.98 32.032 0 11.593 7.66 23.186 22.98 32.031 15.321 8.846 35.4 13.268 55.48 13.268h28.486a110.392 110.392 0 0 0 25.712-10.514c18.26-10.543 27.39-24.36 27.39-38.178 0-13.818-9.13-27.635-27.39-38.178q-3.447-1.99-7.153-3.728h-47.044Z" style="mix-blend-mode:multiply" fill="#d1d7f3"></path><path fill="#6b67e9" d="M1131.894 354.834c15.093-8.714 34.804-13.135 54.584-13.265 20.378-.133 40.828 4.288 56.376 13.265 15.32 8.846 22.981 20.439 22.981 32.032 0 11.593-7.66 23.186-22.98 32.031-15.32 8.845-35.4 13.268-55.48 13.268s-40.16-4.423-55.48-13.268-22.981-20.438-22.981-32.031c0-11.594 7.66-23.187 22.98-32.032Z"></path><path d="M1242.854 354.834c-15.32-8.845-35.4-13.258-55.48-13.258v86.207h33.68a92.78 92.78 0 0 0 21.8-8.886c15.321-8.845 22.981-20.438 22.981-32.031s-7.66-23.187-22.98-32.032Z" style="mix-blend-mode:multiply" fill="#d1d7f3"></path><path fill="#6b67e9" d="M1137.26 348.48c13.633-7.87 31.438-11.864 49.305-11.981 18.406-.12 36.879 3.873 50.923 11.982 13.839 7.99 20.758 18.461 20.758 28.933 0 10.472-6.919 20.944-20.758 28.934-13.838 7.99-31.976 11.984-50.113 11.984-18.138 0-36.276-3.995-50.114-11.985s-20.758-18.461-20.758-28.933c0-10.472 6.919-20.944 20.757-28.933Z"></path><path d="M1237.488 348.481c-13.838-7.99-31.976-11.964-50.113-11.965v76.993h33.374a81.653 81.653 0 0 0 16.74-7.161c13.838-7.99 20.757-18.462 20.757-28.934 0-10.472-6.92-20.943-20.758-28.933Z" style="mix-blend-mode:multiply" fill="#d1d7f3"></path><path fill="#6b67e9" d="M1143.167 342.43c12.026-6.944 27.732-10.467 43.493-10.57 16.237-.107 32.532 3.417 44.921 10.57 12.208 7.047 18.312 16.285 18.312 25.522 0 9.238-6.104 18.475-18.312 25.523-12.207 7.048-28.207 10.572-44.206 10.572s-32-3.524-44.207-10.572c-12.208-7.048-18.312-16.285-18.312-25.523 0-9.237 6.104-18.475 18.311-25.523Z"></path><path d="M1231.581 342.43c-12.207-7.048-28.207-10.554-44.206-10.555v67.205h31.528a70.592 70.592 0 0 0 12.678-5.605c12.208-7.048 18.312-16.285 18.312-25.523 0-9.237-6.104-18.475-18.312-25.523Z" style="mix-blend-mode:multiply" fill="#d1d7f3"></path><path fill="url(#u)" d="M1241.289 273.936H1133.46v94.016c0 7.966 5.264 15.933 15.791 22.01 10.528 6.079 24.326 9.118 38.124 9.118 13.797 0 27.595-3.04 38.123-9.117 10.527-6.078 15.79-14.044 15.79-22.01Z"></path><path fill="url(#b)" d="M1237.488 406.348c-13.838 7.99-31.976 11.984-50.113 11.984-18.138 0-36.276-3.995-50.114-11.985-13.505-7.796-20.4-17.957-20.727-28.174h-.031v8.693c0 10.471 6.92 20.943 20.758 28.933 13.838 7.99 31.976 11.984 50.114 11.984 18.137 0 36.275-3.994 50.113-11.984 13.84-7.99 20.758-18.461 20.758-28.933v-8.693h-.031c-.326 10.217-7.222 20.378-20.727 28.175Z"></path><path fill="#807dfb" d="m1112.412 373.492-.006-.012c-.08.142-.15.288-.228.43.072-.14.159-.278.234-.418Z"></path><path fill="url(#v)" d="m1262.35 373.48-.01.018a28.264 28.264 0 0 1 3.495 13.368c0 11.593-7.66 23.186-22.98 32.031-15.32 8.845-35.4 13.268-55.48 13.268s-40.16-4.423-55.48-13.268-22.981-20.439-22.981-32.031a28.111 28.111 0 0 1 3.218-12.87c-14.16 25.997-10.683 61.07 2.15 74.646l.004-.002c3.826 5.666 9.683 10.98 17.609 15.556 15.32 8.845 35.4 13.268 55.48 13.268s40.16-4.422 55.48-13.268c7.926-4.576 13.784-9.891 17.61-15.558l.009.004c12.917-13.665 16.363-49.116 1.876-75.162Z"></path><path fill="url(#w)" d="M1231.581 393.475c-12.207 7.048-28.207 10.572-44.206 10.572s-32-3.524-44.207-10.572c-12.208-7.048-18.312-16.285-18.312-25.523v9.462c0 9.238 6.104 18.475 18.312 25.523 12.207 7.048 28.207 10.572 44.207 10.572s31.999-3.524 44.206-10.572c12.208-7.048 18.312-16.285 18.312-25.523v-9.462c0 9.238-6.104 18.475-18.312 25.523Z"></path><path fill="url(#c)" d="M1217.035 339.104a17.866 17.866 0 0 1 6.18-6.523c2.448-1.413 4.662-1.528 6.249-.57l15.042 8.684-12.429 21.364-15.042-8.685c-1.581-.913-2.56-2.87-2.56-5.657a17.863 17.863 0 0 1 2.56-8.613Z"></path><path fill="#a5abcc" d="M1246.995 346.311c0-2.745-.95-4.686-2.49-5.616-1.586-.958-3.8-.843-6.249.571a19.314 19.314 0 0 0-8.738 15.135c0 2.787.978 4.745 2.56 5.658 1.58.913 3.765.78 6.178-.612a19.315 19.315 0 0 0 8.739-15.136Z"></path><path fill="url(#x)" d="M1233.577 348.654a13.53 13.53 0 0 1 4.68-4.94c1.854-1.07 3.53-1.157 4.732-.432l207.682 117.224-11.746 20.191-205.348-121.235c-1.198-.692-1.939-2.175-1.939-4.285a13.53 13.53 0 0 1 1.939-6.523Z"></path><path d="M1261.803 373.49a16.15 16.15 0 0 1 7.307-12.656 6.46 6.46 0 0 1 3.277-.958l-29.398-16.594c-1.202-.725-2.878-.638-4.733.433a14.628 14.628 0 0 0-6.618 11.462c0 2.11.741 3.593 1.939 4.285l28.823 17.017a6.938 6.938 0 0 1-.597-2.989Z" style="mix-blend-mode:multiply" fill="url(#y)"></path><path fill="url(#z)" d="M1436.93 466.06a22.651 22.651 0 0 1 7.835-8.27c3.105-1.793 5.912-1.939 7.924-.724l19.074 11.012-15.76 27.09-19.073-11.013c-2.006-1.157-3.246-3.64-3.246-7.173a22.651 22.651 0 0 1 3.246-10.921Z"></path><path fill="#a5abcc" d="M1474.919 475.199c0-3.48-1.204-5.942-3.156-7.121-2.012-1.215-4.82-1.07-7.925.724a24.492 24.492 0 0 0-11.08 19.192c0 3.533 1.24 6.016 3.245 7.173 2.005 1.158 4.776.99 7.835-.776a24.492 24.492 0 0 0 11.081-19.192Z"></path><path fill="#807dfb" d="M1149.251 251.925c10.371-5.987 23.916-9.026 37.508-9.115 14.002-.091 28.054 2.947 38.738 9.115 10.528 6.078 15.792 14.045 15.792 22.01s-5.264 15.933-15.791 22.011c-10.528 6.078-24.325 9.117-38.123 9.117-13.798 0-27.596-3.039-38.124-9.117-10.527-6.078-15.79-14.044-15.791-22.01 0-7.967 5.264-15.933 15.791-22.01Z"></path><path fill="#807dfb" d="M1143.167 238.95c12.026-6.942 27.732-10.465 43.493-10.569 16.237-.106 32.532 3.417 44.921 10.57 12.208 7.048 18.312 16.285 18.312 25.523 0 9.237-6.104 18.475-18.312 25.523-12.207 7.048-28.207 10.572-44.206 10.572-16 0-32-3.524-44.207-10.572-12.208-7.048-18.312-16.286-18.312-25.523 0-9.238 6.104-18.475 18.311-25.523Z"></path><path fill="url(#A)" d="M1231.581 289.997c-12.207 7.048-28.207 10.572-44.206 10.572-16 0-32-3.524-44.207-10.572-12.208-7.048-18.312-16.286-18.312-25.523v9.462c0 9.237 6.104 18.475 18.312 25.523 12.207 7.047 28.207 10.572 44.207 10.572s31.999-3.524 44.206-10.572c12.208-7.048 18.312-16.286 18.312-25.523v-9.462c0 9.237-6.104 18.475-18.312 25.523Z"></path><path fill="#807dfb" d="M1137.26 226.089c13.633-7.87 31.438-11.865 49.305-11.982 18.406-.12 36.879 3.874 50.923 11.982 13.839 7.99 20.758 18.462 20.758 28.933 0 10.472-6.919 20.944-20.757 28.934-13.839 7.99-31.977 11.984-50.114 11.984-18.138 0-36.276-3.995-50.114-11.984-13.839-7.99-20.758-18.462-20.758-28.934s6.919-20.943 20.757-28.933Z"></path><path fill="url(#B)" d="M1237.488 283.956c-13.838 7.99-31.976 11.984-50.113 11.984-18.138 0-36.276-3.995-50.114-11.984-13.505-7.797-20.4-17.957-20.727-28.175h-.031v8.693c0 10.472 6.92 20.943 20.758 28.933 13.838 7.99 31.976 11.985 50.114 11.985 18.137 0 36.275-3.995 50.113-11.985 13.84-7.99 20.758-18.461 20.758-28.933v-8.693h-.031c-.326 10.218-7.222 20.378-20.727 28.175Z"></path><path fill="#6b67e9" d="M1131.894 177.692c15.092-8.714 34.804-13.136 54.584-13.265 20.377-.134 40.828 4.288 56.376 13.265 15.32 8.845 22.98 20.438 22.98 32.031s-7.66 23.186-22.98 32.032-35.4 13.267-55.48 13.267-40.16-4.422-55.48-13.268c-15.32-8.845-22.98-20.438-22.98-32.03 0-11.594 7.66-23.187 22.98-32.032Z"></path><path fill="url(#C)" d="m1262.35 196.337-.01.019a28.265 28.265 0 0 1 3.495 13.367c0 11.593-7.66 23.186-22.98 32.032-15.321 8.845-35.4 13.267-55.48 13.267s-40.16-4.422-55.48-13.268c-15.321-8.845-22.981-20.438-22.981-32.03a28.11 28.11 0 0 1 3.218-12.87c-14.16 25.996-10.683 61.07 2.15 74.646l.004-.002c3.825 5.666 9.683 10.98 17.608 15.556 15.32 8.845 35.4 13.268 55.48 13.268s40.16-4.423 55.48-13.268c7.927-4.577 13.785-9.891 17.61-15.558l.01.004c12.916-13.666 16.363-49.117 1.876-75.163Z"></path></g><g><path fill="#dfe4f4" d="M1131.395 621.547 788.413 423.525 492.243 594.52l.015.009-41.414 23.907c-11.423 6.598-19.013 8.028-23.572 5.79l341.858 197.37c4.387 3.11 12.281 2.035 24.702-5.136l136.658-78.902-.015-.009ZM427.272 624.226l-1.083-.626a8.131 8.131 0 0 0 1.083.626Z"></path><path d="M887.779 733.983 586.97 560.31l4.36-2.515 300.81 173.671-4.361 2.517zM896.5 728.948 595.691 555.275l4.36-2.515L900.86 726.431l-4.36 2.517zM905.22 723.913 604.411 550.24l4.36-2.515 300.81 173.671-4.361 2.517zM913.941 718.878 613.132 545.205l4.36-2.515 300.809 173.671-4.36 2.517zM922.661 713.843 621.852 540.17l4.36-2.516 300.81 173.672-4.361 2.517zM931.382 708.808 659.916 552.076l4.36-2.515L935.742 706.29l-4.36 2.518zM924.565 684.732 648.013 525.065l4.36-2.516 276.552 159.666-4.36 2.517zM957.543 693.703 656.734 520.03l4.36-2.516 300.809 173.671-4.36 2.518zM966.264 688.668l-300.81-173.673 4.36-2.516 300.81 173.671-4.36 2.518zM974.984 683.633 674.175 509.96l4.36-2.516 300.809 173.671-4.36 2.518zM983.705 678.597l-300.81-173.673 4.36-2.515 300.81 173.671-4.36 2.517zM992.425 673.562 691.616 499.889l4.36-2.515 300.809 173.671-4.36 2.517zM1001.146 668.527l-300.81-173.673 4.36-2.515 300.81 173.671-4.36 2.517zM1009.866 663.492 709.057 489.819l4.36-2.515 300.809 173.671-4.36 2.517zM1018.586 658.457 717.777 484.784l4.36-2.516 300.81 173.672-4.361 2.517zM1027.307 653.422 726.498 479.749l4.36-2.516 300.809 173.671-4.36 2.518zM1036.027 648.387 735.218 474.714l4.36-2.516 300.81 173.671-4.361 2.518zM1044.748 643.352l-300.81-173.673 4.361-2.516 300.809 173.671-4.36 2.518zM1053.468 638.317 778.797 479.735l4.36-2.516 274.672 158.58-4.361 2.518zM1014.86 585.592l-168.912-97.298 4.36-2.516 168.913 97.297-4.361 2.517zM879.059 739.019 578.25 565.346l4.36-2.516 300.809 173.671-4.36 2.518zM870.339 744.054 569.53 570.381l4.36-2.516 300.809 173.671-4.36 2.518zM861.619 749.089 560.81 575.416l4.36-2.516 300.809 173.672-4.36 2.517z" style="mix-blend-mode:multiply" fill="#f1f1f6"></path><path d="M924.032 791.493a7.786 7.786 0 0 0-2.001-1.399l-151.427-87.426-261.8 103.497 151.426 87.427 10.67-5.583c62.948-30.15 185.433-46.141 229.446-71.554 22.57-13.03 27.807-20.824 23.686-24.962Z" style="mix-blend-mode:multiply" fill="url(#D)"></path><path fill="url(#E)" d="M426.189 623.6c-3.083-2.156-4.447-6.357-4.447-11.955 0-13.588 12.512-29.442 46.237-21.45 18.821 4.456 44.552-39.302 26.886-46.64l342.205 197.73c19.182 6.368-7.019 51.451-26.107 46.93-33.725-7.988-46.237 7.865-46.237 21.452 0 5.571 1.354 9.763 4.404 11.929Z"></path><path fill="url(#F)" d="m597.476 929.825 62.754-36.233c58.629-33.846 86.947-111.696 133.604-138.632 22.568-13.03 36.069-16.054 43.236-13.675l-342.205-197.73c-6.942-2.885-20.599-.139-44.017 13.384-46.655 26.934-74.973 104.785-133.602 138.633l-62.754 36.23Z"></path><path fill="#807dfb" d="M614.178 894.797c-.075-.482-.806-.836-1.634-.795a13.075 13.075 0 0 1-7.014-1.97c-3.926-2.555-7.585-8.617-2.737-22.992a45.483 45.483 0 0 1 1.595-4.08 67.087 67.087 0 0 0 18.89-6.836c2.67-1.539 3.38-3.721 1.806-5.562-1.392-1.627-4.282-2.523-7.356-2.288-3.177.251-10.513 2.12-15.855 13.362-8.284 1.56-17.607 1.79-26.211-.917-2.962-.936-4.48-1.943-4.65-3.082-.442-3.01 8.461-7.075 15.617-10.338 4.261-1.947 8.286-3.785 10.58-5.413a.62.62 0 0 0-.016-1.113 2.32 2.32 0 0 0-1.884-.199c-6.967 2.23-21.45 6.878-35.538 5.524-3.583-.346-8.037-1.198-8.903-3.293-1.085-2.614 3.62-6.454 12.592-10.256.623-.265.795-.761.402-1.147a2.177 2.177 0 0 0-1.931-.346c-13.316 3.557-30.917 2.99-37.996 1.242a2.044 2.044 0 0 0-1.985.458c-.327.442.03.953.796 1.14 6.385 1.58 19.916 2.288 32.466.377-5.785 3.245-8.357 6.342-7.284 8.935.693 1.67 3.225 3.826 11.348 4.612 9.836.942 19.651-.778 27.316-2.733-.608.277-1.21.559-1.836.842-8.521 3.888-17.33 7.907-16.751 11.857.257 1.742 2.346 3.245 6.208 4.464 8.807 2.771 18.266 2.733 26.794 1.336-.41.983-.8 2.01-1.176 3.115-4.103 12.16-2.92 20.416 3.52 24.541a17.627 17.627 0 0 0 9.458 2.498c.828-.045 1.441-.463 1.369-.943Zm3.956-42.793a5.056 5.056 0 0 1 4.246 1.334c.785.92.871 2.335-1.236 3.554a61.725 61.725 0 0 1-15.745 5.986c3.906-7.477 8.897-10.575 12.735-10.874ZM363.522 723.455c-11.873-6.858-31.122-6.858-42.995 0-11.87 6.851-11.87 17.965 0 24.822 11.873 6.852 31.12 6.852 42.995 0 11.87-6.857 11.87-17.97 0-24.822Zm-36.412 21.019c-8.238-4.756-8.236-12.468 0-17.224 8.232-4.75 21.593-4.75 29.829 0 8.236 4.758 8.236 12.472 0 17.224-8.234 4.756-21.594 4.756-29.83 0Z"></path><path fill="#807dfb" d="M354.91 728.424c-7.115-4.11-18.652-4.105-25.771 0-7.11 4.11-7.113 10.771 0 14.878 7.117 4.107 18.656 4.107 25.77 0 7.113-4.107 7.113-10.771 0-14.878Zm-24.286 14.02c-6.295-3.632-6.29-9.527 0-13.162 6.293-3.635 16.506-3.635 22.797 0 6.295 3.635 6.295 9.53 0 13.162-6.29 3.635-16.504 3.635-22.797 0Z"></path><path d="m360.067 682.92 302.791 174.814a209.024 209.024 0 0 0 5.775-5.63l-302.79-174.812a206.141 206.141 0 0 1-5.776 5.628ZM547.882 771.358l127.524 73.625c20.714-22.626 37.887-49.106 55.916-70.86L603.8 700.495c-18.031 21.758-35.207 48.236-55.918 70.863ZM640.863 666.641v.004c-11.809 6.82-22.446 16.894-32.697 28.69l127.524 73.626c10.253-11.797 20.89-21.873 32.697-28.693ZM627.802 659.106h.006l-162.21-93.654c-34.45 19.894-58.931 67.526-92.979 104.72l162.203 93.647c34.049-37.195 58.528-84.821 92.98-104.713Z" style="mix-blend-mode:multiply" fill="#f1f1f6"></path></g><g><path d="M353.366 698.442c-9.068-5.236-20.953-7.854-32.839-7.854h-46.442v53.627h46.442c11.886 0 23.771-2.618 32.84-7.854 9.068-5.235 13.602-12.097 13.602-18.96 0-6.862-4.534-13.724-13.603-18.96Z" style="mix-blend-mode:multiply" fill="url(#G)"></path><path fill="#807dfb" d="M245.008 676.745c9.069-5.236 20.954-7.854 32.84-7.854s23.77 2.618 32.84 7.854 13.602 12.098 13.602 18.96-4.534 13.724-13.603 18.96c-9.068 5.235-20.953 7.853-32.839 7.853-11.885 0-23.771-2.618-32.84-7.854-9.068-5.235-13.602-12.097-13.602-18.96 0-6.862 4.534-13.724 13.602-18.96Z"></path><path fill="url(#d)" d="M310.687 714.664c-9.068 5.236-20.953 7.854-32.839 7.854-11.885 0-23.771-2.618-32.84-7.854-9.068-5.235-13.602-12.097-13.602-18.96v21.697c0 6.863 4.534 13.725 13.603 18.96 9.068 5.236 20.954 7.854 32.839 7.854 11.886 0 23.771-2.618 32.84-7.854s13.602-12.097 13.602-18.96v-21.696c0 6.862-4.534 13.724-13.603 18.96Z"></path><path d="M284.777 709.869c8.42-.93 24.026-1.804 34.642-2.246a18.29 18.29 0 0 0 4.87-11.918 17.916 17.916 0 0 0-4.187-11.07c-12.058-1.222-30.167-3.358-30.167-3.358Z" style="mix-blend-mode:multiply" fill="url(#f)"></path><path fill="url(#H)" d="m301.664 690.484.012-.005c-5.804-11.504-7.732-31.998-7.732-44.182 0 2.379-1.572 4.757-4.715 6.571a25.156 25.156 0 0 1-22.762 0c-3.143-1.814-4.715-4.192-4.715-6.57 0 12.183-1.928 32.677-7.732 44.18l.012.006a9.487 9.487 0 0 0-1.674 5.22c0 3.767 2.488 7.533 7.466 10.407 4.977 2.873 11.5 4.31 18.024 4.31 6.524 0 13.047-1.437 18.024-4.31 4.978-2.874 7.466-6.64 7.466-10.406a9.486 9.486 0 0 0-1.674-5.22Z"></path><path fill="#807dfb" d="M260.43 608.552c4.81-2.777 11.114-4.166 17.418-4.166 6.304 0 12.608 1.389 17.418 4.166 4.81 2.777 7.216 6.417 7.216 10.056s-2.405 7.28-7.215 10.057c-4.81 2.777-11.115 4.166-17.419 4.166s-12.609-1.389-17.419-4.166c-4.81-2.777-7.215-6.417-7.215-10.057s2.405-7.28 7.215-10.056Z"></path><path fill="url(#I)" d="M295.267 628.665c-4.81 2.777-11.115 4.166-17.419 4.166s-12.609-1.389-17.419-4.166c-4.81-2.777-7.215-6.417-7.215-10.057v28.288c0 3.64 2.405 7.28 7.215 10.057 4.81 2.777 11.115 4.165 17.419 4.166 6.304 0 12.609-1.389 17.419-4.166 4.81-2.777 7.215-6.417 7.215-10.057v-28.288c0 3.64-2.405 7.28-7.215 10.057Z"></path></g><path d="m1306.127 651.917-92.618-53.473-62.563 36.12 48.54 28.025-196.478 113.437-1.814 1.045-4.07-2.35-.756.436-.001 4.703-1.813 1.045-12.077 6.974c-4.997 2.884-.934 5.23 9.056 5.23h51.927c9.99 0 22.182-2.346 27.175-5.23l12.077-6.974 1.814-1.045-3.29-3.017 8.117.228 1.813-1.045 152.398-87.989Z" style="mix-blend-mode:multiply" fill="url(#J)"></path><g><path fill="#ced3f8" d="m975.231 778.116 225.83-130.383v-32.766L975.231 745.35v32.766z"></path><path fill="#5652cc" d="m992.744 777.768-8.456-4.881-13.012 7.51 8.457 4.883 13.011-7.512zM1209.514 642.852 996.362 765.915l8.457 4.882 213.152-123.062Zm-8.453 4.881 8.453-4.88-8.453-4.882ZM1001.198 726.174 695.055 549.422l216.773-125.154 306.143 176.752-216.773 125.154z"></path><path fill="#362e94" d="m1001.198 730.881-306.143-176.75v-4.709l306.143 176.752v4.707z"></path><path fill="#423eaf" d="M996.368 733.671 690.225 556.919l4.83-2.788 306.143 176.75-4.83 2.79z"></path><path fill="#20196f" d="m992.744 739.944 1.813-1.047 8.451-4.879 1.813-1.047v-4.705l213.15-123.06v-4.186l-214.963 124.108-1.81 1.046v4.707l-4.83 2.79v-4.71l-1.811 1.047-12.08 6.973c-4.994 2.883-9.059 9.922-9.057 15.69v29.98c-.002 5.768 4.063 8.113 9.057 5.228l12.08-6.972 1.81-1.047v-4.703l4.83-2.79v4.706l1.811-1.047 214.963-124.11v-4.181l-213.152 123.062.002-2.613-.002-2.094-1.81 1.047-8.452 4.88-1.813 1.046v4.705l-10.269 5.928c-2.996 1.73-5.433.324-5.433-3.137v-29.98a12.027 12.027 0 0 1 5.433-9.412l10.27-5.928Z"></path><path fill="#5652cc" d="m982.477 736.981-306.143-176.75 13.891-8.019 306.143 176.75-13.891 8.019z"></path><path fill="url(#K)" d="M973.42 782.651v-29.98c-.002-5.768 4.063-12.807 9.057-15.69l-306.143-176.75c-4.994 2.883-9.058 9.922-9.056 15.688v29.98c-.002 2.99 1.098 5.05 2.844 5.95v.013L975.856 788.37v-.012c-1.506-.998-2.436-2.957-2.436-5.707Z"></path><path fill="#5652cc" d="m1004.819 766.09-8.457-4.882-12.074 6.972 8.456 4.883 12.075-6.973z"></path><path fill="#362e94" d="m992.744 735.239-4.076 2.351 4.076 2.354v-4.705zM992.744 773.063l-8.456-4.883v4.707l8.456 4.881v-4.705zM1001.198 772.366l-4.074 2.355 4.074 2.352v-4.707z"></path><path d="m1142.243 618.742-110.351 63.712a3.825 3.825 0 0 1-3.465 0c-15.015-8.67-39.446-8.67-54.46 0a3.829 3.829 0 0 1-3.465 0l-199.72-115.31a1.056 1.056 0 0 1 0-2c15.016-8.67 15.015-22.775.001-31.443a1.056 1.056 0 0 1 0-2l110.352-63.712a3.827 3.827 0 0 1 3.464 0c15.014 8.669 39.445 8.669 54.46 0a3.83 3.83 0 0 1 3.464 0l199.72 115.31a1.055 1.055 0 0 1 0 2c-15.015 8.669-15.015 22.774 0 31.443a1.055 1.055 0 0 1 0 2Zm-112.133 60.74 106.986-61.768c-14.678-9.479-14.678-23.908 0-33.387L940.743 470.961c-16.417 8.475-41.41 8.475-57.827 0L775.93 532.729c14.679 9.479 14.679 23.908 0 33.387l196.353 113.366c16.417-8.475 41.41-8.474 57.827 0Z" style="mix-blend-mode:screen" fill="#e57139"></path><path style="mix-blend-mode:screen" fill="#bbc0e6" d="m939.373 612.659 81.984-47.333 9.213 5.319-81.984 47.333-9.213-5.319z"></path><path d="M931.368 596.999a4.478 4.478 0 0 1-.123 3.856 9.807 9.807 0 0 1-3.879 3.439l-3.088 1.783a19.55 19.55 0 0 1-3.552 1.766 5.17 5.17 0 0 1-2.445.07 18.438 18.438 0 0 1-3.947-1.9l-23.605-13.628a12.696 12.696 0 0 1-3.14-2.16 1.317 1.317 0 0 1-.193-1.404 4.72 4.72 0 0 1 2.022-1.83l1.612-.93-1.011-.584-19.751 11.404 1.01.583 1.23-.71a8.659 8.659 0 0 1 3.004-1.119 6.583 6.583 0 0 1 2.46.016 18.666 18.666 0 0 1 3.852 1.876l24.37 14.07a12.77 12.77 0 0 1 3.14 2.161 1.266 1.266 0 0 1 .219 1.388 4.708 4.708 0 0 1-2.02 1.83l-1.23.71 1.01.583 32.892-18.99-11.61-8.313-1.12.647a18.357 18.357 0 0 1 3.893 5.386Zm38.808-23.604-43.74-9.827-.519.3 16.31 24.716q2.35 3.534 2.418 5.055a3.477 3.477 0 0 1-1.626 2.848l1.01.584 12.323-7.115-1.011-.583a18.198 18.198 0 0 1-4.289 1.72 5.318 5.318 0 0 1-3.552-.6 7.158 7.158 0 0 1-2.213-2.161l-2.048-2.982 13.085-7.554 6.584 1.53q2.567.6 2.87.709a5.591 5.591 0 0 1 1.174.489q.82.473.655 1.073-.274.853-2.432 2.098l-.737.426 1.01.583 17.923-10.347-1.01-.584a8.67 8.67 0 0 1-3.608.947 42.426 42.426 0 0 1-8.577-1.325Zm-28.004 10.236-7.076-10.646 18.277 4.18Zm44.422-53.911 1.01.583a9.042 9.042 0 0 1 3.622-1.286 4.497 4.497 0 0 1 2.526.576 7.76 7.76 0 0 1 1.449 1.088 25.43 25.43 0 0 1 2.184 2.619l9.836 12.65-24.288-6.23a36.35 36.35 0 0 1-5.082-1.514 1.362 1.362 0 0 1-.696-.782.942.942 0 0 1 .26-.89 10.962 10.962 0 0 1 2.404-1.736l-1.011-.583-17.948 10.362 1.01.584a9.842 9.842 0 0 1 3.073-1.238 10.239 10.239 0 0 1 3.115-.016 63.888 63.888 0 0 1 6.243 1.364l5.464 1.389 8.223 11.466-25.244-6.182a30.69 30.69 0 0 1-5.737-1.767 1.09 1.09 0 0 1-.682-1.136q.107-.677 1.994-1.83l-1.011-.583-16.064 9.274 1.011.584a7.126 7.126 0 0 1 3.606-.79 71.038 71.038 0 0 1 8.114 1.69l42.428 10.425 1.01-.583-13.77-19.622 33.057 8.486 1.066-.615-18.96-24.354q-2.35-3.153-2.514-3.438a2.083 2.083 0 0 1-.246-1.594 2.749 2.749 0 0 1 1.176-1.34l-1.01-.584Z" style="mix-blend-mode:screen" fill="#807dfb"></path><g style="mix-blend-mode:screen"><path fill="url(#e)" d="m953.41 720.2-6.431-3.714c-4.994 2.883-9.059 9.922-9.057 15.69v29.98c0 2.75.93 4.71 2.436 5.707l6.432 3.726v-.012c-1.506-.998-2.436-2.957-2.436-5.707v-29.98c-.002-5.768 4.063-12.807 9.057-15.69Z"></path><path fill="url(#L)" d="m919.028 700.362-6.432-3.713c-4.994 2.883-9.059 9.922-9.057 15.69v29.98c0 2.75.93 4.709 2.436 5.707l6.432 3.725v-.012c-1.506-.998-2.436-2.957-2.436-5.707v-29.98c-.002-5.768 4.063-12.807 9.057-15.69Z"></path><path fill="url(#M)" d="m884.645 680.524-6.432-3.713c-4.994 2.883-9.058 9.922-9.056 15.69v29.98c0 2.75.93 4.709 2.435 5.707l6.432 3.725v-.012c-1.506-.998-2.435-2.957-2.435-5.707v-29.98c-.002-5.768 4.062-12.807 9.056-15.69Z"></path><path fill="url(#N)" d="m850.263 660.687-6.432-3.714c-4.994 2.883-9.059 9.922-9.057 15.69v29.98c0 2.75.93 4.709 2.436 5.707l6.432 3.725v-.011c-1.506-.998-2.436-2.957-2.436-5.707v-29.98c-.002-5.768 4.063-12.808 9.057-15.69Z"></path><path fill="url(#O)" d="m815.88 640.849-6.432-3.714c-4.994 2.883-9.059 9.922-9.057 15.69v29.98c0 2.75.93 4.71 2.436 5.707l6.432 3.726v-.012c-1.506-.998-2.436-2.957-2.436-5.707v-29.98c-.002-5.768 4.063-12.807 9.057-15.69Z"></path><path fill="url(#P)" d="m781.497 621.011-6.432-3.713c-4.994 2.882-9.058 9.922-9.056 15.69v29.98c0 2.75.93 4.709 2.435 5.707l6.432 3.725v-.012c-1.506-.998-2.435-2.957-2.435-5.707v-29.98c-.002-5.768 4.062-12.807 9.056-15.69Z"></path><path fill="url(#Q)" d="m747.115 601.173-6.432-3.713c-4.994 2.883-9.059 9.922-9.057 15.69v29.98c0 2.75.93 4.709 2.436 5.707l6.432 3.725v-.012c-1.506-.998-2.436-2.957-2.436-5.707v-29.98c-.002-5.768 4.062-12.807 9.057-15.69Z"></path><path fill="url(#R)" d="m712.732 581.335-6.432-3.713c-4.994 2.883-9.059 9.922-9.057 15.69v29.98c0 2.75.93 4.709 2.436 5.707l6.432 3.725v-.011c-1.506-.998-2.436-2.957-2.436-5.707v-29.981c-.002-5.768 4.063-12.807 9.057-15.69Z"></path></g></g><g><path d="M616.673 440.962c-18.53-10.7-42.821-16.05-67.104-16.047h-41.801v5.602a111.43 111.43 0 0 0-25.302 10.445c-18.534 10.7-27.797 24.723-27.797 38.742 0 14.023 9.267 28.045 27.797 38.742a111.496 111.496 0 0 0 25.302 10.445v5.604h41.801c24.287 0 48.57-5.35 67.104-16.049 18.533-10.7 27.796-24.722 27.796-38.744-.004-14.021-9.266-28.04-27.796-38.74Z" style="mix-blend-mode:multiply" fill="url(#S)"></path><path fill="url(#g)" d="M276.36 454c15.515-8.956 35.846-13.432 56.178-13.432 20.327-.002 40.662 4.476 56.173 13.432 12.67 7.314 20.159 16.481 22.482 25.99a27.147 27.147 0 0 0 .791-6.45c-.004-11.738-7.758-23.476-23.273-32.43-15.511-8.956-35.846-13.436-56.173-13.432-20.332 0-40.663 4.476-56.178 13.432-15.515 8.958-23.269 20.695-23.269 32.434a27.122 27.122 0 0 0 .788 6.446c2.327-9.509 9.816-18.676 22.481-25.99Z"></path><path fill="#ffc16b" d="M276.36 505.978c15.515 8.954 35.846 13.432 56.178 13.432 20.331 0 40.662-4.48 56.173-13.432 12.666-7.312 20.159-16.481 22.482-25.988-2.323-9.509-9.812-18.676-22.482-25.99-15.511-8.956-35.846-13.434-56.173-13.432-20.332 0-40.663 4.476-56.178 13.432-12.665 7.314-20.154 16.481-22.481 25.99 2.327 9.507 9.816 18.676 22.481 25.988Z"></path><path d="M291.568 454.266c14.273-8.24 32.643-12.628 51.323-13.26-3.438-.26-6.891-.438-10.353-.438-20.331 0-40.663 4.476-56.178 13.432-12.665 7.314-20.154 16.481-22.481 25.99 2.265 9.254 9.436 18.183 21.496 25.395-13.137-16.825-7.75-37.296 16.193-51.12Z" style="mix-blend-mode:multiply" fill="url(#i)"></path><path fill="url(#h)" d="M388.711 505.978c-15.511 8.952-35.842 13.432-56.173 13.432-20.332 0-40.663-4.478-56.178-13.432-15.511-8.958-23.269-20.696-23.269-32.434v12.89c0 11.738 7.758 23.477 23.27 32.434 15.514 8.96 35.845 13.434 56.177 13.434 20.331 0 40.662-4.482 56.173-13.438 15.515-8.957 23.273-20.696 23.273-32.432v-12.888c-.004 11.738-7.758 23.476-23.273 32.434Z"></path><path fill="#20196f" d="M332.538 521.376a1.966 1.966 0 0 1-1.966-1.967v-283.8a1.966 1.966 0 1 1 3.931 0v283.8a1.966 1.966 0 0 1-1.965 1.967Z"></path><path fill="#20196f" d="M410.372 475.51a1.968 1.968 0 0 1-1.87-1.355L330.668 236.22a1.967 1.967 0 1 1 3.739-1.223l77.834 237.935a1.967 1.967 0 0 1-1.87 2.579Z"></path><path fill="#20196f" d="M253.091 475.51a1.967 1.967 0 0 1-1.865-2.59l79.446-237.935a1.967 1.967 0 1 1 3.73 1.246l-79.446 237.936a1.968 1.968 0 0 1-1.865 1.344Z"></path><path fill="url(#T)" d="M637.957 246.855c15.516-8.956 35.847-13.433 56.178-13.433 20.331-.003 40.662 4.477 56.173 13.433 12.67 7.313 20.159 16.479 22.486 25.986a27.277 27.277 0 0 0 .787-6.449c0-11.736-7.757-23.474-23.273-32.43-15.511-8.956-35.842-13.438-56.173-13.434-20.331 0-40.662 4.478-56.178 13.434-15.511 8.958-23.269 20.698-23.269 32.434a26.885 26.885 0 0 0 .792 6.445c2.323-9.505 9.812-18.673 22.477-25.986Z"></path><path fill="#ffc16b" d="M637.957 298.83c15.516 8.956 35.847 13.432 56.178 13.432 20.335 0 40.662-4.478 56.173-13.432 12.67-7.314 20.159-16.48 22.486-25.99-2.327-9.506-9.816-18.672-22.486-25.985-15.511-8.956-35.842-13.436-56.173-13.433-20.331 0-40.662 4.477-56.178 13.433-12.665 7.313-20.154 16.48-22.477 25.986 2.323 9.508 9.816 18.675 22.477 25.99Z"></path><path fill="url(#U)" d="M750.308 298.83c-15.511 8.954-35.838 13.432-56.173 13.432-20.331 0-40.662-4.476-56.178-13.432-15.511-8.957-23.269-20.695-23.269-32.434v12.89c0 11.739 7.758 23.479 23.27 32.435 15.515 8.955 35.846 13.435 56.177 13.435 20.335 0 40.662-4.482 56.173-13.437 15.52-8.958 23.273-20.696 23.273-32.433v-12.89c0 11.739-7.757 23.477-23.273 32.434Z"></path><path fill="#20196f" d="M694.135 314.228a1.966 1.966 0 0 1-1.967-1.966V28.461a1.967 1.967 0 0 1 3.934 0v283.801a1.966 1.966 0 0 1-1.967 1.966Z"></path><path fill="#20196f" d="M771.97 268.363a1.968 1.968 0 0 1-1.87-1.355L692.266 29.072a1.967 1.967 0 0 1 3.738-1.223l77.834 237.936a1.967 1.967 0 0 1-1.869 2.578Z"></path><path fill="#20196f" d="M614.688 268.363a1.967 1.967 0 0 1-1.865-2.59L692.27 27.838a1.967 1.967 0 1 1 3.73 1.246l-79.447 237.935a1.969 1.969 0 0 1-1.865 1.344Z"></path><path d="M653.169 247.116c14.273-8.24 32.643-12.627 51.323-13.26-3.438-.26-6.891-.438-10.353-.438-20.331 0-40.663 4.477-56.178 13.433-12.665 7.313-20.154 16.48-22.481 25.99 2.265 9.253 9.436 18.182 21.496 25.395-13.137-16.825-7.75-37.296 16.193-51.12Z" style="mix-blend-mode:multiply" fill="url(#V)"></path><path fill="#807dfb" d="M517.357 119.266c0-3.427 2.404-4.815 5.377-3.103a11.881 11.881 0 0 1 5.372 9.311c0 3.428-2.404 4.816-5.372 3.104a11.873 11.873 0 0 1-5.377-9.312Z"></path><path fill="url(#k)" d="m526.463 128.987.034-.02a.263.263 0 0 1-.038.014Zm201.59-118.951a11.881 11.881 0 0 0-5.372-9.311c-1.548-.893-2.934-.928-3.914-.286l-.007-.01-199.74 115.312.008.01a3.823 3.823 0 0 1 3.706.412 11.881 11.881 0 0 1 5.372 9.311 3.8 3.8 0 0 1-1.54 3.455l199.51-115.227-.016-.03c1.206-.441 1.993-1.697 1.993-3.636Z"></path><path fill="#6b67e9" d="M418.497 449.372c0-14.019 9.263-28.042 27.797-38.742 18.53-10.7 42.817-16.047 67.104-16.047 24.283-.002 48.573 5.348 67.103 16.047 18.53 10.7 27.793 24.72 27.797 38.74 0 14.022-9.263 28.045-27.797 38.744-18.534 10.7-42.816 16.05-67.103 16.05s-48.57-5.35-67.104-16.05c-18.53-10.697-27.797-24.719-27.797-38.742Z"></path><path d="M580.501 410.63c-18.53-10.7-42.82-16.049-67.103-16.047-.408 0-.815.014-1.222.017v104.16h42.322a111.986 111.986 0 0 0 26.003-10.646c18.534-10.699 27.797-24.722 27.797-38.744-.004-14.02-9.267-28.04-27.797-38.74Z" style="mix-blend-mode:multiply" fill="url(#W)"></path><path fill="url(#j)" d="M580.501 488.114c-18.534 10.7-42.816 16.05-67.103 16.05s-48.57-5.35-67.104-16.05c-18.53-10.697-27.797-24.719-27.797-38.742v30.332c0 14.019 9.267 28.043 27.797 38.742 18.534 10.7 42.817 16.049 67.104 16.049s48.57-5.354 67.103-16.049c18.53-10.7 27.793-24.723 27.797-38.742V449.37c0 14.022-9.263 28.045-27.797 38.744Z"></path><path fill="url(#X)" d="M573.888 474.96c-16.702 9.646-38.596 14.471-60.49 14.471s-43.785-4.823-60.494-14.466c-16.706-9.645-25.059-22.288-25.059-34.927v9.334c0 12.641 8.353 25.282 25.059 34.925 16.71 9.645 38.6 14.469 60.494 14.469s43.788-4.824 60.49-14.469c16.71-9.643 25.059-22.284 25.063-34.925v-9.334c-.004 12.64-8.354 25.28-25.063 34.923Z"></path><path fill="#807dfb" d="M427.845 440.038c0-12.639 8.353-25.279 25.059-34.928 16.705-9.643 38.6-14.465 60.494-14.465 21.89 0 43.788 4.823 60.49 14.465 16.71 9.645 25.059 22.285 25.063 34.926 0 12.64-8.354 25.282-25.063 34.925-16.702 9.645-38.596 14.47-60.49 14.47s-43.785-4.823-60.494-14.466c-16.706-9.645-25.059-22.288-25.059-34.927Z"></path><path d="m586.056 420.443-34.853-6.808-14.8 32.333-8.836 22.151 52.335-4.317a64.484 64.484 0 0 0 9.137-.67c6.604-7.203 9.912-15.149 9.912-23.096a32.186 32.186 0 0 0-6.257-18.571 61.849 61.849 0 0 0-6.658-1.006Z" style="mix-blend-mode:multiply" fill="url(#Y)"></path><path fill="#807dfb" d="M475.593 408.387c0-5.582 3.69-11.17 11.072-15.43 7.381-4.265 17.059-6.393 26.733-6.393s19.348 2.13 26.729 6.393c7.381 4.259 11.072 9.845 11.076 15.43 0 5.586-3.695 11.172-11.076 15.435-7.381 4.261-17.055 6.394-26.73 6.394-9.673 0-19.347-2.133-26.732-6.394-7.382-4.263-11.072-9.849-11.072-15.435Z"></path><path d="M540.127 392.957h-26.73v15.43h37.806c-.004-5.585-3.695-11.171-11.076-15.43Z" style="mix-blend-mode:multiply" fill="url(#Z)"></path><path fill="url(#aa)" d="M562.497 432.857h.004l-11.583-27.094h-.023a12.943 12.943 0 0 1 .308 2.624c0 5.586-3.695 11.172-11.076 15.435-7.381 4.261-17.055 6.394-26.73 6.394-9.673 0-19.347-2.133-26.732-6.394-7.382-4.263-11.072-9.849-11.072-15.435a13.006 13.006 0 0 1 .307-2.624h-.027l-11.579 27.094h.004a17.86 17.86 0 0 0-1.551 7.181c0 7.483 4.946 14.966 14.835 20.679 9.893 5.71 22.854 8.566 35.816 8.566 12.965 0 25.926-2.856 35.811-8.566 9.893-5.713 14.84-13.196 14.84-20.68a17.847 17.847 0 0 0-1.552-7.18Z"></path><path fill="#ced3f8" d="m513.398 408.387-11.26-6.499V182.702l11.26 6.5v219.185z"></path><path fill="#bbc0e6" d="m513.398 408.387 11.256-6.499V182.702l-11.256 6.5v219.185z"></path><path fill="#5652cc" d="m513.398 189.202-19.563-11.295v-75.498l19.563 11.295v75.498z"></path><path fill="#423eaf" d="m513.398 189.202 19.563-11.295v-75.498l-19.563 11.295v75.498z"></path><path fill="#807dfb" d="m513.398 113.704 19.563-11.295-19.563-11.293-19.563 11.293 19.563 11.295z"></path><path d="M513.398 109.285h7.653l11.91-6.876-7.65-4.416v4.416l-11.913 6.876z" style="mix-blend-mode:multiply" fill="#d1d7f3"></path><path fill="#5652cc" d="m513.398 109.285-11.909-6.876V80.953l11.909 6.878v21.454z"></path><path fill="#423eaf" d="m513.398 109.285 11.913-6.876V80.953l-11.913 6.878v21.454z"></path><path fill="#807dfb" d="m513.398 87.831 11.913-6.878-11.913-6.876-11.909 6.876 11.909 6.878z"></path><path style="mix-blend-mode:multiply" fill="url(#ab)" d="m507.443 131.202 5.957 8.204-.002 16.16-11.909-13.848 5.954-10.516z"></path><path fill="#807dfb" d="M298.293 245.685c0-3.428 2.408-4.816 5.376-3.103a11.886 11.886 0 0 1 5.377 9.311c0 3.43-2.408 4.816-5.377 3.105a11.887 11.887 0 0 1-5.376-9.313Z"></path><path fill="url(#ac)" d="m307.402 255.405.031-.02c-.012.006-.023.008-.034.014Zm201.59-118.95a11.883 11.883 0 0 0-5.376-9.312c-1.544-.893-2.93-.927-3.91-.286l-.007-.01-199.74 115.312.008.01a3.816 3.816 0 0 1 3.702.413 11.886 11.886 0 0 1 5.377 9.311 3.789 3.789 0 0 1-1.544 3.454l199.513-115.225-.016-.031c1.207-.44 1.994-1.695 1.994-3.637Z"></path></g><g><path d="M960.595 859.156c3.881-5.354 16.6-22.813 21.046-27.502-6.284 1.506-27.761 3.796-34.34 4.482-1.883 5.761-11.16 15.053-16.675 19.709a72.086 72.086 0 0 0-3.027-.073c-6.256 0-10.223.898-11.209 2.267h-.011l-282.427 166.76c-4.608 1.538-5.061 4.013-.21 6.814 8.083 4.668 27.747 8.452 43.914 8.452 8.882 0 14.838-1.147 17.084-2.95l.016.003s72.386-32.644 76.771-34.147c4.385-1.503 2.604-4.552 2.604-4.552 2.775-1.233 80.8-42.122 84.09-43.767 3.289-1.644 99.202-90.26 99.023-90.317.781-.894.259-2.003-1.829-3.21a22.86 22.86 0 0 0-3.782-1.655 19.376 19.376 0 0 1 8.962-.314Z" style="mix-blend-mode:multiply" fill="url(#ad)"></path><path fill="url(#ae)" d="M931.173 822.705c-2.33 7.128-8.497 10.894-12.334 13.361l5.248 6.075h.011l-.008.005 2.638 7.582c4.055-2.09 10.4-5.547 17.738-4.002 3.881-5.354 16.6-22.813 21.046-27.503-6.284 1.507-27.761 3.797-34.34 4.482Z"></path><path fill="url(#af)" d="M928.441 850.032c0-5.743-4.036-12.733-9.01-15.606-2.423-1.399-4.62-1.554-6.239-.69l-.001-.008c-21.645 8.632-89.66 40.568-107.75 51.107l13.31 18.067 9.097 20.612c18.127-10.356 79.905-53.436 98.41-67.96v-.007c1.358-1.04 2.183-2.927 2.183-5.515Z"></path><path fill="url(#l)" d="M828.018 923.416c2.853-1.655 4.62-5.18 4.62-10.211 0-10.086-7.08-22.352-15.815-27.4-4.473-2.582-8.504-2.756-11.382-.97l-.004-.008-82.031 47.35 22.04 38.926 82.572-47.687Z"></path><path fill="#5652cc" d="M718.706 942.453c0-10.085 7.085-14.177 15.82-9.135 8.734 5.048 15.815 17.315 15.815 27.4 0 10.089-7.08 14.178-15.817 9.135-8.733-5.044-15.818-17.313-15.818-27.4Z"></path><path fill="url(#ag)" d="M719.89 943.608c0-9.07 6.371-12.75 14.228-8.215 7.856 4.539 14.224 15.572 14.224 24.643 0 9.072-6.368 12.75-14.226 8.214-7.855-4.537-14.226-15.57-14.226-24.642Z"></path><path fill="url(#ah)" d="M745.366 965.037c0-10.884-7.641-24.12-17.067-29.565-4.56-2.63-8.69-2.94-11.752-1.344l-.007-.013s-.504.303-.697.43l-97.526 60.233 20.267 36.079 101.383-54.56-.01-.017c3.321-1.678 5.409-5.571 5.409-11.243Z"></path><path fill="#5652cc" d="M614.017 1004.26c0-9.333 6.554-13.118 14.638-8.451 8.083 4.669 14.637 16.02 14.637 25.354s-6.554 13.12-14.638 8.45c-8.083-4.667-14.637-16.018-14.637-25.353Z"></path><path fill="url(#m)" d="M720.653 959.645c-3.091-4.615-81.286 36.602-77.198 44.521 4.833 7.486 79.983-39.557 77.198-44.52Z"></path><path d="M946.407 829.255c2.194 2.193 16.365-8.854 19.105-11.032-3.257 1.285-20.409 8.001-19.105 11.032Z" style="mix-blend-mode:multiply" fill="#a3a9d0"></path></g><g><path fill="url(#ai)" d="M338.809 848.968c-17.864-10.314-41.27-15.474-64.68-15.48l.002-.001h-33.644v52.778h-.004c.183 13.617-8.709 27.267-26.702 37.655-16.053 9.269-36.603 14.346-57.598 15.26h118.892l.013-.007c23.091-.146 46.105-5.295 63.721-15.466 35.749-20.64 35.747-54.1 0-74.74Z"></path><path fill="url(#aj)" d="M213.781 846.462c-35.621 20.567-93.387 20.565-129.012-.002-17.814-10.285-26.721-23.765-26.721-37.244v77.05l.017-5.274c-.183 13.615 8.71 32.538 26.704 42.926 35.625 20.568 93.39 20.57 129.012.002 17.993-10.388 26.885-24.038 26.702-37.655h.004v-76.759c-.127 13.385-9.02 26.744-26.706 36.956Z"></path><path fill="#362e94" d="m149.4 892.246 149.396-86.254-.002 3.157-149.396 86.254.002-3.157z"></path><path fill="#5652cc" d="M149.396 892.246 0 805.992l.002 3.157 149.396 86.254-.002-3.157z"></path><path fill="#6b67e9" d="M.006 805.99 149.4 719.738l149.396 86.254-149.394 86.252L.006 805.99z"></path><path fill="#ffaf6d" d="m69.019 908.34 5.682-3.281 5.682 3.281-5.682 3.282-5.682-3.282z"></path><path fill="#e57139" d="m86.048 924.139-11.345 6.549-.002-19.066 5.682-3.282 5.665 15.799z"></path><path fill="#fb944b" d="m69.019 908.34 5.682 3.282.002 19.066-11.346-6.549 5.662-15.799zM77.541 850.761l.002 59.22-5.684-3.281.002-59.22 5.68 3.281z"></path><path fill="#ffaf6d" d="M146.558 804.351 71.861 847.48l5.68 3.281 74.697-43.13-5.68-3.28z"></path><path fill="#ffaf6d" d="M142.53 809.956c-3.795-2.189-3.797-5.742 0-7.93a15.176 15.176 0 0 1 13.742 0c3.793 2.188 3.793 5.741 0 7.932a15.183 15.183 0 0 1-13.742-.002Z"></path></g><g><path fill="#fb944b" d="M1105.749 730.695c-.346 3.845-2.098 14.433-2.916 18.916-13.666-21.166-24.628-30.772-38.325-38.895l21.65-12.5c13.665 7.867 28.843 24.895 38.325 38.895a91.91 91.91 0 0 0-18.734-6.416Z"></path><path d="M1102.68 711.153a88.822 88.822 0 0 0-16.521-12.937c-7.848 4.53-18.04 10.414-21.65 12.5a97.967 97.967 0 0 1 17.113 12.596Z" style="mix-blend-mode:multiply" fill="#dae0f5"></path></g><g><path d="M538.766 949.844c-15.006-8.662-34.951-12.654-54.543-12.068h-30.71v5.033a81.446 81.446 0 0 0-16.251 7.035c-27.926 16.238-27.762 42.56.344 58.79a81.698 81.698 0 0 0 15.908 6.897v5.266h36.832c17.71-.3 35.277-4.316 48.754-12.15 27.935-16.243 27.793-42.565-.334-58.803Z" style="mix-blend-mode:multiply" fill="url(#ak)"></path><path fill="#ffd56e" d="M383.54 960.176c-.005-10.385 6.855-20.77 20.585-28.697 13.727-7.922 31.715-11.891 49.71-11.891 17.985 0 35.972 3.969 49.694 11.89 13.729 7.928 20.596 18.313 20.596 28.698 0 10.387-6.863 20.773-20.596 28.7-13.718 7.925-31.705 11.886-49.695 11.886s-35.978-3.961-49.705-11.887c-13.726-7.926-20.59-18.312-20.59-28.7Z"></path><path fill="url(#al)" d="M503.53 988.875c-13.72 7.926-31.706 11.887-49.696 11.887s-35.978-3.961-49.705-11.887c-13.726-7.926-20.59-18.312-20.59-28.7v20.036c0 10.385 6.864 20.772 20.59 28.697 13.727 7.926 31.715 11.889 49.705 11.889s35.977-3.963 49.695-11.885c13.733-7.924 20.596-18.316 20.596-28.701v-20.035c0 10.387-6.863 20.773-20.596 28.7Z"></path><path fill="#ffaf6d" d="M413.465 983.483c11.148 6.431 25.758 9.656 40.37 9.656 14.607 0 29.216-3.225 40.362-9.656 10.288-5.936 15.819-13.582 16.604-21.35-.785-7.772-6.316-15.414-16.604-21.354-11.15-6.441-25.76-9.656-40.37-9.656-14.608 0-29.217 3.215-40.37 9.656-10.277 5.94-15.806 13.579-16.603 21.348.797 7.772 6.326 15.416 16.611 21.356Z"></path><path fill="url(#am)" d="M413.457 940.78c11.153-6.442 25.762-9.657 40.37-9.657 14.61 0 29.22 3.215 40.37 9.656 10.288 5.94 15.819 13.582 16.604 21.354a18.335 18.335 0 0 0 .119-1.957c0-8.434-5.57-16.87-16.723-23.305-11.15-6.433-25.76-9.656-40.37-9.656-14.608 0-29.217 3.223-40.37 9.656-11.142 6.436-16.715 14.871-16.715 23.305a18.711 18.711 0 0 0 .112 1.951c.797-7.77 6.326-15.408 16.603-21.348Z"></path><path fill="#e57139" d="m481.955 951.795 5.401-3.119v-3.904l-5.401 3.113v3.91z"></path><path fill="#ffd56e" d="M457.049 958.322c-2.014-1.164-3.129-2.71-3.129-4.353s1.115-3.19 3.129-4.352a16.667 16.667 0 0 1 15.072-.002c4.16 2.399 4.16 6.309 0 8.707l6.844 3.944c6.748-3.893 7.73-9.865 2.99-14.381l5.4-3.113-6.84-3.954-5.398 3.12c-7.818-2.737-18.164-2.166-24.912 1.734-3.843 2.213-5.955 5.16-5.955 8.297 0 3.135 2.115 6.086 5.955 8.297 4.16 2.406 4.16 6.308 0 8.71a16.675 16.675 0 0 1-15.076 0c-4.16-2.402-4.16-6.304 0-8.71l-6.836-3.944c-6.756 3.897-7.738 9.866-3 14.381l-4.976 2.877 6.84 3.947 4.984-2.876c7.816 2.738 18.154 2.177 24.908-1.72 7.924-4.583 7.924-12.029 0-16.609Z"></path><path fill="#fb944b" d="m420.317 979.486 6.839 3.952v-3.911l-6.839-3.947v3.906z"></path><path fill="#e57139" d="m427.156 983.438 4.985-2.881v-3.906l-4.985 2.876v3.911z"></path><path fill="#fb944b" d="m472.121 962.227 6.844 3.949v-3.91l-6.844-3.944v3.905z"></path><path fill="#e57139" d="M435.129 966.176v-3.91c-2.95 1.71-3.8 4.168-2.559 6.308a6.741 6.741 0 0 1 2.559-2.398Z"></path><path fill="#fb944b" d="m422.352 966.428.008 4.396.011-.01a7.536 7.536 0 0 0 .852 3.088l2.07-1.199a8.392 8.392 0 0 1-2.926-6.265ZM450.205 966.174a6.838 6.838 0 0 1 2.565 2.4c1.234-2.14.38-4.597-2.565-6.308-3.84-2.211-5.955-5.162-5.955-8.297v3.908c0 3.137 2.115 6.082 5.955 8.297Z"></path><path fill="#fbba05" d="M462.994 966.604v-.078h-.007c0 .025.007.05.007.078Z"></path><path fill="#e57139" d="M484.885 953.963c.01 3.008-1.95 6.02-5.92 8.303v3.91c4.072-2.346 6.027-5.45 5.916-8.53l.014.016v-3.699Z"></path><path fill="url(#an)" d="M457.049 974.932c-6.754 3.896-17.092 4.457-24.908 1.719v3.906c7.816 2.74 18.154 2.174 24.908-1.725 3.934-2.267 5.904-5.25 5.938-8.228l.007.01v-3.967c-.007 2.996-1.992 6-5.945 8.285Z"></path><path fill="#e57139" d="M472.121 949.615a16.667 16.667 0 0 0-15.072.002c-2.014 1.162-3.129 2.71-3.129 4.352a3.896 3.896 0 0 0 .56 1.955 6.813 6.813 0 0 1 2.569-2.398 16.655 16.655 0 0 1 15.072-.002 6.77 6.77 0 0 1 2.563 2.4c1.236-2.147.392-4.607-2.563-6.309Z"></path></g><g><path d="M1126.079 343.182c-63.091 4.577-135.997 20.048-164.666 29.875-2.354 4.309.05 9.702 7.46 14.786-5.05 11.7 23.379 30.565 90.442 30.565l66.764.001Z" style="mix-blend-mode:multiply" fill="url(#ao)"></path><path fill="#bbc0e6" d="M969.15 235.205c-8.036 13.927-15.83 25.938-27.011 32.391-10.517 6.072-18.399 3.78-27.016-1.2l.002 68.764c0 39.412 33.867 55.728 54.026 52.057 20.16-19.604 54.028-75.031 54.028-114.442l.002-68.764c-8.042 13.929-15.84 25.935-27.02 32.395-10.512 6.069-18.39 3.777-27.011-1.201Z"></path><path fill="#abb2da" d="M948.188 365.554c6.982 4.265 14.606 6.348 20.963 6.259l-2.226-1.286a39.677 39.677 0 0 1-18.737-4.973Z"></path><path fill="#a3a9d0" d="m1008.622 241.092-.002 37.518c.002 29.583-25.147 73.042-41.695 91.917l2.226 1.286v-.001c16.548-18.875 41.697-62.333 41.696-91.917l.001-40.99c-.72.751-1.477 1.465-2.226 2.187Z"></path><path fill="#ced3f8" d="M901.767 327.447c0 22.241 10.786 37.124 23.806 45.213l.001.004.213.123q1.156.71 2.334 1.347l10.812 6.242-.001-.003c-13.02-8.09-23.807-22.972-23.807-45.213l-.003-68.765-13.358-7.712Z"></path><path fill="url(#ap)" d="M1009.822 196.298c-8.042 13.93-15.84 25.935-27.02 32.395-10.512 6.069-18.389 3.777-27.011-1.201l13.358 7.713c8.622 4.978 16.5 7.27 27.012 1.2 11.18-6.46 18.978-18.465 27.02-32.394Z"></path><path fill="url(#aq)" d="M928.78 259.884c-10.517 6.072-18.398 3.78-27.016-1.201l13.358 7.712c8.618 4.981 16.5 7.273 27.017 1.201 11.181-6.453 18.975-18.464 27.01-32.391l-13.358-7.713c-8.036 13.927-15.83 25.938-27.01 32.392Z"></path><path fill="#5652cc" d="M942.139 281.835a37.397 37.397 0 0 1-14.686 5.167l.002 41.04c0 18.217 9.54 30.676 20.732 37.512a39.68 39.68 0 0 0 18.738 4.973V257.68c-6.7 9.495-14.666 18.312-24.786 24.155Z"></path><path fill="#423eaf" d="M996.161 250.643c-10.908 6.298-19.528 6.248-26.972 3.758l-.037.054a151.45 151.45 0 0 1-2.227 3.225v112.847c16.548-18.875 41.697-62.334 41.695-91.917l.002-37.518a64.605 64.605 0 0 1-12.46 9.551Z"></path></g><g><path d="M942.243 1051.95c9.337 2.257 42.615 9.394 49.896 3.8s18.331-25.992 32.192-38.555c-27.612-.411-48.876-4.655-58.499 1.325-9.623 5.98-23.589 33.43-23.589 33.43Z" style="mix-blend-mode:multiply" fill="url(#ar)"></path><path d="M1322.869 850.819c12.197-1.49 43.063-16.505 42.677-24.614-.386-8.11-36.06-8.95-44.458-4.864-8.397 4.085-16.59 31.723 1.781 29.478Z" style="mix-blend-mode:multiply" fill="url(#as)"></path><path fill="#423eaf" d="M1328.881 836.066c.196 2.825-3.412 5.271-8.286 5.596-87.87 5.85-133.618 21.18-186.295 52.127-5.701 3.35-11.498 6.755-17.46 10.198L940.407 1005.85l-6.122-3.534-3.902 2.252 10.024 5.787 176.431-101.862a2598.06 2598.06 0 0 0 17.46-10.198c52.678-30.948 100.023-42.767 186.49-47.213 4.905-.252 9.118-2.798 8.878-5.643Z"></path><path fill="#6b67e9" d="M1328.885 836.02c.24 2.844-3.389 5.315-8.29 5.642-87.87 5.85-133.618 21.18-186.295 52.127-5.701 3.35-11.498 6.755-17.461 10.198L940.408 1005.85l-10.024-5.787L1106.816 898.2a2566.755 2566.755 0 0 0 17.372-10.148c52.223-30.661 97.508-59.592 192.779-68.87 5.534-.54 10.652 1.851 10.926 5.088Z"></path><path fill="url(#at)" d="M1082.298 920.95q-8.944 5.165-17.664 10.081c-53.602 30.413-80.153 56.826-90.286 107.558-.565 2.83-4.846 4.925-9.773 4.786l-20.35-.573c-5.606-.158-9.749-3.113-8.815-6.308-.929 3.3-1.066 8.163.101 11.308a3.455 3.455 0 0 0 .146.415c.008.018.013.04.02.057l.013-.008c1.105 2.123 4.415 3.754 8.535 3.87l23.549.573c4.927.139 9.216-1.955 9.773-4.786 11.07-56.225 33.485-81.973 87.087-112.386q8.704-4.937 17.664-10.08l176.432-101.864-3.902-2.252Z"></path><path fill="#807dfb" d="M964.575 1043.375c4.927.139 9.208-1.957 9.773-4.786 10.133-50.732 36.684-77.145 90.286-107.558q8.704-4.937 17.664-10.08l176.432-101.863-10.024-5.787-176.431 101.862q-8.9 5.14-17.576 10.03c-53.108 30.151-103.217 56.296-119.289 111.3-.934 3.196 3.209 6.151 8.815 6.309Z"></path><g style="mix-blend-mode:multiply"><path fill="url(#n)" d="M1187.903 822.146c-38.26 12.833-112.12 57.585-75.443 78.761 15.786 9.114 50.078 16.99 85.957 15.461-28.962-1.183-54.865-7.888-67.981-15.46-36.677-21.177 37.182-65.93 75.443-78.762a121.528 121.528 0 0 1 24.51-5.77c-11.554-1.504-24.982-.101-42.486 5.77Z"></path><path fill="url(#au)" d="M968.949 1007.56c-20.053-11.578-30.75-22.381-10.363-42.643 16.607-16.506 64.087-44.481 102.333-48.736-39.734-5.272-100.964 29.509-120.308 48.736-20.387 20.262-9.69 31.065 10.362 42.642 13.4 7.737 43.215 19.211 75.985 16.85-25.364-1.791-47.113-10.559-58.009-16.85Z"></path><path fill="url(#av)" d="M1101.954 920.885c-.694-4.325 1.939-8.605 7.345-11.73a29.454 29.454 0 0 1 5.986-2.548 79.533 79.533 0 0 1-3.658-1.692c-7.49-.399-14.899 1.12-20.304 4.24-5.406 3.125-8.039 7.405-7.344 11.73 25.049 16.729 44.61 59.469-3.51 89.851a115.43 115.43 0 0 1-3.684 2.224 113.884 113.884 0 0 1-49.85 14.779c21.663 1.428 45.56-1.924 67.826-14.779a115.43 115.43 0 0 0 3.683-2.224c48.12-30.382 28.56-73.122 3.51-89.851Z"></path><path fill="url(#aw)" d="M1283.74 825.811c-16.398-9.468-32.134-15.04-53.391-12.789 12.877 1.487 23.986 6.19 35.416 12.789 23.378 13.497 54.579 46.532 5.348 74.957q-1.85 1.062-3.858 2.123c-20.928 11.051-45.24 15.906-68.76 16.852 28.722 1.167 60.408-2.95 86.735-16.852q2.013-1.06 3.858-2.123c49.23-28.425 18.03-61.46-5.348-74.957Z"></path><path fill="url(#ax)" d="M1073.252 915.533a16.557 16.557 0 0 1 3.627-5.976c-19.566-4.768-44.152 1.268-67.736 11.349 22.97-8.027 46.299-11.52 64.109-5.373Z"></path></g><path fill="#fff" d="M1112.46 890.197c25.653 14.811 100.17 26.392 150.968-.432 53.007-27.982 18.377-60.77-1.673-72.346-20.05-11.576-38.766-17.75-73.852-5.983-38.26 12.833-112.12 57.586-75.443 78.761ZM1077.032 910.653c25.655 14.812 45.706 57.836-.744 87.16-48.476 30.606-105.264 10.613-125.315-.963-20.052-11.578-30.75-22.38-10.362-42.643 22.223-22.088 99.741-64.73 136.421-43.554Z" opacity=".5"></path><path fill="url(#ay)" d="M1251.658 812.934a3.848 3.848 0 0 0 1.612 3.551l13.423 7.742a3.848 3.848 0 0 1-1.612-3.55 11.98 11.98 0 0 1 5.436-9.416 3.819 3.819 0 0 1 3.825-.372l-13.423-7.742a3.819 3.819 0 0 0-3.825.371 11.98 11.98 0 0 0-5.436 9.416Z"></path><path fill="#bbc0e6" d="M1265.081 820.676c0 3.477 2.434 4.902 5.436 3.181a11.984 11.984 0 0 0 5.436-9.416c0-3.479-2.434-4.902-5.436-3.18a11.98 11.98 0 0 0-5.436 9.415Z"></path><path fill="#6b67e9" d="M1268.049 818.974c0 1.58 1.105 2.226 2.468 1.445a5.441 5.441 0 0 0 2.469-4.276c0-1.58-1.105-2.226-2.469-1.444a5.44 5.44 0 0 0-2.468 4.275Z"></path><path fill="url(#o)" d="M1187.903 822.146c35.086-11.768 53.801-5.593 73.852 5.983 10.871 6.277 25.981 18.798 29.131 33.4 4.31-19.014-15.674-36.34-29.131-44.11-20.05-11.576-38.766-17.75-73.852-5.983-33.4 11.203-93.91 46.727-84.353 69.66 7.515-22.058 55.818-49.38 84.353-58.95Z"></path><path fill="url(#az)" d="M940.61 954.207c-10.257 10.195-12.64 17.995-9.927 24.704 1.49-4.153 4.654-8.753 9.928-13.994 22.223-22.089 99.741-64.731 136.421-43.554 13.07 7.545 24.652 22.418 26.762 39.065 2.73-20.767-10.937-40.639-26.762-49.775-36.68-21.177-114.198 21.466-136.421 43.554Z"></path><path fill="#ced3f8" d="M1096.95 876.344h-.012v10.627h.015a15.92 15.92 0 0 0 .19 1.863 60.949 60.949 0 0 1 5.235-.806 16.178 16.178 0 0 1-5.428-11.684Z"></path><path fill="url(#p)" d="M1297.216 856.574c-.153 10.928-7.158 22.546-26.103 33.485q-1.85 1.06-3.858 2.123c-52.624 27.787-126.658 16.487-155.628 2.024v10.71c28.97 14.463 103.004 25.763 155.628-2.025q2.012-1.06 3.858-2.123c18.993-10.966 25.984-22.615 26.102-33.567h.032v-10.627Z"></path><path fill="url(#aA)" d="M1091.323 898.445c-5.406 3.126-8.039 7.406-7.344 11.73a57.354 57.354 0 0 1 3.096 2.242 19.217 19.217 0 0 1 4.248-3.262c5.405-3.12 12.815-4.639 20.304-4.24v-10.71c-7.49-.398-14.899 1.12-20.304 4.24Z"></path><path fill="url(#aB)" d="M1080.469 1000.027a115.86 115.86 0 0 1-3.684 2.224c-49.233 28.423-106.446 10.408-129.824-3.09-13.927-8.04-22.983-15.805-23.013-25.479h-.016v10.627h.042c-.019 9.71 9.023 17.5 22.987 25.562 23.378 13.497 80.591 31.513 129.824 3.09 1.229-.716 2.461-1.45 3.684-2.225 21.53-13.594 29.479-29.658 29.481-44.763h.026v-10.626h-.017c-.033 15.08-8 31.11-29.49 44.68Z"></path><path fill="#f6f6fb" d="M1265.765 815.101c-22.705-13.108-44.128-18.767-80.713-6.5-12.178 4.089-27.01 10.961-40.691 18.857-32.814 18.947-59.237 43.934-41.983 60.57a49.407 49.407 0 0 0-19.07 5.79c-5.31 3.067-8.708 6.905-10.056 11.006-28.815-9.947-72.08 5.307-104.887 24.249-13.682 7.891-25.58 16.456-32.66 23.49-21.253 21.122-11.45 33.49 11.256 46.598 23.378 13.497 80.591 31.513 129.824 3.09 1.228-.716 2.46-1.45 3.684-2.224 48.12-30.383 28.559-73.123 3.51-89.852-.695-4.324 1.938-8.604 7.344-11.73 5.405-3.12 12.815-4.638 20.304-4.24 28.97 14.464 103.004 25.764 155.628-2.023q2.012-1.061 3.858-2.123c49.23-28.426 18.03-61.46-5.348-74.958Zm-189.477 182.712c-48.476 30.606-105.264 10.613-125.315-.963-20.052-11.578-30.75-22.38-10.362-42.643 22.223-22.088 99.741-64.73 136.421-43.554 25.655 14.812 45.706 57.836-.744 87.16Zm187.14-108.048c-50.797 26.824-125.315 15.243-150.968.432-36.677-21.175 37.183-65.928 75.443-78.761 35.085-11.768 53.801-5.593 73.852 5.984 20.05 11.576 54.68 44.363 1.673 72.345Z"></path><path d="M1112.46 890.197c25.653 14.811 100.17 26.392 150.968-.432 53.007-27.982 18.377-60.77-1.673-72.346-20.05-11.576-38.766-17.75-73.852-5.983-38.26 12.833-112.12 57.586-75.443 78.761Z" style="mix-blend-mode:multiply" fill="url(#q)"></path><path d="M1291.48 857.45c-.54 10.523-8.056 21.757-28.052 32.315-50.797 26.824-125.315 15.243-150.968.432-5.183-2.992-8.097-6.466-9.277-10.245 77.804 5.654 122.455-1.09 188.297-22.502Z" style="mix-blend-mode:multiply" fill="url(#r)"></path><path d="M1124.386 861.099c-4.328-2.499-4.324-6.552-.004-9.05a17.289 17.289 0 0 1 15.66.005c4.323 2.495 4.323 6.544-.002 9.042a17.287 17.287 0 0 1-15.654.003ZM940.551 970.973c-4.327-2.498-4.324-6.552-.004-9.049a17.289 17.289 0 0 1 15.66.004c4.323 2.496 4.323 6.545-.001 9.043a17.287 17.287 0 0 1-15.655.002Z" style="mix-blend-mode:screen" fill="#a5abcc"></path><path d="M1077.032 910.653c25.655 14.812 45.706 57.836-.744 87.16-48.476 30.606-105.264 10.613-125.315-.963-20.052-11.578-30.75-22.38-10.362-42.643 22.223-22.088 99.741-64.73 136.421-43.554Z" style="mix-blend-mode:multiply" fill="url(#aC)"></path><path d="M1104.038 958.258c-1.054 13.58-8.954 27.683-27.75 39.555-48.476 30.606-105.264 10.613-125.315-.963-11.376-6.569-19.736-12.889-21.119-20.825 50.534 11.207 118.994 4.524 174.184-17.767Z" style="mix-blend-mode:multiply" fill="url(#aD)"></path><path fill="#f6f6fb" d="M1265.765 815.101c-22.705-13.108-44.128-18.767-80.713-6.5-12.178 4.089-27.01 10.961-40.691 18.857-32.814 18.947-59.237 43.934-41.983 60.57a49.407 49.407 0 0 0-19.07 5.79c-5.31 3.067-8.708 6.905-10.056 11.006-28.815-9.947-72.08 5.307-104.887 24.249-13.682 7.891-25.58 16.456-32.66 23.49-21.253 21.122-11.45 33.49 11.256 46.598 23.378 13.497 80.591 31.513 129.824 3.09 1.228-.716 2.46-1.45 3.684-2.224 48.12-30.383 28.559-73.123 3.51-89.852-.695-4.324 1.938-8.604 7.344-11.73 5.405-3.12 12.815-4.638 20.304-4.24 28.97 14.464 103.004 25.764 155.628-2.023q2.012-1.061 3.858-2.123c49.23-28.426 18.03-61.46-5.348-74.958Zm-189.477 182.712c-48.476 30.606-105.264 10.613-125.315-.963-20.052-11.578-30.75-22.38-10.362-42.643 22.223-22.088 99.741-64.73 136.421-43.554 25.655 14.812 45.706 57.836-.744 87.16Zm187.14-108.048c-50.797 26.824-125.315 15.243-150.968.432-36.677-21.175 37.183-65.928 75.443-78.761 35.085-11.768 53.801-5.593 73.852 5.984 20.05 11.576 54.68 44.363 1.673 72.345Z"></path><path fill="url(#aE)" d="M920.916 1003.719a3.847 3.847 0 0 0 1.612 3.55l13.422 7.743a3.848 3.848 0 0 1-1.611-3.55 11.98 11.98 0 0 1 5.435-9.416 3.819 3.819 0 0 1 3.825-.372l-13.423-7.742a3.819 3.819 0 0 0-3.825.371 11.98 11.98 0 0 0-5.435 9.416Z"></path><path fill="#bbc0e6" d="M934.339 1011.461c0 3.478 2.434 4.902 5.435 3.18a11.984 11.984 0 0 0 5.437-9.416c0-3.478-2.434-4.901-5.437-3.18a11.98 11.98 0 0 0-5.435 9.416Z"></path><path fill="#6b67e9" d="M937.306 1009.76c0 1.578 1.106 2.225 2.469 1.443a5.442 5.442 0 0 0 2.468-4.275c0-1.58-1.105-2.226-2.468-1.444a5.44 5.44 0 0 0-2.469 4.275Z"></path></g></g></g></svg>