<svg xmlns="http://www.w3.org/2000/svg" viewBox="0 0 48 48" id="1st-medal"><g><path fill="#d6e0fb" d="M39,2V5a1,1,0,0,1-1,1H36V4H12V6H10A1,1,0,0,1,9,5V2a1,1,0,0,1,1-1H38A1,1,0,0,1,39,2Z"></path><polygon fill="#7655ff" points="36 12 36 16 24 26 12 16 12 12 24 22 36 12"></polygon><polygon fill="#a166f5" points="36 8 36 12 24 22 12 12 12 8 24 18 36 8"></polygon><polygon fill="#a166f5" points="36 6 36 8 24 18 12 8 12 6 12 4 24 14 36 4 36 6"></polygon><polygon fill="#a166f5" points="36 4 24 14 12 4 36 4"></polygon><path fill="#ffdc56" d="M24,29a9,9,0,1,1-9,9A9,9,0,0,1,24,29Zm6,9a6,6,0,1,0-6,6A6,6,0,0,0,30,38Z"></path><circle cx="24" cy="38" r="6" fill="#ffa233"></circle><path fill="#ffa233" d="M24,26l-1-.833v3.892a8.5,8.5,0,0,1,2,0V25.167Z"></path><path fill="#aeb4e4" d="M36,2H11a1,1,0,0,0-1,1V6h2V4H36V6h1V3A1,1,0,0,0,36,2Z"></path><path fill="#ffa233" d="M36,3H12a1,1,0,0,0-1,1V16a1,1,0,0,0,.36.768l12,10a1,1,0,0,0,1.28,0l12-10A1,1,0,0,0,37,16V4A1,1,0,0,0,36,3Zm0,3V16L24,26,12,16V4H36Z"></path><path fill="#ffca46" d="M24,30a8,8,0,1,0,8,8A8,8,0,0,0,24,30Zm0,15a7,7,0,1,1,7-7A7,7,0,0,1,24,45Z"></path><path fill="#fff86a" d="M24,32a6,6,0,1,0,6,6A6,6,0,0,0,24,32Zm0,11a5,5,0,1,1,5-5A5,5,0,0,1,24,43Z"></path><path fill="#fff" d="M25,41H23V37.414l-.293.293-1.414-1.414,2-2A1,1,0,0,1,25,35Z"></path><path fill="#ffa233" d="M24,20.7,12.64,11.232a.984.984,0,0,0-.64-.219V13.3l11.36,9.466a1,1,0,0,0,1.28,0L36,13.3V11.013a.976.976,0,0,0-.64.219Z"></path><path fill="#ffca46" d="M24,19a.993.993,0,0,0,.64-.232L36,9.3V7.013a.982.982,0,0,0-.64.219L24,16.7,12.64,7.232A.983.983,0,0,0,12,7.014V9.3l11.36,9.466A.993.993,0,0,0,24,19Z"></path><path fill="#fff86a" d="M24,15a.993.993,0,0,0,.64-.232L36,5.3V4H34.438L24,12.7,13.562,4H12V5.3l11.36,9.466A.993.993,0,0,0,24,15Z"></path><path fill="#c29aff" d="M17.682 5.5c0 .276.14.5.312.5h9.375c.173 0 .313-.224.313-.5s-.14-.5-.313-.5H17.994C17.822 5 17.682 5.224 17.682 5.5zM28.682 5.5a.5.5 0 0 0 .5.5h1a.5.5 0 1 0 0-1h-1A.5.5 0 0 0 28.682 5.5z"></path><ellipse cx="27.684" cy="34.695" fill="#eaf6ff" rx="1.642" ry="2.286" transform="rotate(-45.02 27.684 34.695)"></ellipse><ellipse cx="26.682" cy="37.708" fill="#eaf6ff" rx=".825" ry="1.148" transform="rotate(-45.02 26.682 37.707)"></ellipse><ellipse cx="17.682" cy="5.708" fill="#eaf6ff" rx=".825" ry="1.148" transform="rotate(-45.02 17.681 5.707)"></ellipse><ellipse cx="19.427" cy="7.208" fill="#eaf6ff" rx=".413" ry=".574" transform="rotate(-45.02 19.427 7.208)"></ellipse></g></svg>