<svg xmlns="http://www.w3.org/2000/svg" enable-background="new 0 0 850 850" viewBox="0 0 850 850" id="account-protected-by-fingerprint-lock"><path fill="#b99197" d="M663.6,647.16H189.35c-10.03,0-18.24-8.21-18.24-18.24V314.47c0-10.03,8.21-18.24,18.24-18.24H663.6
			c10.03,0,18.24,8.21,18.24,18.24v314.46C681.84,638.96,673.64,647.16,663.6,647.16z"></path><rect width="629.95" height="11.3" x="112.53" y="638.95" fill="#8f93c7"></rect><path fill="#8f93c7" d="M563.94,650.25h-451.4c0,0,15.06,10.23,43.64,10.23s407.77,0,407.77,0s106.32,0,134.9,0
			c28.58,0,43.64-10.23,43.64-10.23H563.94z"></path><path fill="#fff" d="M664.02,616.95H191.78c-1.38,0-2.5-1.12-2.5-2.5V318.65c0-1.38,1.12-2.5,2.5-2.5h472.24
			c1.38,0,2.5,1.12,2.5,2.5v295.81C666.51,615.84,665.39,616.95,664.02,616.95z"></path><path fill="#b99197" d="M480.32,638.95c-0.41,2.23-1.5,4.24-3.05,5.79c-2,1.99-4.75,3.23-7.77,3.23h-82.52
			c-5.38,0-9.88-3.91-10.82-9.01H480.32z"></path><path fill="#ddcfff" d="M636.9,188.5v399.44c0,3.3-2.68,5.98-5.98,5.98H224.09c-3.3,0-5.98-2.68-5.98-5.98V188.5
			c0-3.31,2.68-5.98,5.98-5.98h406.83C634.22,182.52,636.9,185.19,636.9,188.5z"></path><path fill="#b2d4bb" d="M636.9,182.52v25.66H218.1v-25.66c0-3.31,2.68-5.98,5.98-5.98h406.83
			C634.22,176.53,636.9,179.21,636.9,182.52z"></path><path fill="#b99197" d="M536.68,190.69v3.32c0,2.41-1.97,4.39-4.39,4.39H242.26c-2.41,0-4.39-1.97-4.39-4.39v-3.32
			c0-2.41,1.97-4.39,4.39-4.39h290.03C534.7,186.31,536.68,188.28,536.68,190.69z"></path><circle cx="563.17" cy="192.36" r="5.12" fill="#b99197"></circle><circle cx="579.92" cy="192.36" r="5.12" fill="#b99197"></circle><circle cx="596.66" cy="192.36" r="5.12" fill="#b99197"></circle><path fill="#8f93c7" d="M518.42,539.39H336.59c-17.92,0-32.45-14.53-32.45-32.45v-216.3c0-17.92,14.53-32.45,32.45-32.45h181.83
			c17.92,0,32.45,14.53,32.45,32.45v216.3C550.87,524.86,536.34,539.39,518.42,539.39z"></path><path fill="#dbdbda" d="M538.76,540.07H316.24c-7.05,0-12.79-5.74-12.79-12.79V270.29c0-7.05,5.74-12.79,12.79-12.79h222.52
			c7.05,0,12.79,5.74,12.79,12.79v256.99C551.56,534.33,545.82,540.07,538.76,540.07z M316.24,258.86c-6.3,0-11.42,5.13-11.42,11.42
			v256.99c0,6.3,5.13,11.42,11.42,11.42h222.52c6.3,0,11.42-5.13,11.42-11.42V270.29c0-6.3-5.13-11.42-11.42-11.42H316.24z"></path><path fill="#b99197" d="M468.85,317.9c0,13.94-6.9,26.27-17.47,33.76c-1.99-14.94-11.92-31.15-23.88-31.15
			c-11.95,0-21.89,16.2-23.88,31.15c-10.57-7.49-17.47-19.82-17.47-33.76c0-22.84,18.51-41.35,41.35-41.35
			S468.85,295.06,468.85,317.9z"></path><circle cx="427.5" cy="306.05" r="12.84" fill="#ffe595"></circle><path fill="#ffe595" d="M451.38 351.66c-2.9 2.06-6.08 3.75-9.47 5.01-4.49 1.67-9.34 2.58-14.41 2.58-5.07 0-9.92-.91-14.41-2.58-3.39-1.26-6.57-2.95-9.47-5.01 1.99-14.94 11.92-31.15 23.88-31.15C439.46 320.51 449.39 336.72 451.38 351.66zM517.02 457.36H339.65c-5.13 0-9.29-4.16-9.29-9.29v-13.54c0-5.13 4.16-9.29 9.29-9.29h177.37c5.13 0 9.29 4.16 9.29 9.29v13.54C526.32 453.19 522.16 457.36 517.02 457.36zM517.02 418.64H339.65c-5.13 0-9.29-4.16-9.29-9.29V395.8c0-5.13 4.16-9.29 9.29-9.29h177.37c5.13 0 9.29 4.16 9.29 9.29v13.54C526.32 414.47 522.16 418.64 517.02 418.64z"></path><path fill="#b99197" d="M523.32,501.03H333.36c-1.66,0-3-1.34-3-3V471.9c0-1.66,1.34-3,3-3h189.96c1.66,0,3,1.34,3,3v26.13
			C526.32,499.69,524.97,501.03,523.32,501.03z"></path><path fill="#ddcfff" d="M401.35 478.96h2.94v10.53h5.17v2.46h-8.1V478.96zM422.34 485.32c0 4.26-2.57 6.84-6.37 6.84-3.85 0-6.12-2.91-6.12-6.62 0-3.88 2.5-6.79 6.32-6.79C420.17 478.75 422.34 481.73 422.34 485.32zM412.96 485.49c0 2.54 1.2 4.34 3.16 4.34 1.98 0 3.12-1.88 3.12-4.4 0-2.34-1.11-4.34-3.13-4.34C414.12 481.08 412.96 482.96 412.96 485.49zM435.12 491.35c-.91.31-2.62.73-4.34.73-2.37 0-4.08-.59-5.28-1.74-1.19-1.13-1.84-2.82-1.84-4.73.02-4.32 3.16-6.78 7.42-6.78 1.68 0 2.97.32 3.61.62l-.61 2.35c-.72-.31-1.59-.55-3.02-.55-2.45 0-4.31 1.38-4.31 4.2 0 2.68 1.69 4.25 4.1 4.25.66 0 1.2-.08 1.44-.18v-2.73h-2.01v-2.29h4.84V491.35zM440.36 478.96v12.99h-2.94v-12.99H440.36zM442.91 491.95v-12.99h3.42l2.7 4.76c.78 1.36 1.54 2.99 2.12 4.45l.05-.01c-.18-1.72-.24-3.46-.24-5.43v-3.79h2.7v12.99h-3.08l-2.78-5c-.77-1.4-1.63-3.07-2.26-4.59l-.06.01c.09 1.72.13 3.56.13 5.68v3.9H442.91z"></path><path fill="#aeadac" d="M345.71 404.86c0 .61.02 1.12.05 1.58h-.93l-.06-.94h-.03c-.27.46-.88 1.08-1.91 1.08-.9 0-1.99-.51-1.99-2.53v-3.37h1.04v3.19c0 1.1.34 1.85 1.29 1.85.7 0 1.2-.49 1.39-.96.05-.15.1-.34.1-.54v-3.54h1.04V404.86zM347.31 405.37c.32.2.87.41 1.39.41.77 0 1.12-.38 1.12-.86 0-.5-.31-.77-1.07-1.06-1.04-.38-1.54-.95-1.53-1.64 0-.93.76-1.69 2-1.69.59 0 1.09.16 1.41.36l-.26.76c-.22-.14-.65-.34-1.18-.34-.62 0-.96.36-.96.79 0 .48.34.69 1.1.98 1 .37 1.51.87 1.51 1.73 0 1.02-.8 1.74-2.16 1.74-.63 0-1.22-.16-1.62-.4L347.31 405.37zM352.78 403.74c.02 1.42.92 2 1.98 2 .75 0 1.21-.13 1.6-.3l.18.75c-.37.17-1.01.37-1.93.37-1.77 0-2.84-1.18-2.84-2.91 0-1.75 1.03-3.12 2.72-3.12 1.88 0 2.38 1.65 2.38 2.72 0 .22-.01.38-.04.49H352.78zM355.85 402.99c.01-.66-.27-1.7-1.45-1.7-1.07 0-1.53.97-1.61 1.7H355.85zM358.17 402.46c0-.68-.02-1.26-.05-1.8h.92l.04 1.13h.04c.27-.77.91-1.26 1.61-1.26.11 0 .2.01.29.03v.99c-.11-.02-.21-.03-.36-.03-.74 0-1.26.56-1.41 1.34-.03.15-.04.32-.04.49v3.08h-1.04V402.46zM362.12 402.22c0-.6-.02-1.08-.05-1.56H363l.06.95h.03c.28-.54.96-1.08 1.91-1.08.79 0 2.03.48 2.03 2.46v3.44h-1.04v-3.33c0-.93-.35-1.72-1.33-1.72-.69 0-1.23.49-1.41 1.08-.04.13-.07.31-.07.49v3.48h-1.04V402.22zM371.95 406.44l-.09-.73h-.03c-.32.45-.94.86-1.77.86-1.17 0-1.76-.83-1.76-1.66 0-1.4 1.24-2.17 3.47-2.15v-.12c0-.47-.13-1.34-1.31-1.33-.54 0-1.1.16-1.5.43l-.24-.7c.48-.31 1.18-.51 1.91-.51 1.76 0 2.19 1.21 2.19 2.36v2.16c0 .49.02.99.09 1.38H371.95zM371.78 403.49c-1.14-.02-2.44.18-2.44 1.3 0 .69.45 1.01.98 1.01.76 0 1.24-.48 1.41-.97.04-.11.05-.23.05-.33V403.49zM374.5 402.22c0-.6-.02-1.08-.05-1.56h.91l.06.93h.03c.32-.55.86-1.06 1.82-1.06.78 0 1.38.48 1.63 1.16h.02c.18-.33.41-.58.65-.75.35-.26.73-.41 1.27-.41.77 0 1.91.5 1.91 2.5v3.4h-1.02v-3.26c0-1.12-.41-1.78-1.25-1.78-.6 0-1.06.44-1.25.94-.05.15-.09.34-.09.53v3.57h-1.02v-3.46c0-.92-.41-1.58-1.2-1.58-.65 0-1.13.52-1.31 1.05-.05.15-.08.34-.08.52v3.48h-1.02V402.22zM385.05 403.74c.02 1.42.92 2 1.98 2 .75 0 1.21-.13 1.6-.3l.18.75c-.37.17-1.01.37-1.93.37-1.77 0-2.84-1.18-2.84-2.91 0-1.75 1.03-3.12 2.72-3.12 1.88 0 2.38 1.65 2.38 2.72 0 .22-.01.38-.04.49H385.05zM388.12 402.99c.01-.66-.27-1.7-1.45-1.7-1.07 0-1.53.97-1.61 1.7H388.12zM340.88 439.63c0-.74-.02-1.34-.05-1.88h.94l.06.98h.02c.42-.7 1.11-1.12 2.05-1.12 1.4 0 2.45 1.18 2.45 2.93 0 2.08-1.27 3.11-2.62 3.11-.77 0-1.44-.34-1.78-.91h-.02v3.14h-1.04V439.63zM341.92 441.17c0 .15.02.29.05.43.19.73.83 1.23 1.57 1.23 1.11 0 1.76-.91 1.76-2.24 0-1.15-.6-2.14-1.71-2.14-.71 0-1.39.51-1.59 1.3-.03.14-.07.29-.07.43V441.17zM350.88 443.52l-.09-.73h-.03c-.32.45-.94.86-1.77.86-1.17 0-1.76-.83-1.76-1.66 0-1.4 1.24-2.17 3.47-2.15v-.12c0-.47-.13-1.34-1.31-1.33-.54 0-1.1.16-1.5.43l-.24-.7c.48-.31 1.18-.51 1.91-.51 1.76 0 2.19 1.21 2.19 2.36v2.16c0 .49.02.98.09 1.38H350.88zM350.71 440.57c-1.14-.02-2.44.18-2.44 1.3 0 .69.45 1.01.98 1.01.76 0 1.24-.48 1.41-.97.04-.11.05-.23.05-.33V440.57zM353.28 442.45c.32.2.87.41 1.39.41.77 0 1.12-.38 1.12-.86 0-.5-.31-.77-1.07-1.06-1.04-.38-1.54-.95-1.53-1.64 0-.93.76-1.69 2-1.69.59 0 1.09.16 1.41.36l-.26.76c-.22-.14-.65-.34-1.18-.34-.62 0-.96.36-.96.79 0 .48.34.69 1.1.98 1 .37 1.51.87 1.51 1.73 0 1.02-.8 1.74-2.16 1.74-.63 0-1.22-.16-1.62-.4L353.28 442.45zM358.01 442.45c.32.2.87.41 1.39.41.77 0 1.12-.38 1.12-.86 0-.5-.31-.77-1.07-1.06-1.04-.38-1.54-.95-1.53-1.64 0-.93.76-1.69 2-1.69.59 0 1.09.16 1.41.36l-.26.76c-.22-.14-.65-.34-1.18-.34-.62 0-.96.36-.96.79 0 .48.34.69 1.1.98 1 .37 1.51.87 1.51 1.73 0 1.02-.8 1.74-2.16 1.74-.63 0-1.22-.16-1.62-.4L358.01 442.45zM363.3 437.75l.78 2.93c.17.64.31 1.25.43 1.84h.03c.13-.58.32-1.21.52-1.83l.94-2.94h.88l.9 2.89c.21.68.38 1.3.51 1.88h.03c.1-.58.26-1.19.45-1.88l.82-2.9h1.03l-1.86 5.77h-.95l-.88-2.75c-.21-.65-.37-1.23-.51-1.9h-.02c-.15.7-.32 1.3-.53 1.91l-.93 2.75h-.96l-1.74-5.77H363.3zM376.78 440.58c0 2.14-1.48 3.07-2.87 3.07-1.57 0-2.78-1.14-2.78-2.97 0-1.93 1.27-3.06 2.87-3.06C375.66 437.61 376.78 438.82 376.78 440.58zM372.2 440.64c0 1.27.73 2.22 1.75 2.22 1.01 0 1.76-.94 1.76-2.25 0-.98-.49-2.21-1.74-2.21C372.74 438.4 372.2 439.55 372.2 440.64zM378.1 439.54c0-.68-.02-1.26-.05-1.8h.92l.04 1.13h.04c.27-.77.91-1.26 1.61-1.26.11 0 .2.01.29.03v.99c-.11-.02-.21-.03-.36-.03-.74 0-1.26.56-1.41 1.34-.03.15-.04.32-.04.49v3.08h-1.04V439.54zM386.87 435.04v6.99c0 .51.02 1.09.05 1.49h-.93l-.05-1h-.03c-.32.64-1.02 1.13-1.96 1.13-1.4 0-2.48-1.18-2.48-2.93-.01-1.93 1.19-3.1 2.59-3.1.89 0 1.48.42 1.74.88h.02v-3.45H386.87zM385.83 440.09c0-.14-.01-.31-.04-.45-.16-.66-.73-1.21-1.52-1.21-1.09 0-1.74.95-1.74 2.22 0 1.17.58 2.15 1.72 2.15.7 0 1.34-.47 1.53-1.26.04-.14.05-.29.05-.45V440.09z"></path><path fill="#fcc0a9" d="M351.55,462.45c0,0,4.13,6.37-4.63,9.63c0,0-0.15,0.18-0.42,0.51c-2.41,2.92-14.35,17.36-15.65,18.26
			c-0.59,0.41-2.61,2.51-5.02,5.02c-1.49-4.61-3.85-6.65-5.35-7.51c1.82-1.56,3.25-2.83,3.8-3.5c2.06-2.54,16.2-12.31,18.84-14.98
			c0.24-0.24,0.39-0.43,0.42-0.54c0.37-1.38-0.5-4.75,2.5-6.38c3-1.63,8.13-7.13,8.88-6.63
			C355.67,456.82,351.55,462.45,351.55,462.45z"></path><path fill="#0f8b80" d="M325.83,495.87c-0.29,0.3-0.58,0.6-0.87,0.9c-0.77,0.8-1.56,1.62-2.34,2.42c-2.62,2.69-5.16,5.21-6.47,6.16
			c-3.13,2.25-7.66,0.5-9.33-2.25c-0.98-1.6,3.78-6.17,8.61-10.4c0.89-0.78,1.79-1.55,2.65-2.29c0.84-0.72,1.65-1.41,2.4-2.05
			C321.98,489.23,324.34,491.26,325.83,495.87z"></path><path fill="#0f8b80" d="M346.49,472.59c-0.53,0.65-1.54,1.86-2.79,3.36c-0.65,0.78-1.36,1.64-2.11,2.53
			c-1.37,1.64-2.86,3.41-4.28,5.09c-0.75,0.89-1.49,1.75-2.18,2.56c-1.54,1.79-2.85,3.28-3.63,4.09c-0.31,0.32-0.53,0.53-0.66,0.62
			c-0.29,0.2-0.91,0.8-1.76,1.66c-0.89,0.9-2.03,2.08-3.26,3.37c-1.49-4.61-3.85-6.65-5.35-7.51c0.77-0.67,1.48-1.28,2.07-1.81
			c0.8-0.72,1.41-1.3,1.73-1.69c0.16-0.19,0.39-0.43,0.68-0.71c0.88-0.83,2.33-2,4.04-3.33c0.88-0.68,1.84-1.41,2.82-2.15
			c1.68-1.27,3.44-2.58,5.07-3.81c0,0,0,0,0,0c1-0.76,1.96-1.48,2.81-2.15c1.56-1.21,2.8-2.22,3.42-2.84
			C344.32,470.47,345.6,471.35,346.49,472.59z"></path><path fill="#0a0a0c" d="M259.56,649.41c0,0-4.82,3.32-4.12,5.64c0.7,2.31,8.96,12.19,11.33,13.49c2.37,1.3,6.94,2.35,8.17,1.65
			s-6.58-7.32-9.35-17.18L259.56,649.41z"></path><path fill="#0050b2" d="M291.09,556.7c0,0-4.41,12.04-5.1,18.3c-0.7,6.26-4.87,30.17-4.87,30.17s-8.11,6.91-9.27,12.71
			c-1.16,5.79-8.11,25.03-12.29,31.52c0,0,3.48,4.17,6.03,3.59c0,0,25.03-40.43,27.35-44.49c2.32-4.06,18.39-49.17,18.39-49.17
			L291.09,556.7z"></path><path fill="#0a0a0c" d="M303.07,661.99c0,0-1.94,6.97-0.59,9.28c0,0,5-0.48,7.07,0.56c2.07,1.03,17.08,2.54,18.91,0.95
			c0,0-0.64-1.51-4.13-2.3c-3.5-0.79-11.66-6.4-12.23-8.48H303.07z"></path><path fill="#0050b2" d="M320.64,559.63c0,0-2.69,43.08-3.25,54.64c-0.55,11.56-5.3,47.72-5.3,47.72s-4.91,1.33-9.02,0
			c0,0,1.27-19.86,0-23.34c-1.27-3.48-2.22-19.63,1.11-25.02c0,0-13.65-42.73-7.8-56.11L320.64,559.63z"></path><polygon fill="#fcc0a9" points="313.65 490.47 312.96 493.2 312.28 495.88 311.5 498.97 302.37 497.7 302.8 493.31 303.5 488.98"></polygon><path fill="#14b9ab" d="M322.6,539.87c-0.04,1.12-0.09,2.22-0.15,3.28c-0.15,2.76-0.37,5.29-0.6,7.49c-0.12,1.2-0.25,2.3-0.37,3.29
			c-0.44,3.56-0.84,5.7-0.84,5.7s-15.57,1.34-29.55-2.93c0,0,0.14-1.99,0.32-5.03c0.06-1,0.12-2.12,0.19-3.32
			c0.12-2.24,0.24-4.76,0.34-7.34c0.04-1.11,0.08-2.22,0.11-3.34c0.08-2.56,0.12-5.1,0.11-7.38c0-1.2-0.03-2.33-0.07-3.37
			c-0.05-1.18-0.11-2.23-0.21-3.1c-0.14-1.24-0.17-2.72-0.1-4.36c0.05-1.05,0.14-2.16,0.28-3.31c0.25-2.11,0.67-4.33,1.25-6.49
			c0.29-1.08,0.63-2.15,1-3.18c0.72-1.97,1.61-3.8,2.66-5.31c0.85-1.22,1.8-2.23,2.87-2.96c1.5-1.02,3.22-1.47,5.18-1.12
			c1.54,0.28,4.08,0.53,6.75,2.07c1.32,0.76,2.68,1.84,3.96,3.4c1.2,1.46,2.34,3.34,3.33,5.78c0.4,0.99,0.78,2.08,1.12,3.27
			c0.57,1.96,1.05,4.2,1.42,6.76c0.01,0.05,0.02,0.1,0.02,0.14c0.15,1.04,0.28,2.08,0.39,3.13c0.27,2.51,0.45,5.01,0.56,7.47
			c0.05,1.1,0.08,2.2,0.1,3.28C322.72,534.98,322.69,537.49,322.6,539.87z"></path><path d="M312.96,493.2l-0.68,2.68c-1.29-0.54-4.43-2.04-4.54-3.85L312.96,493.2z" opacity=".1"></path><path fill="#fcc0a9" d="M306.75,475.07c4.96-0.96,6.77,0.27,8.04,2.89c1.26,2.62,3.34,14.81,2.35,16.35
			c-0.99,1.54-12.01,0.63-13.64-5.33C301.87,483.02,300.25,476.34,306.75,475.07z"></path><path fill="#0a0a0c" d="M309.72,484.45c0,0,1.45-2.84,0.81-6.97c0,0,0.31,0.01,0.77-0.05c3.12-0.46,2.52-5.16-0.62-4.91
			c-2.66,0.21-6.05,0.35-8.41-0.01c-4.45-0.69-7.52,8.31-3.28,14.14s3.81,6.67,3.81,6.67S309.81,493.27,309.72,484.45z"></path><path fill="#fcc0a9" d="M311.11 483.46c0 0-1.69-2.75-3.23-1.11-1.54 1.64 1.06 4.66 3.23 4.71V483.46zM319.07 556.52c-.09 2.5-2.58 7.06-3.7 7.14-1.12.09-6.02-2.84-3.66-9.89 0 0-.46-.43-1.22-1.17 1.28-.66 2.87-1.77 4.36-3.58.01 0 .02.01.03.01C317.01 550.07 319.16 554.03 319.07 556.52z"></path><path fill="#0f8b80" d="M314.86,549.03c-1.49,1.81-3.08,2.92-4.36,3.58c-1.06-1.03-2.72-2.65-4.57-4.55
			c-0.75-0.76-1.53-1.58-2.31-2.41c-2.88-3.07-5.84-6.44-7.56-9.07c-0.84-1.29-1.39-2.39-1.49-3.2c-0.01-0.08-0.02-0.17-0.02-0.25
			c0-1.66,0.73-4.26,1.82-7.2c0.44-1.18,0.93-2.41,1.46-3.65c0.43-1.01,0.88-2.03,1.35-3.03c1.38-2.98,2.84-5.83,4.05-7.97
			c0.03-0.06,0.07-0.12,0.1-0.18c0.61-1.07,1.15-2.03,1.67-2.87c2.28-3.71,3.92-5.04,7.18-2.88c2.88,1.9,2.9,5.09,1.82,8.34
			c-0.34,1.01-0.78,2.03-1.28,3.02c-0.17,0.35-0.36,0.69-0.54,1.03c-0.81,1.47-1.95,3.38-3.11,5.27c-0.63,1.02-1.26,2.03-1.85,2.97
			c-1.59,2.53-2.87,4.49-2.87,4.49s0.15,0.31,0.41,0.85c0.33,0.68,0.83,1.71,1.45,2.95c0.98,1.97,2.25,4.46,3.52,6.83
			c0.54,1.01,1.09,2.01,1.61,2.93C312.84,546.62,314.17,548.65,314.86,549.03z"></path><path fill="#0a0a0c" d="M301.64,472.46c0,0,11.51-3.67,14.95,0.97c3.44,4.63-8.7,9.33-13.48,3.79"></path><path fill="#8f93c7" d="M623.57,227.64c-30.53,0-55.27,24.75-55.27,55.28c0,6.84,1.25,13.39,3.52,19.43l-0.01,0l11.11,48.07
				l14.62-18.72c7.76,4.15,16.62,6.51,26.03,6.51c30.54,0,55.28-24.75,55.28-55.28S654.11,227.64,623.57,227.64z"></path><path fill="#ffe595" fill-rule="evenodd" d="M622.73,318.53c0,0,0.29-0.43,0.79-0.42c0.65,0.01,0.99,0.53,0.99,0.53c0.18,0.27,0.54,0.35,0.81,0.17
					c0.27-0.18,0.35-0.54,0.17-0.81c0,0-0.67-1.04-1.95-1.07c-1.11-0.02-1.78,0.92-1.78,0.92c-0.18,0.26-0.12,0.63,0.14,0.81
					C622.18,318.86,622.55,318.8,622.73,318.53L622.73,318.53z M619.03,318.51c0,0,2.1-2.38,4.64-2.28
					c2.21,0.08,4.23,2.33,4.23,2.33c0.22,0.24,0.59,0.25,0.83,0.03c0.24-0.22,0.25-0.59,0.03-0.83c0,0-2.43-2.61-5.05-2.71
					c-3.03-0.12-5.55,2.67-5.55,2.67c-0.22,0.24-0.19,0.61,0.05,0.83C618.45,318.77,618.82,318.75,619.03,318.51L619.03,318.51z
					 M616.57,317.68c0,0,2.02-1.26,2.56-1.55c0.29-0.15,0.39-0.51,0.24-0.79c-0.15-0.29-0.51-0.39-0.79-0.24
					c-0.56,0.3-2.63,1.59-2.63,1.59c-0.27,0.17-0.36,0.53-0.19,0.81C615.93,317.77,616.3,317.85,616.57,317.68L616.57,317.68z
					 M621.28,314.73c0,0,1.98-1.25,4.22-0.05c2.53,1.36,4.91,2.93,4.91,2.93c0.27,0.18,0.63,0.1,0.81-0.17
					c0.18-0.27,0.1-0.63-0.17-0.81c0,0-2.42-1.6-5-2.98c-2.87-1.54-5.4,0.09-5.4,0.09c-0.27,0.17-0.35,0.54-0.18,0.81
					C620.65,314.82,621.01,314.9,621.28,314.73L621.28,314.73z M614.45,316.54c0,0,3.1-1.96,4.9-2.98c1.68-0.94,4.13-2.44,7.03-0.81
					c3.11,1.76,6.42,3.9,6.42,3.9c0.27,0.18,0.63,0.1,0.81-0.17c0.18-0.27,0.1-0.63-0.17-0.81c0,0-3.34-2.16-6.48-3.94
					c-3.36-1.9-6.23-0.29-8.17,0.81c-1.82,1.02-4.95,3.01-4.95,3.01c-0.27,0.17-0.35,0.53-0.18,0.81
					C613.82,316.63,614.18,316.71,614.45,316.54L614.45,316.54z M612.26,315.37c0,0,4.16-2.4,6.17-3.51
					c1.89-1.05,4.21-2.66,7.97-1.17c3.99,1.58,6.34,3.87,8.57,4.87c0.29,0.13,0.64,0,0.77-0.29c0.13-0.29,0-0.64-0.29-0.77
					c-2.24-1.01-4.61-3.31-8.62-4.89c-4.23-1.67-6.85,0.06-8.97,1.23c-2.01,1.11-6.18,3.52-6.18,3.52c-0.28,0.16-0.38,0.52-0.21,0.8
					C611.62,315.43,611.98,315.53,612.26,315.37L612.26,315.37z M632.46,311.73c0,0,2.81,1.67,4.36,2.43
					c0.29,0.14,0.64,0.02,0.78-0.27c0.14-0.29,0.02-0.64-0.27-0.78c-1.52-0.75-4.28-2.39-4.28-2.39c-0.28-0.16-0.64-0.07-0.8,0.2
					C632.1,311.21,632.19,311.57,632.46,311.73L632.46,311.73z M625.7,307.19c0,0-3.52-1.26-8.12,1.35
					c-4.3,2.45-6.35,3.86-7.71,4.49c-0.29,0.14-0.42,0.48-0.29,0.78c0.14,0.29,0.48,0.42,0.78,0.29c1.38-0.63,3.45-2.06,7.8-4.53
					c4.06-2.31,7.15-1.26,7.15-1.26c0.3,0.11,0.64-0.05,0.75-0.36C626.16,307.63,626,307.3,625.7,307.19L625.7,307.19z
					 M608.94,312.65c0,0,4.98-2.67,6.84-3.84c1.79-1.11,5.53-3.42,10.84-2.32c3.1,0.64,4.78,2.33,7.16,3.8
					c2.65,1.64,4.55,2.45,4.55,2.45c0.3,0.13,0.64-0.01,0.77-0.31s-0.01-0.64-0.31-0.77c0,0-1.84-0.79-4.4-2.37
					c-2.49-1.54-4.28-3.28-7.53-3.95c-5.73-1.19-9.77,1.27-11.69,2.47c-1.85,1.15-6.78,3.8-6.78,3.8c-0.28,0.15-0.39,0.51-0.24,0.79
					C608.3,312.69,608.65,312.8,608.94,312.65L608.94,312.65z M607.31,311.15c0,0,5.7-3.05,8.27-4.64
					c2.45-1.52,7.53-3.85,12.27-1.74c5.22,2.33,9.24,5.2,11.9,6.43c0.29,0.14,0.64,0.01,0.78-0.28c0.14-0.29,0.01-0.64-0.28-0.78
					c-2.66-1.24-6.69-4.11-11.91-6.44c-5.16-2.3-10.69,0.16-13.36,1.81c-2.55,1.58-8.2,4.6-8.2,4.6c-0.28,0.15-0.39,0.51-0.24,0.79
					C606.67,311.19,607.02,311.3,607.31,311.15L607.31,311.15z M631.71,309.9c0,0-2.11-1.37-3.99-2.14
					c-0.3-0.12-0.64,0.02-0.76,0.32c-0.12,0.3,0.02,0.64,0.32,0.76c1.78,0.73,3.79,2.04,3.79,2.04c0.27,0.18,0.63,0.1,0.81-0.17
					C632.06,310.44,631.98,310.08,631.71,309.9L631.71,309.9z M613.71,305.31c0,0,3.84-2.67,7.27-3.08
					c3.44-0.4,6.74-0.18,10.69,2.13c4.12,2.41,7.23,4.33,9.45,5.22c0.3,0.12,0.64-0.03,0.76-0.33c0.12-0.3-0.03-0.64-0.33-0.76
					c-2.19-0.87-5.24-2.77-9.3-5.14c-4.22-2.47-7.74-2.71-11.42-2.28c-3.69,0.43-7.81,3.28-7.81,3.28
					c-0.27,0.18-0.33,0.55-0.15,0.81C613.08,305.43,613.45,305.49,613.71,305.31L613.71,305.31z M605.85,309.56
					c0,0,3.96-1.98,5.96-3.08c0.28-0.16,0.39-0.51,0.23-0.79s-0.51-0.39-0.79-0.23c-1.98,1.09-5.92,3.06-5.92,3.06
					c-0.29,0.14-0.41,0.5-0.26,0.78C605.21,309.59,605.56,309.7,605.85,309.56L605.85,309.56z M604.87,307.98
					c0,0,7.1-3.96,8.89-5.16c1.72-1.17,7.12-3.55,14.09-2.04c4.31,0.93,9.21,4.39,9.21,4.39c0.26,0.19,0.63,0.12,0.82-0.14
					c0.19-0.26,0.12-0.63-0.14-0.82c0,0-5.13-3.61-9.64-4.58c-7.42-1.6-13.15,0.98-14.99,2.22c-1.77,1.2-8.81,5.11-8.81,5.11
					c-0.28,0.16-0.38,0.51-0.23,0.8C604.23,308.03,604.58,308.14,604.87,307.98L604.87,307.98z M639.1,306.37
					c0,0,2.09,1.01,3.16,1.53c0.29,0.14,0.64,0.02,0.78-0.27c0.14-0.29,0.02-0.64-0.27-0.78c-1.07-0.52-3.16-1.53-3.16-1.53
					c-0.29-0.14-0.64-0.02-0.78,0.27C638.69,305.88,638.81,306.23,639.1,306.37L639.1,306.37z M643.68,304.99
					c0,0-6.33-3.1-9.21-5.24c-2.77-2.05-4.68-4.72-4.96-8.5c-0.31-4.19,0.51-8.37,2.04-11.38c1.64-3.2,3.12-5.71,2.44-9.72
					c-0.69-4.08-3.74-8.01-8.75-8.86c-5.03-0.85-9.09,1.83-10.8,5.12c-2.27,4.36-2.83,6.03-5.64,9.69
					c-2.64,3.45-5.68,6.02-10.36,8.99c-0.27,0.17-0.35,0.54-0.18,0.81c0.17,0.27,0.53,0.35,0.81,0.18
					c4.81-3.06,7.94-5.71,10.66-9.27c2.86-3.73,3.44-5.43,5.75-9.87c1.51-2.91,5.11-5.26,9.56-4.51c4.47,0.76,7.18,4.26,7.8,7.9
					c0.63,3.72-0.81,6.02-2.33,8.99c-1.62,3.17-2.49,7.58-2.17,12c0.3,4.16,2.38,7.1,5.43,9.35c2.94,2.18,9.39,5.35,9.39,5.35
					c0.29,0.14,0.64,0.02,0.78-0.27C644.09,305.48,643.97,305.13,643.68,304.99L643.68,304.99z M603.96,306.03
					c0,0,6.22-2.95,9.71-5.38c4.01-2.79,7.3-6.4,10.01-9.24c1.75-1.84,3.65-4.56,3.65-4.56c0.18-0.26,0.12-0.63-0.15-0.81
					c-0.26-0.18-0.63-0.12-0.81,0.15c0,0-1.83,2.63-3.53,4.42c-2.66,2.79-5.9,6.35-9.83,9.09c-3.43,2.38-9.55,5.28-9.55,5.28
					c-0.29,0.14-0.42,0.49-0.28,0.78C603.32,306.04,603.67,306.17,603.96,306.03L603.96,306.03z M631.86,295.6
					c0,0,1.44,2.78,4.65,4.6c3.05,1.74,7.53,4.18,7.53,4.18c0.28,0.15,0.64,0.05,0.79-0.23c0.15-0.28,0.05-0.64-0.23-0.79
					c0,0-4.46-2.44-7.51-4.17c-2.89-1.64-4.19-4.13-4.19-4.13c-0.15-0.29-0.5-0.4-0.79-0.25
					C631.82,294.96,631.71,295.31,631.86,295.6L631.86,295.6z M603,304.3c0,0,6.86-3.32,10.65-6.3c3.81-2.99,5.29-4.65,5.29-4.65
					c0.22-0.24,0.2-0.61-0.04-0.83c-0.24-0.22-0.61-0.2-0.83,0.04c0,0-1.45,1.6-5.15,4.51c-3.72,2.92-10.44,6.16-10.44,6.16
					c-0.29,0.14-0.41,0.49-0.27,0.78C602.36,304.32,602.71,304.44,603,304.3L603,304.3z M602.04,302.58c0,0,7.2-3.29,14.64-9.41
					c4.5-3.7,10.44-13.1,12.53-17.91c0.89-2.05,0.98-3.78,0.65-5.18c-0.52-2.15-2.07-3.56-3.5-4.22c-1.43-0.66-3.5-0.99-5.49-0.03
					c-1.3,0.63-2.57,1.81-3.59,3.86c-2.32,4.7-2.73,6.64-7.87,11.93c-5.13,5.28-10.74,8.1-10.74,8.1c-0.29,0.14-0.41,0.5-0.26,0.79
					c0.14,0.29,0.5,0.41,0.79,0.26c0,0,5.78-2.9,11.06-8.33c5.27-5.43,5.69-7.41,8.08-12.22c0.87-1.76,1.94-2.79,3.05-3.32
					c1.63-0.79,3.33-0.49,4.5,0.04c1.17,0.53,2.43,1.68,2.85,3.43c0.29,1.2,0.18,2.68-0.58,4.44c-2.04,4.7-7.81,13.87-12.2,17.48
					c-7.31,6.01-14.38,9.25-14.38,9.25c-0.29,0.13-0.42,0.48-0.29,0.78C601.4,302.59,601.74,302.71,602.04,302.58L602.04,302.58z
					 M633.6,262.93c0,0,1.76,1.44,2.8,4.93c1.07,3.57,0.94,6.76-1.36,11.35c-2.47,4.92-3.72,8.44-2.26,13.49
					c1.17,4.05,4.6,6.42,12.26,9.83c0.29,0.13,0.64,0,0.77-0.3c0.13-0.29,0-0.64-0.3-0.77c-7.18-3.2-10.51-5.29-11.61-9.09
					c-1.37-4.73-0.13-8.03,2.18-12.64c2.48-4.94,2.59-8.37,1.43-12.21c-1.17-3.92-3.19-5.51-3.19-5.51
					c-0.25-0.2-0.62-0.16-0.82,0.09C633.31,262.36,633.35,262.73,633.6,262.93L633.6,262.93z M601.39,300.67
					c0,0,6.36-3.13,10.9-6.51c4.57-3.4,9.95-10.04,11.64-13.05c1.53-2.72,3.68-6.78,4.09-8.05c0.47-1.44,0-4.12-2.38-5.39
					c-2.38-1.26-4.87-0.02-5.99,1.65c-0.97,1.45-2.64,6.63-6.79,11.29c-4.13,4.63-8.97,8.3-13.96,10.99
					c-0.28,0.15-0.39,0.51-0.24,0.79c0.15,0.28,0.51,0.39,0.79,0.24c5.1-2.75,10.05-6.5,14.28-11.24c4.2-4.71,5.91-9.95,6.89-11.42
					c0.83-1.25,2.69-2.21,4.47-1.27c1.77,0.94,2.17,2.92,1.82,3.99c-0.4,1.24-2.51,5.18-4,7.84c-1.64,2.92-6.87,9.37-11.32,12.68
					c-4.47,3.33-10.72,6.4-10.72,6.4c-0.29,0.14-0.41,0.49-0.27,0.78C600.75,300.69,601.1,300.81,601.39,300.67L601.39,300.67z
					 M635.07,283.71c0,0-2.04,4.17-0.1,8.66c1.26,2.93,4.23,6.04,10.68,8.15c0.31,0.1,0.64-0.07,0.74-0.37s-0.07-0.64-0.37-0.74
					c-5.99-1.96-8.8-4.78-9.97-7.5c-1.72-3.99,0.08-7.69,0.08-7.69c0.14-0.29,0.02-0.64-0.27-0.78
					C635.56,283.3,635.21,283.42,635.07,283.71L635.07,283.71z M624.59,296.22h1.26c0.18,0,0.36-0.09,0.47-0.23
					c0.11-0.15,0.15-0.34,0.09-0.51l-0.35-1.22c-0.06-0.2-0.22-0.36-0.42-0.41c-0.2-0.05-0.42,0.01-0.56,0.16l-2.99,3.14
					c-0.16,0.17-0.21,0.41-0.12,0.63c0.09,0.21,0.29,0.36,0.52,0.36c2.42,0.08,6.55,0.89,6.55,0.89c0.24,0.05,0.48-0.06,0.61-0.27
					c0.13-0.21,0.11-0.47-0.03-0.66c-2.75-3.59-2.03-8.77-2.03-8.77c0.04-0.27-0.11-0.53-0.37-0.62c-0.25-0.1-0.54-0.01-0.69,0.21
					c-2.51,3.6-7.7,8.58-7.7,8.58c-0.23,0.22-0.24,0.59-0.02,0.83s0.59,0.24,0.83,0.02c0,0,3.98-3.83,6.71-7.24
					c0.03,1.71,0.32,4.27,1.58,6.53c-1.11-0.19-2.72-0.44-4.13-0.58L624.59,296.22L624.59,296.22z M603.56,295.99
					c0,0-1.18,0.56-3.32,1.72c-0.28,0.15-0.39,0.51-0.23,0.79c0.15,0.28,0.51,0.39,0.79,0.23c2.1-1.14,3.26-1.69,3.26-1.69
					c0.29-0.14,0.42-0.49,0.28-0.78C604.2,295.98,603.85,295.85,603.56,295.99L603.56,295.99z M636.31,259.91
					c0,0,2.81,2.64,4.24,7.57c1.62,5.58-0.52,10.27-1.78,13.19c-0.55,1.28-1.37,2.75-1.94,4.34c-0.91,2.54-1.19,5.37,0.97,8.24
					c3.51,4.67,8.6,5.46,8.6,5.46c0.32,0.05,0.62-0.17,0.67-0.49c0.05-0.32-0.17-0.62-0.49-0.67c0,0-4.64-0.74-7.85-5.01
					c-1.87-2.49-1.59-4.95-0.8-7.15c0.56-1.57,1.37-3.01,1.91-4.28c1.34-3.1,3.55-8.07,1.83-13.98c-1.53-5.28-4.57-8.1-4.57-8.1
					c-0.24-0.22-0.61-0.21-0.83,0.03C636.06,259.31,636.08,259.68,636.31,259.91L636.31,259.91z M647.33,295.7
					c0,0-2.35-0.92-4.5-2.45c-1.37-0.98-2.68-2.2-3.15-3.61c-0.1-0.31-0.43-0.47-0.74-0.37c-0.31,0.1-0.47,0.43-0.37,0.74
					c0.55,1.63,2,3.07,3.58,4.19c2.27,1.62,4.76,2.59,4.76,2.59c0.3,0.12,0.64-0.03,0.76-0.33
					C647.78,296.15,647.63,295.81,647.33,295.7L647.33,295.7L647.33,295.7z M611.07,288.43c0,0-5.8,4.5-11.11,7.14
					c-0.29,0.14-0.41,0.5-0.26,0.78c0.14,0.29,0.5,0.41,0.78,0.26c5.4-2.68,11.3-7.27,11.3-7.27c0.26-0.2,0.3-0.57,0.1-0.82
					C611.69,288.27,611.32,288.23,611.07,288.43L611.07,288.43z M619.72,276.24c0,0,1.01-1.86,1.64-3.22
					c0.29-0.63,0.64-1.42,1.14-1.99c0.38-0.44,0.85-0.74,1.48-0.57c1.34,0.37,1.01,1.69,0.47,2.78c-0.96,1.93-2.56,5.15-4.22,7.68
					c-1.34,2.04-6,8.48-15.3,14.22c-0.27,0.17-0.36,0.53-0.19,0.81c0.17,0.27,0.53,0.36,0.81,0.19
					c9.53-5.88,14.29-12.48,15.66-14.58c1.68-2.56,3.31-5.84,4.29-7.8c0.59-1.19,0.81-2.55,0.22-3.46
					c-0.28-0.43-0.73-0.77-1.42-0.97c-1.12-0.31-2,0.15-2.68,0.93c-0.57,0.65-0.99,1.55-1.32,2.27c-0.61,1.34-1.6,3.15-1.6,3.15
					c-0.15,0.28-0.05,0.64,0.23,0.79C619.21,276.63,619.57,276.52,619.72,276.24L619.72,276.24z M640.64,285.85
					c0,0-1.85,3.9,1.74,6.19c3.21,2.05,4.9,2.74,4.9,2.74c0.3,0.12,0.64-0.02,0.76-0.32c0.12-0.3-0.02-0.64-0.32-0.76
					c0,0-1.62-0.68-4.72-2.65c-2.72-1.74-1.31-4.7-1.31-4.7c0.14-0.29,0.01-0.64-0.28-0.78
					C641.13,285.44,640.78,285.56,640.64,285.85L640.64,285.85z M599.82,294.72c0,0,5.52-2.58,11.36-7.64
					c0.24-0.21,0.27-0.58,0.06-0.83c-0.21-0.24-0.58-0.27-0.83-0.06c-5.7,4.94-11.09,7.46-11.09,7.46
					c-0.29,0.14-0.42,0.49-0.28,0.78C599.18,294.73,599.52,294.86,599.82,294.72L599.82,294.72z M615.92,263.26
					c0,0,2.05-2.03,5.46-2.74c3.42-0.71,6.35,0.21,8.96,2.03c2.59,1.81,4.33,4.87,4.53,7.98c0.2,3.18-0.09,5.25-2.55,9.54
					c-2.24,3.92-2.56,9.18-1.37,13.55c0.08,0.31,0.41,0.5,0.72,0.41c0.31-0.08,0.5-0.41,0.41-0.72c-1.11-4.09-0.84-9.01,1.26-12.66
					c2.63-4.59,2.92-6.8,2.7-10.2c-0.22-3.46-2.15-6.86-5.03-8.87c-2.87-2-6.1-3-9.87-2.22c-3.78,0.78-6.05,3.06-6.05,3.06
					c-0.23,0.23-0.23,0.6,0,0.83C615.32,263.48,615.69,263.48,615.92,263.26L615.92,263.26z M647.95,291.65c0,0-1.45-0.79-2.72-1.8
					c-0.77-0.61-1.49-1.28-1.67-1.92c-0.22-0.77,0.12-1.59,0.56-2.4c0.52-0.97,1.21-1.93,1.61-2.79c0.83-1.76,2.92-7.11,2.41-12.25
					c-0.5-5.13-2.43-13.15-9.9-18.41c-3.32-2.34-9.59-5.28-16.47-4.83c-6.97,0.46-9.84,2.89-9.84,2.89
					c-0.25,0.21-0.28,0.58-0.08,0.82c0.21,0.25,0.58,0.28,0.82,0.08c0,0,2.69-2.19,9.16-2.62c6.57-0.43,12.55,2.39,15.72,4.62
					c7.12,5.02,8.93,12.68,9.41,17.57c0.48,4.88-1.53,9.96-2.31,11.63c-0.48,1.03-1.37,2.19-1.89,3.35
					c-0.41,0.9-0.59,1.81-0.35,2.67c0.18,0.63,0.71,1.32,1.4,1.95c1.45,1.33,3.55,2.48,3.55,2.48c0.28,0.15,0.64,0.05,0.79-0.23
					C648.34,292.16,648.23,291.8,647.95,291.65L647.95,291.65L647.95,291.65z M620.96,291.52c0,0,3.04-3.6,4.88-5.94
					c1.86-2.36,3.68-6.36,5.22-9.43c1.63-3.23,0.81-6.61,0.81-6.61c-0.08-0.31-0.39-0.51-0.71-0.43c-0.31,0.08-0.51,0.39-0.43,0.71
					c0,0,0.71,2.97-0.72,5.81c-1.51,3-3.28,6.92-5.1,9.23c-1.83,2.33-4.86,5.91-4.86,5.91c-0.21,0.25-0.18,0.62,0.07,0.82
					C620.38,291.8,620.75,291.77,620.96,291.52L620.96,291.52z M645.49,289.2c0,0,0.81,1.05,2.17,2.02
					c0.26,0.19,0.63,0.12,0.82-0.14c0.19-0.26,0.12-0.63-0.14-0.82c-1.2-0.85-1.92-1.78-1.92-1.78c-0.2-0.26-0.56-0.3-0.82-0.11
					S645.29,288.94,645.49,289.2L645.49,289.2z M648.09,287.14c0.03-0.11,0.08-0.26,0.13-0.39c0.28-0.74,0.74-1.7,0.74-1.7
					c0.14-0.29,0.02-0.64-0.27-0.78c-0.29-0.14-0.64-0.02-0.78,0.27c0,0-0.8,1.67-0.98,2.41c-0.06,0.25-0.05,0.44-0.03,0.56
					c0.05,0.22,0.18,0.35,0.32,0.42c0.24,0.13,1.08,0.99,1.08,0.99c0.23,0.23,0.6,0.23,0.83,0c0.23-0.23,0.23-0.6,0-0.83
					C649.13,288.1,648.51,287.5,648.09,287.14L648.09,287.14z M639.43,288.29c0,0-0.14-2.02,1.18-4.33c1.45-2.54,2.63-4.66,3.13-8.2
					c0.5-3.52,0.4-5.83,0.4-5.83c-0.01-0.32-0.29-0.57-0.61-0.56c-0.32,0.01-0.57,0.29-0.56,0.61c0,0,0.09,2.23-0.39,5.62
					c-0.47,3.36-1.61,5.37-2.99,7.79c-1.51,2.66-1.33,4.99-1.33,4.99c0.02,0.32,0.3,0.56,0.63,0.54
					C639.21,288.9,639.45,288.62,639.43,288.29L639.43,288.29z M598.97,288.54c0,0,6.03-3.57,9.52-7.27
					c0.22-0.24,0.21-0.61-0.03-0.83c-0.24-0.22-0.61-0.21-0.83,0.03c-3.39,3.6-9.26,7.07-9.26,7.07c-0.28,0.16-0.37,0.52-0.21,0.8
					C598.33,288.61,598.69,288.7,598.97,288.54L598.97,288.54z M623.18,271.4c0,0-2.85,7.68-10.81,15.81
					c-0.23,0.23-0.22,0.6,0.01,0.83s0.6,0.22,0.83-0.01c8.17-8.33,11.08-16.22,11.08-16.22c0.11-0.3-0.04-0.64-0.35-0.75
					C623.63,270.94,623.29,271.09,623.18,271.4L623.18,271.4z M648.04,279.02c0,0-1.82,4.93-3.35,7.81
					c-0.15,0.29-0.04,0.64,0.24,0.79c0.29,0.15,0.64,0.04,0.79-0.24c1.56-2.94,3.42-7.95,3.42-7.95c0.11-0.3-0.04-0.64-0.35-0.75
					S648.15,278.72,648.04,279.02L648.04,279.02z M612.59,285.69c0,0,4.1-4.62,5.84-7.3c0.18-0.27,0.1-0.63-0.17-0.81
					c-0.27-0.18-0.63-0.1-0.81,0.17c-1.71,2.63-5.74,7.16-5.74,7.16c-0.21,0.24-0.19,0.61,0.05,0.83
					C612.01,285.95,612.38,285.93,612.59,285.69L612.59,285.69z M642.53,284.84c0,0,1.56-2.47,2.99-7.06
					c1.52-4.89,0.43-10.53-0.79-14.11c-1.23-3.59-5.34-9.32-10.86-12.02c-5.5-2.69-11.37-3.11-17.44-1.41
					c-6.1,1.7-11.39,7.38-13.41,11.96c-1.91,4.33-3.35,6.37-4.66,7.54c-0.24,0.21-0.26,0.58-0.05,0.83
					c0.21,0.24,0.58,0.26,0.83,0.05c1.39-1.23,2.94-3.36,4.96-7.94c1.9-4.33,6.89-9.7,12.65-11.3c5.79-1.61,11.37-1.22,16.61,1.34
					c5.22,2.55,9.1,7.96,10.27,11.35c1.16,3.4,2.22,8.74,0.78,13.38c-1.37,4.41-2.86,6.78-2.86,6.78c-0.17,0.27-0.09,0.63,0.18,0.81
					C642,285.19,642.36,285.11,642.53,284.84L642.53,284.84z M598.86,283.87c0,0,5.23-3.49,7.64-6.28c2.4-2.78,5.04-6.94,5.71-8.4
					c0.65-1.4,1.56-3.35,2.2-4.2c0.2-0.26,0.15-0.62-0.11-0.82c-0.26-0.2-0.62-0.14-0.82,0.11c-0.68,0.9-1.65,2.94-2.33,4.42
					c-0.65,1.42-3.21,5.43-5.53,8.13c-2.33,2.69-7.4,6.07-7.4,6.07c-0.27,0.18-0.34,0.54-0.16,0.81
					C598.23,283.98,598.59,284.05,598.86,283.87L598.86,283.87z M624.3,256.35c0,0,4.38-0.08,8.79,3.35c4.42,3.44,5.97,7.58,6,11.64
					c0.04,4.1-1.69,7.83-3.32,10.67c-0.16,0.28-0.06,0.64,0.22,0.8c0.28,0.16,0.64,0.06,0.8-0.22c1.72-3,3.51-6.95,3.47-11.27
					c-0.04-4.38-1.69-8.85-6.45-12.56c-4.77-3.72-9.54-3.6-9.54-3.6c-0.32,0.01-0.58,0.27-0.57,0.6
					C623.71,256.11,623.98,256.36,624.3,256.35L624.3,256.35z M598.78,281.56c0,0,4.37-3.26,6.24-5.33
					c1.88-2.07,4.28-5.67,5.48-8.17c1.14-2.38,2.04-4.77,4.53-6.76c2.47-1.97,4.67-2.75,7.48-2.99c2.8-0.24,6.57,0.44,9.78,3.27
					c0.24,0.21,0.61,0.19,0.83-0.05c0.21-0.24,0.19-0.61-0.05-0.83c-3.49-3.09-7.6-3.82-10.65-3.56c-3.05,0.26-5.43,1.1-8.11,3.24
					c-2.66,2.12-3.64,4.64-4.86,7.17c-1.16,2.41-3.47,5.89-5.29,7.89c-1.83,2.01-6.08,5.18-6.08,5.18
					c-0.26,0.19-0.31,0.56-0.12,0.82C598.16,281.7,598.53,281.76,598.78,281.56L598.78,281.56z M609.9,279.78
					c0,0,3.62-4.14,5.54-8.02c1.8-3.62,2.76-7.04,7.66-7.26c4.78-0.21,6.75,3.48,6.75,3.48c0.15,0.29,0.51,0.39,0.79,0.24
					c0.29-0.15,0.39-0.51,0.24-0.79c0,0-2.28-4.35-7.84-4.1c-5.44,0.24-6.66,3.89-8.66,7.91c-1.87,3.76-5.37,7.77-5.37,7.77
					c-0.21,0.24-0.19,0.61,0.06,0.83C609.32,280.05,609.69,280.02,609.9,279.78L609.9,279.78z M598.85,279.13
					c0,0,4.01-3.16,5.9-5.68c1.88-2.51,4.08-6.34,5.15-8.92c1.01-2.43,5.62-7.94,12.27-8.14c0.32-0.01,0.58-0.28,0.57-0.6
					c-0.01-0.32-0.28-0.58-0.6-0.57c-7.22,0.21-12.22,6.22-13.32,8.86c-1.04,2.5-3.17,6.22-5,8.66c-1.82,2.43-5.69,5.46-5.69,5.46
					c-0.25,0.2-0.3,0.57-0.1,0.82C598.22,279.28,598.59,279.33,598.85,279.13L598.85,279.13z M599.02,276.42
					c0,0,3.71-2.98,6.06-6.86c2.26-3.75,3.48-7.59,7.05-10.83c3.41-3.09,8.84-5.56,15.71-3.89c4.48,1.09,6.92,3.54,6.92,3.54
					c0.23,0.23,0.6,0.23,0.83,0c0.23-0.23,0.23-0.6,0-0.83c0,0-2.63-2.67-7.48-3.85c-7.33-1.78-13.13,0.86-16.77,4.16
					c-3.66,3.32-4.95,7.24-7.27,11.09c-2.24,3.71-5.79,6.55-5.79,6.55c-0.25,0.2-0.29,0.57-0.09,0.82
					C598.4,276.58,598.76,276.62,599.02,276.42L599.02,276.42z M599.24,273.54c0,0,2.81-2.96,4.24-5.22
					c0.17-0.27,0.09-0.63-0.18-0.81c-0.27-0.17-0.63-0.09-0.81,0.18c-1.38,2.18-4.1,5.04-4.1,5.04c-0.22,0.23-0.21,0.6,0.02,0.83
					C598.64,273.78,599.02,273.77,599.24,273.54L599.24,273.54z M641.01,263.26c0,0,1.15,2.38,1.83,5.17
					c0.08,0.31,0.39,0.51,0.71,0.43c0.31-0.08,0.51-0.39,0.43-0.71c-0.71-2.92-1.91-5.41-1.91-5.41c-0.14-0.29-0.49-0.41-0.78-0.27
					S640.87,262.97,641.01,263.26L641.01,263.26z M604.68,266.25c0,0,1.4-3.06,2.57-4.92c1.15-1.83,4.29-5.58,8.97-7.53
					c4.69-1.95,8.75-1.99,13.59-0.49c4.48,1.39,8.58,4.98,10.49,8.61c0.15,0.29,0.5,0.4,0.79,0.25c0.29-0.15,0.4-0.5,0.25-0.79
					c-2.04-3.87-6.4-7.7-11.18-9.18c-5.13-1.59-9.43-1.54-14.39,0.52c-4.97,2.07-8.29,6.05-9.51,7.99c-1.2,1.91-2.64,5.05-2.64,5.05
					c-0.13,0.29-0.01,0.64,0.29,0.78S604.55,266.54,604.68,266.25L604.68,266.25z M610.51,250.99c0,0-4.17,2.5-6.92,6.36
					c-2.24,3.14-3.08,5.82-4.1,7.48c-0.17,0.28-0.08,0.64,0.2,0.8c0.28,0.17,0.64,0.08,0.8-0.2c1.01-1.65,1.83-4.3,4.05-7.41
					c2.62-3.67,6.57-6.04,6.57-6.04c0.28-0.17,0.37-0.53,0.2-0.8C611.15,250.91,610.79,250.82,610.51,250.99L610.51,250.99z
					 M639.26,251.54c0,0,1.46,1.19,2.97,2.94c0.21,0.24,0.58,0.27,0.83,0.06s0.27-0.58,0.06-0.83c-1.58-1.83-3.11-3.08-3.11-3.08
					c-0.25-0.2-0.62-0.17-0.82,0.08C638.97,250.96,639.01,251.33,639.26,251.54L639.26,251.54z M605.17,254.14
					c0,0,6.15-6.49,15.07-7.58c9.86-1.2,17.32,3.97,17.32,3.97c0.27,0.18,0.63,0.12,0.81-0.15c0.18-0.27,0.12-0.63-0.15-0.81
					c0,0-7.8-5.43-18.13-4.17c-9.34,1.14-15.78,7.94-15.78,7.94c-0.22,0.23-0.21,0.6,0.02,0.83
					C604.57,254.39,604.94,254.38,605.17,254.14L605.17,254.14z M612.91,246.48c0,0,9.98-4.98,21.32,0.13
					c0.29,0.13,0.64,0,0.77-0.29c0.13-0.29,0-0.64-0.29-0.77c-11.87-5.35-22.32-0.11-22.32-0.11c-0.29,0.14-0.41,0.5-0.26,0.78
					C612.27,246.5,612.62,246.62,612.91,246.48L612.91,246.48z" clip-rule="evenodd"></path><g><path fill="#ddcfff" d="M189.29,208.69c-19.38-0.42-40.74-11.21-40.74-11.21s-21.25,11.02-40.62,11.63c0,0-7.41,55.31,41.06,74.34
					C197.27,263.92,189.29,208.69,189.29,208.69z"></path><path fill="#b99197" d="M184.69,211.71c-17.18-0.38-36.12-10.15-36.12-10.15s-18.84,9.97-36.01,10.52c0,0-6.56,50.06,36.41,67.29
					C191.77,261.7,184.69,211.71,184.69,211.71z"></path><path fill="#8f93c7" d="M181.77,213.42c-15.79-0.36-33.19-9.55-33.19-9.55s-17.31,9.37-33.09,9.89c0,0-6.02,47.08,33.47,63.29
					C188.28,260.44,181.77,213.42,181.77,213.42z"></path><g><circle cx="148.67" cy="237.84" r="20.34" fill="#ffe595"></circle><polyline fill="#ffe595" points="138.07 237.8 145.17 244.89 159.26 230.79"></polyline><polygon fill="#8f93c7" points="145.17 247.61 143.35 245.8 136.26 238.7 139.89 235.08 145.17 240.35 157.45 228.07 161.08 231.7 146.98 245.8"></polygon></g></g></svg>