<svg xmlns="http://www.w3.org/2000/svg" fill-rule="evenodd" stroke-linecap="round" stroke-linejoin="round" stroke-miterlimit="1.5" clip-rule="evenodd" viewBox="0 0 3000 3000" id="student-jumping-on-result-day"><path fill="none" d="M0 0h3000v3000H0z"></path><ellipse cx="707.195" cy="665.874" fill="#ffc2e9" rx="213.798" ry="227.988"></ellipse><path fill="#1b1b31" d="M791.268 733.601 640.779 547.316l-62.825 225.733 38.718 6.575 26.013-78.801 52.66-17.116 65.296 67.42 30.627-17.526ZM649.934 615.783l32.517 38.747-44.004 10.514 11.487-49.261ZM837.888 626.898l33.613-13.489 11.144 27.77-32.388 12.997 18.708 39.014-30.111 12.223-16.394-40.082-34.575 13.875-11.144-27.77 33.351-13.383-18.954-41.802 27.252-12.357 19.498 43.004Z"></path><path fill="#ffb8b0" d="M742.882 894.182c52.842 220.726 221.322 353.202 447.774 441.353a4.517 4.517 0 0 0 3.277-8.417c-223.443-86.979-390.127-217.246-442.267-435.039a4.515 4.515 0 0 0-5.443-3.34 4.515 4.515 0 0 0-3.341 5.443ZM1650.92 1638.09c210.519-46.912 414.339-166.823 557.686-329.269a4.516 4.516 0 0 0-6.772-5.977c-142.112 161.046-344.175 279.922-552.879 326.43a4.517 4.517 0 0 0 1.965 8.816Z"></path><ellipse cx="2315.12" cy="1157.71" fill="#6dc9c3" rx="191.481" ry="175.919"></ellipse><path fill="#f7ecd5" d="M2270.37 1174.01c-20.387 5.656-31.64-66.744-47.114-54.042-9.309 7.642.519 125.213 31.872 123.327 36.49-2.194 160.364-107.055 187.069-136.491 10.813-11.918-139.81 58.325-171.827 67.206Z"></path><path fill="#6a6b70" d="M2212.69 669c-46.828-42.915-107.118-72.953-202.813-57.279l-87.402 200.585s-190.871 192.758-227.634 254.465c-58.786 98.67 27.955 255.173 122.193 191.422 89.477-60.53 321.676-274.106 395.656-589.193Z"></path><path fill="#ffb8b0" d="M2139.52 489.043c-8.412-70.892-16.809-141.846-55.387-95.089-17.422-14.544-29.884-15.585-29.422 18.556-22.179-8.756-28.997 3.435-29.321 24.481-34.212 9.252-19.561 65.972 4.765 132.091 0 0-17.413 106.921 0 128.305 17.412 21.384 70.834 34.327 87.02 3.491 6.298-11.997 13.072-54.926 25.629-95.646 25.2-81.716 59.604-175.299-3.284-116.189Z"></path><path d="m2137.47 491.82.501 27.65a2 2 0 1 0 3.999-.073l-.5-27.649a2.001 2.001 0 0 0-4 .072Zm-84.411-76.239c11.218 16.072 16.458 33.448 16.92 51.911a2 2 0 0 0 3.999-.101c-.482-19.241-5.947-37.349-17.639-54.099a2 2 0 1 0-3.28 2.289Zm-27.884 25.219c5.941 6.51 8.808 13.118 10.095 21.179a1.999 1.999 0 1 0 3.95-.631c-1.413-8.849-4.569-16.098-11.09-23.244a2 2 0 0 0-2.955 2.696Zm57.628-43.528c11.418 19.323 17.915 42.684 15.613 63.878a2 2 0 0 0 3.977.431c2.389-22.007-4.29-46.279-16.146-66.344a2 2 0 0 0-3.444 2.035Z"></path><path fill="#617ae1" d="M2212.69 669c-70.951-1.249-139.023-17.844-202.813-57.279l-87.402 200.585s-190.871 192.758-227.634 254.465c-58.786 98.67 27.955 255.173 122.193 191.422 89.477-60.53 321.676-274.106 395.656-589.193ZM1430.71 332.699l-125.378-48.533 20.358 163.837 125.379 48.534-20.359-163.838Z"></path><path fill="#1b1b31" d="m1450.76 496.403-27.364 29.95c-45.879-10.511-89.832-26.415-129.744-53.636l32.341-25.006 124.767 48.692Z"></path><path fill="#1b1b31" d="m1325.99 450.461-20.664-166.295-32.922 16.29 21.257 172.29 32.329-22.285Z"></path><path fill="#ffb8b0" d="M1357.03 570.054c18.331 2.477 49.401-40.055 64.865-54.22 14.638-13.408 57.244-30.2 62.12-40.453 7.423-15.607-34.559-26.098-78.732-6.305-30.039.896-41.549 5.822-63.807 18.705 0 0-48.33-44.212-58.387-114.885-43.189 8.479-39.419 72.528-33.532 126.578 0 0-86.004 122.191-80.561 142.839 7.093 26.903 81.671 69.98 115.444 47.728 31.274-20.606 72.59-119.987 72.59-119.987Z"></path><path fill="#617ae1" d="M1349.95 674.613c-70.758-67.14-135.847-85.449-211.203-69.826-202.996 326.861 134.409 541.464 203.417 607.684 106.086 101.799 233.681-68.853 192.709-174.772-24.773-64.041-162.086-178.733-192.682-237.227-19.482-37.245 7.759-125.859 7.759-125.859Z"></path><path fill="#1b1b31" d="M1983.28 2282.06s-51.446-25.607-98.901-54.019c-33.626-20.133-61.11-46.918-85.271-43.685-58.257 7.795-165.372 144.471-165.372 144.471-12.677 27.571 28.502 56.824 64.435 85.914l-18.014 148.79c-59.215 154.357 118.793 165.542 167.138 88.832 36.758-58.325 218.584-286.737 135.985-370.303ZM1183.14 2493.73s-48.086-99.547-66.821-141.248c-13.575-30.216-18.17-60.641-35.432-71.887-41.623-27.117-185.589 65.153-185.589 65.153-27.76 15.441-9.604 53.675-28.792 89.651-25.811 48.391-70.835 86.314-70.835 86.314-114.083 75.2-17.147 158.188 58.123 149.043 57.069-6.933 336.207-77.955 329.346-177.026Z"></path><path fill="#ffb8b0" d="m1710.01 2124.06-127.995 113.528s76.109 87.996 118.895 114.282c81.766 50.232 159.189-32.881 130.89-107.373-14.083-37.07-121.79-120.437-121.79-120.437ZM1042.06 2149.66l-163.621 28.689s15.056 114.905 17.313 157.287c4.702 88.295 171.803 64.4 180.209-2.423 2.438-19.382-33.901-183.553-33.901-183.553Z"></path><path fill="#617ae1" d="m1769.21 936.215-220.8 3.581c-39.09 15.173-333.062 348.476-333.062 348.476s10.495 151.854 66.038 186.088c71.904 44.32 239.913 68.435 330.487 57.427 65.391-7.947 173.616-123.476 173.616-123.476l-16.279-472.096Z"></path><path fill="#1b1b31" d="M1676.1 1428.46c-91.66-28.809-135.02-35.389-241.833-28.178 0 0-262.066 385.536-254.243 486.544 11.614 149.939 268.176 170.967 359.633 47.488 41.225-55.66 99.055-246.68 125.948-378.489 16.699-81.84 10.495-127.365 10.495-127.365Z"></path><path fill="#1b1b31" d="M1538.09 1418.97c-97.578-33.249-196.082-19.287-294.774 4.276 0 0-419.735 254.28-459.114 347.623-74.843 177.403 127.754 291.97 289.11 164.704 54.384-42.895 464.778-516.603 464.778-516.603Z"></path><path fill="#1b1b31" d="M1498.46 1786.25c-172.847-143.772-355.17-11.451-311.813 136.322 22.298 75.997 252.718 334.347 345.846 360.273 93.128 25.925 179.346-78.388 222.458-202.335 0 0-182.171-232.442-256.491-294.26ZM1079.52 1884.58c-49.268-239.174-261.709-233.207-316.86-67.123-24.961 75.165-7.686 344.904 50.147 399.554 57.834 54.649 285.922-60.726 285.922-60.726s.294-177.024-19.209-271.705ZM1717.36 1029.34s-41.586 244.457-49.332 308.764c-3.083 25.59 3.164 86.023 3.164 86.023a1 1 0 1 0 1.989-.206s-6.234-60.12-3.168-85.577c7.744-64.288 49.318-308.668 49.318-308.668a1 1 0 1 0-1.971-.336ZM1638.81 1079.31s-31.53 89.683-59.907 164.284c-14.409 37.882-33.423 66.906-36.033 88.576-3.091 25.665 6.678 65.082 6.678 65.082a1 1 0 0 0 1.941-.482s-9.691-38.979-6.633-64.361c2.597-21.561 21.58-50.412 35.917-88.104 28.385-74.623 59.924-164.331 59.924-164.331a1 1 0 0 0-1.887-.664ZM1553.16 1108.72s-86.867 137.455-122.947 203.507c-9.111 16.679-14.972 28.871-15.498 33.238-3.107 25.793 9.137 51.963 9.137 51.963a1 1 0 0 0 1.812-.848s-12.005-25.621-8.963-50.875c.515-4.279 6.343-16.181 15.267-32.519 36.061-66.017 122.882-203.397 122.882-203.397a1 1 0 1 0-1.69-1.069ZM1499.01 1062.71s-133.373 151.754-188.056 223.526c-9.605 12.606-16.787 22.756-20.414 29.198-1.638 2.911-2.557 5.118-2.722 6.491-.934 7.749.709 18.564 3.494 29.904 6.439 26.219 18.933 55.286 18.933 55.286a1 1 0 1 0 1.837-.79s-12.425-28.902-18.828-54.973c-2.719-11.071-4.362-21.623-3.451-29.188.147-1.221 1.023-3.159 2.48-5.749 3.598-6.392 10.732-16.459 20.262-28.967 54.656-71.737 187.967-223.418 187.967-223.418a1 1 0 0 0-1.502-1.32Z"></path><path fill="#f7ecd5" d="m1730.92 936.429-195.191 2.278c-120 251.399 169.643 140.543 203.996 57.757l-8.805-60.035Z"></path><path fill="#1b1b31" d="m1605.38 943.772-60.424-19.68c-217.888 89.699-252.739 169.035-221.05 234.737 49.78-82.219 168.602-166.102 281.474-215.057Z"></path><path fill="#f7ecd5" d="m1370.9 1099.58-49.405-18.054c-9.026 13.379-12.773 51.988 2.411 77.3 12.002-22.356 46.994-60.753 46.994-59.246Z"></path><path fill="#ffb8b0" d="M1687.48 830.752c-24.572-15.682-58.46-20.823-84.761-3.165-26.302 17.658-46.852 106.138-50.892 135.007-16.916 120.887 28.6 108.555 180.776-11.854 0 0-20.55-104.306-45.123-119.988Z"></path><path fill="#e59991" d="M1697.68 843.219c-46.868 59.874-93.64 59.614-110.124 2.171l110.124-2.171Z"></path><path fill="#ffb8b0" d="M1637.21 616.494c53.669 0 167.533 54.806 155.783 121.244-13.892 78.548-60.073 47.845-61.573 56.371-9.633 54.76-56.304 64.265-101.394 66.513-53.602 2.672-90.797-36.631-90.797-104.101 0-67.469 44.313-140.027 97.981-140.027Z"></path><path fill="#1b1b31" d="M1764.27 653.343c-20.305-52.394-61.626-76.547-100.004-73.816-28.628 2.038-55.829 26.817-70.316 24.123-79.494-14.78-78.692 54.717-35.489 71.246 7.3-10.913 29.896-41.013 61.109-41.973 35.249-1.084 74.018 26.068 74.018 26.068s34.06 22.184 22.344 69.861c101.143-116.225 83.415 78.153 19.41 53.577-3.15 20.427-9.852 37.959-22.431 50.844l36.439 6.57c58.398-79.975 69.817-144.29 14.92-186.5Z"></path><path fill="#fff" d="M1694.41 754.685c-9.379-6.187-109.604 18.268-109.604 18.268s16.499 50.48 34.767 47.436c18.267-3.045 84.216-59.517 74.837-65.704Z"></path><ellipse cx="1649.04" cy="703.86" rx="9.134" ry="15.468"></ellipse><path d="M1580.58 681.116c5.012.542 8.336 7.873 7.418 16.361-.918 8.487-5.732 14.938-10.744 14.396-5.012-.542-8.336-7.873-7.418-16.36.918-8.488 5.732-14.939 10.744-14.397ZM1608.95 671.597s-24.955 47.52-27.768 61.346c-.768 3.777.881 8.422 3.309 12.591 3.366 5.778 8.053 10.645 8.053 10.645a2 2 0 0 0 2.881-2.775s-4.352-4.519-7.478-9.884c-1.9-3.261-3.446-6.824-2.845-9.78 2.765-13.594 27.388-60.28 27.388-60.28a2 2 0 0 0-3.54-1.863Z"></path><path fill="#1b1b31" d="m1794.74 924.584-62.616 12.507c14.085 107.33 34.012 227.328 71.158 334.658l57.501-19.107-66.043-328.058Z"></path><path fill="#f7ecd5" d="m1849.2 1195.09-64.635 16.662s11.928 40.371 18.721 59.999l57.501-19.107-11.587-57.554Z"></path><path fill="none" stroke="#617ae1" stroke-width="2.6" d="M1434.27 1400.28s-262.066 385.536-254.243 486.544"></path></svg>