<svg xmlns="http://www.w3.org/2000/svg" viewBox="0 0 4680 3120" id="growth-of-education-with-hard-work"><g><g><rect width="4680" height="3120" fill="#fff"></rect><path fill="#feeed3" d="M3065.68,1577.87a796.45,796.45,0,0,1-17.64,94.68C2988.57,1911.37,2816.89,2135,2545.89,2160c-552.72,51-477.85,377.76-827.43,444.5-131.1,25-271.87-37.92-398.13-147.73q-28-24.32-53.53-50.45a912.57,912.57,0,0,1-119.63-151.25c-169.75-268.68-191.75-614.15-43.43-909.41l90.42-180A925.94,925.94,0,0,1,1527.86,798c237.69-149.87,594.28-328.93,734.77-162.18,146,173.24,190.77,249.64,317.63,324.84,13.4,7.93,27.7,15.85,43.14,23.87q11.94,6.23,24.82,12.52c38.51,18.86,83.64,38.54,138.07,60.47l9.14,3.66,2.69,1.07,3.17,1.27,8.54,3.39q21.89,8.64,45.69,17.79C3025.84,1150.15,3092.69,1360.31,3065.68,1577.87Z"></path><path fill="#0b065a" d="M1495.44,1241.71s-98.34,139.58-73,206.19,134.41,45.47,153.38-15.86S1495.44,1241.71,1495.44,1241.71Z"></path><path fill="#fff" stroke="#000" stroke-linecap="round" stroke-miterlimit="10" stroke-width="4" d="M1586.85,957.49s10.87,2.3,29.65,45.13a141,141,0,0,0,16.14,26.68c6.62,8.39,11.23,42.72-3,66.55-7,11.75-21.88,17.18-36.9,23.06l24,68.19s14.86,18.45-63.73,5.27c0,0,9-56.66-26.55-89.93-30.17-28.21-51-45.47-7.89-94.22S1586.85,957.49,1586.85,957.49Z"></path><path fill="#fff" stroke="#000" stroke-linecap="round" stroke-miterlimit="10" stroke-width="4" d="M1629.28,1159.24s54.46-19,78.25-26.57c35.35-11.22,47.49-26.82,47.49-26.82s-46.07-89.22-62.87-138.95c0,0-14.2,8.21-35.32-1.22s-28.36,1.79-52.42-21.94c0,0-7.63-18.12,11.22-12.92s31.69,1.14,38.51-1.46,43.08,3.11,58.68,17.08,26.07,30.62,42.2,63.12,65.86,93.61,59.36,109.21-139.43,104-158,98.81S1629.28,1159.24,1629.28,1159.24Z"></path><path fill="#fcaa23" d="M1670.81,1163.37s22.48,15.15,53.72,5.45S1770,1153,1770,1153s-46.39,33.84-78.34,49.46S1670.81,1163.37,1670.81,1163.37Z"></path><path fill="#fff" stroke="#000" stroke-linecap="round" stroke-miterlimit="10" stroke-width="4" d="M1547.53,1972.51s-17.13,74.5-17.89,77.13,38.26,5,38.26,5l22-74.4Z"></path><path fill="#fcaa23" d="M1547.8,1979.69l-5.91,25.56s19.62,12.28,39-1l2.58-8.75,3.36-11.23Z"></path><path fill="#4052f2" stroke="#000" stroke-linecap="round" stroke-miterlimit="10" stroke-width="4" d="M1531.9,2043.52s24.9,10.59,39.87,1.83c0,0,6.52,6.23,29.88,10.29s51.23-.71,49.63,15.58-8.66,22.49-70,25.29-72.62-8.3-72.62-8.3S1521.33,2036.46,1531.9,2043.52Z"></path><path fill="#fff" stroke="#000" stroke-linecap="round" stroke-miterlimit="10" stroke-width="4" d="M1951.08,1776.28s29,57.21,30.23,59.83,33.92-22.48,33.92-22.48l-33.88-74.49Z"></path><path fill="#fcaa23" d="M1980.73,1743.11l11.13,24.38s-10.65,22.48-28.4,28.28l-9.83-19.52Z"></path><path fill="#4052f2" stroke="#000" stroke-linecap="round" stroke-miterlimit="10" stroke-width="4" d="M1978.88 1829.67s27.17-8.75 33-26.08c0 0 9.51.47 30.94-12.43s40.36-36 50.34-21.87 8.62 23.93-38.36 68.53-63.64 43.55-63.64 43.55S1965.58 1831.34 1978.88 1829.67zM1584.79 1543.86s13.48 147.51-7.93 195.89-46 232.36-46 232.36 34.1 25.38 73 12.69c0 0 30.93-126.89 48.38-165.75s57.89-191.12 57.1-240.29S1584.79 1543.86 1584.79 1543.86z"></path><path fill="#0502ab" d="M1588.39,1565.27s3.32,45.68,2.61,80.47c0,0,70.29,28.87,102,25.56,0,0,14.86-64.14,16.3-89.7S1588.39,1565.27,1588.39,1565.27Z"></path><path fill="#fff" stroke="#000" stroke-linecap="round" stroke-miterlimit="10" stroke-width="4" d="M2835.08,1437s-21.48,69.4-22.55,72.49,45.3,8.44,45.3,8.44l31.13-87.28Z"></path><path fill="#fcaa23" d="M2841.51,1420.3l50.32-6.13-15.25,46.27s-26.8,13.57-47,1.6Z"></path><path fill="#0b065a" stroke="#000" stroke-linecap="round" stroke-miterlimit="10" stroke-width="4" d="M2815.63,1502.36s29,14.29,47.43,4.82c0,0,7.36,7.87,35,14.26s61.16,2.55,58.17,21.88-11.83,26.25-85.19,25.52-86.07-14.71-86.07-14.71S2803.49,1493.24,2815.63,1502.36Z"></path><path fill="#fff" stroke="#000" stroke-linecap="round" stroke-miterlimit="10" stroke-width="4" d="M2301.43,1686.15s-27.74,73-29.1,76.21,48,12.13,48,12.13l39.31-91.51Z"></path><path fill="#fcaa23" d="M2302.9,1688.05l-13.84,36.06s9.81,19.28,39.77,25.49l27.78-64.6Z"></path><path fill="#0b065a" stroke="#000" stroke-linecap="round" stroke-miterlimit="10" stroke-width="4" d="M2276.14,1754.9s30.13,17.3,50.55,8.4c0,0,7.36,8.93,36.52,17.66s65.43,6.89,60.91,27.42-14.47,27.35-93.1,21.59-91.32-21.62-91.32-21.62S2263.74,1744.3,2276.14,1754.9Z"></path><path fill="#0b065a" d="M2698.3 835.27s1.57-46.4 7.89-74.48S2733.32 740 2733.32 740s16.1-31.56 64.38-16.41 87.73 79.52 76.37 117.71-48.6 55.54-48.6 55.54zM1636.07 1155.4l75.53 161s3.73-164.88-67.33-165.94C1644.27 1150.51 1636.46 1150.83 1636.07 1155.4z"></path><path fill="#fff" stroke="#000" stroke-linecap="round" stroke-miterlimit="10" stroke-width="4" d="M2716,913.21c.24,1.18-6.16,31.71-44.26,49.7s75.74,52.38,99.88,33.53,7.57-32.82,7.57-32.82-20.59,2.84-7.57-39S2716,913.21,2716,913.21Z"></path><path fill="#fcaa23" d="M2765.43,943.86s-36.52,3.9-48.51.75-27,27.77,5.68,47.33-52.55,8.36-49.39-14,16.25-23.51,16.25-23.51,18.46-13.73,24.77-28.72,52.8,8.84,52.8,8.84Z"></path><path fill="#fff" stroke="#000" stroke-linecap="round" stroke-miterlimit="10" stroke-width="4" d="M2851.45,974s100.58-30.42,112-35.32c59.11-25.42,120.08-68.37,123.84-75.34,7.42-13.74,21.52-30.9,31.06-31.31s27.09,6.17,27.09,6.17,29.53-22.12,33.64-28.42,3.38,14.91-4.17,22.74-29.77,26.45-29.75,29.1,6.9,2.25,5.72,10.39-.85,17.06-8.09,18.52-42.3,3.56-48.41,1.57c0,0-53.53,61.74-114.94,92.57-22.41,11.25-92.27,29.78-116.64,36.66C2857.56,1022.81,2851.45,974,2851.45,974Z"></path><path fill="#fcaa23" d="M2876,986s7.89,9.62,30.3,8,48.75-2.21,48.75-2.21-45.12,15.31-84.57,25.25S2876,986,2876,986Z"></path><path fill="#4052f2" stroke="#000" stroke-linecap="round" stroke-miterlimit="10" stroke-width="4" d="M2467.46,1252.78s-39.38,116.57-68.26,212.09a174.73,174.73,0,0,0-4.75,20.85c-1.11,6.45-7.3,20.76-34.44,48.53-40.71,41.65-57.75,137.27-57.75,137.27s20.83,31.24,68.16,26.51c0,0,72.07-109.84,144-174.21s126.8-171.34,126.8-171.34,157.15-16.81,206.85-38.11c0,0-13.5,63.36-11.72,99.27,1.89,38.18,62.14,7.95,62.14,7.95s64.61-67.69,74.08-195.5c0,0-11.45-65.19-73.93-52.88s-169.14,47.44-169.14,47.44Z"></path><path fill="#0502ab" d="M2729.46,1220.65s-82.65,55.4-139,65.82S2445,1327.8,2445,1327.8l26.51-80S2711.52,1189.15,2729.46,1220.65Z"></path><path fill="#4052f2" stroke="#000" stroke-linecap="round" stroke-miterlimit="10" stroke-width="4" d="M2859.39,1264s-8,31.44-11.36,50.41"></path><path fill="#fcaa23" d="M4113.3,510,3965.62,922.76,3852,854.6l-661.75,817.95H2804l-256.08,295.37h-417l-280.53,319.94-439.51-.71-144.06,119.2a912.57,912.57,0,0,1-119.63-151.25l202.7-154.64h462L2111,1835.38h412.77l265.07-257.51h359.75L3805.8,821.35l-115.67-86Z"></path><path fill="#4052f2" stroke="#000" stroke-linecap="round" stroke-miterlimit="10" stroke-width="4" d="M1531.66,1436s-22.21,89.61,37.27,127.68S1856,1622.38,1856,1622.38s46.79,99.13,88,155.43c0,0,45.21-.79,59.48-32.51,0,0-51.55-143.54-59.48-170.51S1714.85,1473.28,1680,1420.94,1531.66,1436,1531.66,1436Z"></path><path fill="#0502ab" d="M1695.36,1439.38s-31.23,21.75-69.1,25.07-90.41,18.93-90.88,48.75c0,0-8.08-15.38-4.52-64.85s159.7-13.09,159.7-13.09Z"></path><path fill="#fcaa23" stroke="#000" stroke-linecap="round" stroke-miterlimit="10" stroke-width="4" d="M1610.17,1155.27s20.68,30.14-65.8,11.9c0,0-54.74,36.48-51.57,57.89s27.75,169.71,19.82,195.88,15.75,36.47,15.75,36.47,37.39-15.85,65.14-7.13,134-19.2,136.41-49.25-27.76-104.6-40.45-169.63S1645.06,1151.3,1610.17,1155.27Z"></path><path fill="#ea8b00" d="M1563,1210.92s17,22.53,2.19,89.11-37.87,62.2-39.76,101,7.81,52.06,7.81,52.06l-4.77,2.09s-19.92-8.56-14.4-32.39c0,0,3.44-10.81,1.89-31.87s-2.86-27.61-2.86-27.61,45.78-129.54,45.78-148.79Z"></path><path fill="#fcaa23" stroke="#000" stroke-linecap="round" stroke-miterlimit="10" stroke-width="3" d="M1550.05 1431.31S1590.29 1404.8 1596 1322M1578.27 1431.31s25-12.62 28.58-52.07"></path><path fill="#0b065a" d="M1601.28,973.13s-14.76,21.58-37.16,37.07-30.31,24-28,35.57-16.14-14.82-26.35,0-.94,33.94,19.76,42.17c0,0,22.12,25.47,16.83,41.23,0,0-29.27-17.84-44.46-20.8s-38.25-8.9-47.81-61.61,13.18-46.12,30.64-81.7S1581.44,906.75,1601.28,973.13Z"></path><path fill="none" stroke="#fff" stroke-linecap="round" stroke-miterlimit="10" stroke-width="4" d="M1529.53,1087.94s13.84,1,15.81-8.56"></path><path fill="#fff" stroke="#000" stroke-linecap="round" stroke-miterlimit="10" stroke-width="4" d="M2521.42,1058.76l-68.16,193.84s50.41,26.27,113.6,20.59,162.6-52.54,162.6-52.54,6.39-60.35,24.85-85.91,44-84.5,78.1-93.73,47.58-11.36,47.58-11.36-8.11-34.54-6-67.91c0,0-37.57,13.71-63.49,7.44-26.5-6.41-30.94-8.65-30.94-8.65s-29.84,49.46-63.92,30.29-28.09-42.9-28.09-42.9-36.21,10.73-58.23,7.18-34.79-.71-61.77,10.65-94.43,49-94.43,49S2488.05,1065.15,2521.42,1058.76Z"></path><path fill="#fcaa23" d="M2799.59 968.12s-1.82 59.64-12.42 87.09-14.56 46.23-14.56 46.23l25.88-39.76s18.3-52.7 18-55.7-6.16-34.87-6.16-34.87zM2584 1052.21s-30.51 30.77-52.91 76.85-63.12 87.41-63.12 87.41L2512.74 1089zM3143.77 862.61s-6.79 10.5-8.68 16.28 13.38-7.27 13.38-7.27a5.4 5.4 0 00-2.27-5.86C3143.61 864.1 3143.77 862.61 3143.77 862.61z"></path><line x1="3145.42" x2="3138.02" y1="838.21" y2="844.69" fill="none" stroke="#000" stroke-linecap="round" stroke-miterlimit="10" stroke-width="4"></line><path fill="#fff" stroke="#000" stroke-linecap="round" stroke-miterlimit="10" stroke-width="4" d="M3146,860s-7.44,9.45-10.95,18.88"></path><path fill="none" stroke="#000" stroke-linecap="round" stroke-miterlimit="10" stroke-width="4" d="M2660.74 1314.37s-8.08 17.27-19.56 38.11M2547.93 1051s-5.68.24-15.15 4.26"></path><path fill="#0b065a" d="M2803 967.33s10.73 66.64-18.52 118.92c0 0 1.12 10.14 20.73-12.58s24.6-101.77 24.6-101.77 1.9-7.45-4.84-8.51S2798 959.82 2803 967.33zM2628.87 952.19s6.25 27.49-17.55 46.16-92.64 68.22-92.64 68.22l-9.77 27.76s112.83-56.67 134.48-89.61c23.23-35.34 21.24-51.31 21.24-51.31s2.23-5-3.63-4.94C2661 948.47 2628.25 941.65 2628.87 952.19z"></path><path fill="#fff" stroke="#000" stroke-linecap="round" stroke-miterlimit="10" stroke-width="4" d="M2736.32 775c-2.63 2.85-25.4 5-33.92 50.17A80.53 80.53 0 012688.2 851c-10.1 12-2.46 77.14 31.56 83 7.57 1.31 57.11 4.42 98.45-33.13 0 0 19.57 4.73 27.46-9.78s-.63-27.77-22.72-19.88c-21 7.5 1.26-7.26-1.58-31.56 0 0-52 .48-59.33-46.86C2758.41 769.47 2736.32 775 2736.32 775zM2475.9 1022.29s-61.73 31.51-75.89 55.64c-17.15 29.23 4.67 56.35 61.06 34.84 53.27-20.32 86.86-61.82 86.86-61.82s19.64-.71 52.3-6.39 24.54-28.48 29.27-32.9 11.68-17.67-9.78-14.83-52.38 16.41-60 19.88-72 26.66-72 26.66S2482.29 1037 2475.9 1022.29z"></path><path fill="#fcaa23" d="M2469,1028.39s8,7.1-7.58,17-40.71,35.5-40.71,35.5,44.78-30.81,63.87-38.38l-9.71-17.28Z"></path><path fill="none" stroke="#000" stroke-linecap="round" stroke-miterlimit="10" stroke-width="4" d="M2421.54,1082.35s21.38-22.65,66.27-39"></path><path fill="#4052f2" stroke="#000" stroke-linecap="round" stroke-miterlimit="10" stroke-width="4" d="M2831.94 1395.94s44.37 20.17 80.26 17.74c0 0-10.39 35.39-17.12 35.7s-50.92-2.55-69.56-20.53zM2299.64 1662.55s39.63 28.37 75.31 32.92c0 0-17 32.72-23.69 31.72s-49.47-12.35-64.28-33.59z"></path><path fill="#fff" stroke="#000" stroke-linecap="round" stroke-miterlimit="10" stroke-width="4" d="M1592.78,1118.91s-9.33,4.28-26.24,6.92"></path><path fill="#0b065a" d="M1509.72,1188.31s32.25-11.63,46.52,9.52,25.68,62.1-43.66,175l-2.22-22.58,17.24-122.84-30.66-16.62S1485.92,1208.4,1509.72,1188.31Z"></path><path fill="#fff" stroke="#000" stroke-linecap="round" stroke-miterlimit="10" stroke-width="4" d="M1503.42,1210.08s28.39-17.32,41.35,12.18-24.37,95.41-41.35,135-75.52,141-77.83,160.87,17.52,44.71,16.13,54.85,4.61,24,.93,29.5-44.71,17-47.94,3.69-16.13-59.46-3.69-95.88,41-114.45,53.93-134.43S1487.46,1210.79,1503.42,1210.08Z"></path><path fill="#fcaa23" d="M1566.54,1127.35a127.51,127.51,0,0,0,25.21-6.3l9.53,28.09s-6.88-.33-22.8-5.86S1561.42,1128.19,1566.54,1127.35Z"></path><path fill="#fff" stroke="#000" stroke-linecap="round" stroke-miterlimit="10" stroke-width="4" d="M1755 1105.85s6.83-8 16.61-9.61M1692.15 966.9s13-3.58 14.39 0"></path><path fill="#fcaa23" d="M1394.37,1594.36s35-4.26,45.28-10.89c0,0,3.24,13.34,1.9,16.81s-14.13,8.75-33.3,10.17c0,0-10.33.4-11.83-5.28A81.74,81.74,0,0,1,1394.37,1594.36Z"></path><ellipse cx="1612.05" cy="1021.04" rx="3.1" ry="5.01" transform="rotate(-25.98 1611.883 1020.975)"></ellipse><ellipse cx="1581.15" cy="1040.01" rx="3.37" ry="5.31" transform="rotate(-25.98 1581.004 1039.944)"></ellipse><path fill="#fff" stroke="#000" stroke-linecap="round" stroke-miterlimit="10" stroke-width="4" d="M1564.14 1032.49s-.3-13.71 14.6-13.71M1601.89 1007.86s4.91-8.78 15.3-2.64M1592.78 1076.73s17.37 8.41 36.24-5.45M1603.51 1029.92s6.78 11.42 14.45 14.22c0 0 6.66 5.61-5.31 12.24"></path><ellipse cx="2713.91" cy="830.26" rx="5.64" ry="3.71" transform="rotate(-70.37 2713.81 830.295)"></ellipse><ellipse cx="2757.93" cy="850.46" rx="5.64" ry="3.71" transform="rotate(-70.37 2757.828 850.49)"></ellipse><path fill="#fff" stroke="#000" stroke-linecap="round" stroke-miterlimit="10" stroke-width="4" d="M2699.86 881.32L2742 892.14S2711 919.11 2699.86 881.32zM2731.58 842.22s-10.72 14.76-15.27 17.59c0 0-4.37 2.87 4.77 9.13M2706.39 809.59s12.66-8.09 22.12 4M2760.3 826.39s14.91-1.82 18.22 13.16"></path><path fill="none" stroke="#fff" stroke-linecap="round" stroke-miterlimit="10" stroke-width="2" d="M1479.49 987s56.18-81.85 112.15-21.68M1485.46 993.75s52-44.38 87.6-10.07M1476 1000.71s-34.73 33.62 3.54 84.06M1481.48 1017.08s-9.51 18.58 0 44.91"></path><polygon fill="#ea8b00" points="582.9 2208.25 826.64 1929.18 1071.93 1989.45 1211.38 1876.61 1151.18 1833.53 1404.69 1752.83 1320.16 1960.82 1269.12 1915.15 1081.2 2099.89 855.83 2049.37 761.71 2209.22 582.9 2208.25"></polygon><path fill="#0502ab" d="M1857.5 1620.89s14.75 2.92 21.37 14.28 84.58 118 116.77 119.28c0 0-17.36 18.62-50.81 21.34C1944.83 1775.79 1903.17 1716 1857.5 1620.89zM1636.68 1467.79s-13.81 35-23 44.23 7.48 15.08 8.91 13.64C1630.76 1517.43 1640.36 1486.1 1636.68 1467.79z"></path><path fill="none" stroke="#000" stroke-linecap="round" stroke-miterlimit="10" stroke-width="4" d="M1639,1467.79s1,39.26-17.67,57.88"></path><path fill="#0502ab" d="M2662.43,1314.48l-18.3,36.45s56.59-8.15,82.44-10.42c0,0-31.71-2.36-51.83-11.67C2665.11,1324.38,2662.43,1314.48,2662.43,1314.48Z"></path><line x1="3469.18" x2="3391.46" y1="1082.55" y2="1160.27" fill="#fff" stroke="#000" stroke-linecap="round" stroke-miterlimit="10" stroke-width="4"></line><line x1="3443.63" x2="3365.91" y1="1162.44" y2="1240.16" fill="#fff" stroke="#000" stroke-linecap="round" stroke-miterlimit="10" stroke-width="4"></line><line x1="3576.41" x2="3470.32" y1="1028.51" y2="1136.58" fill="#fff" stroke="#000" stroke-linecap="round" stroke-miterlimit="10" stroke-width="4"></line><line x1="3543.87" x2="3275.52" y1="1348.94" y2="1678.25" fill="#fff" stroke="#000" stroke-linecap="round" stroke-miterlimit="10" stroke-width="4"></line><line x1="3333.62" x2="3239.04" y1="1660.08" y2="1778.36" fill="#fff" stroke="#000" stroke-linecap="round" stroke-miterlimit="10" stroke-width="4"></line><line x1="728.46" x2="586.4" y1="1953.27" y2="2122.78" fill="#fff" stroke="#000" stroke-linecap="round" stroke-miterlimit="10" stroke-width="4"></line><line x1="616.78" x2="566.7" y1="2113.73" y2="2174.63" fill="#fff" stroke="#000" stroke-linecap="round" stroke-miterlimit="10" stroke-width="4"></line></g></g></svg>