<svg xmlns="http://www.w3.org/2000/svg" enable-background="new 0 0 500 500" viewBox="0 0 500 500" id="teacher-in-class"><g><ellipse cx="328.4" cy="439.12" fill="#F4EAE2" rx="111" ry="10.8"></ellipse><ellipse cx="143.6" cy="439.12" fill="#F4EAE2" rx="45.01" ry="5.61"></ellipse><g><polygon fill="#9A634B" points="321.61 253.43 74.58 253.43 74.58 50.08 321.61 84.97"></polygon><polygon fill="#2E2943" points="82.95 245.05 82.95 59.48 313.24 92.42 313.24 245.05"></polygon><polygon fill="#474E68" points="89.8 245.05 89.8 65.01 313.24 96.96 313.24 245.05"></polygon><rect width="13.99" height="203.35" x="60.6" y="50.09" fill="#2E2943"></rect></g><g><path fill="#F4EAE2" d="M363.74,156.39c0,0-7.65,4.78-16.01,23.18c-4.47,9.84-20.96,34.3-10.41,37.35
			c10.55,3.05,22.09-12.32,29.13-21.56S363.74,156.39,363.74,156.39z"></path><g><g><path fill="#E7A291" d="M343.42,165.43l-7.62,0.77l-0.3-7.53l4.37-1.78c0,0,1.23-2.7,1.87-4.99c0.22-0.77,0.37-1.5,0.38-2.05
					c0.04-2.18-0.23-4.41,1.15-4.83c0,0,0,0,0,0c0.01,0,0.01-0.01,0.02-0.01c0.51-0.14,0.9,0.01,1.2,0.31
					c0.76,0.74,0.96,2.35,0.96,2.35s0.04,1.76,0.36,3.78c0.09,0.61,0.21,1.24,0.36,1.86c0.65,2.67,0.62,4.85-0.13,6.88
					C345.29,162.21,343.42,165.43,343.42,165.43z"></path><g><rect width="2.12" height="40.38" x="338.57" y="116.01" fill="#2E2943" transform="rotate(-14.502 339.691 136.22)"></rect></g><path fill="#E7A291" d="M335.8,166.2c0,0-1.02-1.33-1.87-3.82c-0.84-2.49-2.04-5.07-0.64-6.31c0,0-0.27-1.63,1.54-2.37
					c0,0-0.09-1.09,1.37-2.59c1.46-1.5,1.67-1.77,1.67-1.77s-0.36-2.96,1.04-3.57s3.56-0.15,4.95,0.62c1.39,0.77,2.1,1.15,1.81,2.03
					c-0.41,1.26-4.34,0.16-4.34,0.16s2.12,2.29,2.43,3.38c0.47,1.63,1.47,3.28,0.91,3.8c-0.56,0.52-1.92,0.13-1.92,0.13
					s-0.11,2.05-0.35,2.67s-1.07,1.4-1.57,0.89c0,0-0.46,1.92-1.22,1.76c-0.77-0.16-1.19-1.8-1.19-1.8l-1.74-0.48
					c0,0,0.03,1.57-0.32,1.93c-0.36,0.36,0.42,1.71,0.42,1.71L335.8,166.2z"></path><g><path fill="#2E2943" d="M337.35,163.19l-0.48-0.1c0.57-2.65-0.35-4.02-0.36-4.03l-0.39-0.56l2.53,0.7l0.04,0.14
						c0.15,0.58,0.56,1.53,1,1.62c0.33,0.07,0.76-0.87,0.93-1.57l0.1-0.44l0.31,0.32c0.08,0.08,0.17,0.1,0.29,0.08
						c0.31-0.07,0.72-0.48,0.87-0.88c0.18-0.48,0.29-2.15,0.31-2.76l0.01-0.34l0.32,0.12c0.01,0,1.23,0.44,1.5-0.25l0.46,0.18
						c-0.3,0.77-1.17,0.78-1.81,0.63c-0.04,0.65-0.13,2.08-0.33,2.59c-0.19,0.5-0.7,1.08-1.23,1.19c-0.15,0.03-0.28,0.02-0.41-0.01
						c-0.19,0.63-0.65,1.79-1.43,1.62c-0.77-0.16-1.21-1.4-1.34-1.84l-1.07-0.29C337.44,159.96,337.76,161.26,337.35,163.19z"></path></g><g><path fill="#2E2943" d="M342.53,155.96c0-0.01-0.21-0.6-0.86-1.3c-0.16-0.18-0.35-0.41-0.55-0.67
						c-0.63-0.79-1.5-1.88-2.34-2.05c-0.9-0.16-3.04,1.35-3.79,1.96l-0.31-0.39c0.29-0.24,2.91-2.3,4.19-2.05
						c1.02,0.2,1.91,1.32,2.63,2.22c0.2,0.25,0.37,0.47,0.53,0.64c0.72,0.79,0.95,1.45,0.96,1.48L342.53,155.96z"></path></g><g><path fill="#2E2943" d="M341.1,159.47l-0.49-0.07c0.04-0.32,0.13-1.26,0-1.69c-0.15-0.48-1.82-1.85-2.8-2.05
						c-0.82-0.18-3.49,0.41-4.46,0.65l-0.12-0.48c0.15-0.04,3.57-0.88,4.68-0.66c1.13,0.23,2.96,1.71,3.17,2.39
						C341.28,158.19,341.11,159.42,341.1,159.47z"></path></g><g><path fill="#2E2943" d="M338.07,149.5l-0.37-0.33c0.12-0.14,1.19-1.3,2.13-1.3c0.03,0,0.05,0,0.08,0
						c0.92,0.07,1.54,0.47,1.57,0.49l-0.27,0.41c-0.01,0-0.54-0.35-1.33-0.41c-0.01,0-0.03,0-0.04,0
						C339.22,148.37,338.36,149.18,338.07,149.5z"></path></g></g><path fill="#FFF" d="M343.91 152.88l-1.03.61c0 0 1.01 2.04 1.57 1.84C345 155.14 343.91 152.88 343.91 152.88zM343.63 146.34l-.41 1.13c0 0 2.12.84 2.4.32C345.91 147.27 343.63 146.34 343.63 146.34zM342.55 157.17l-.57.21c0 0-.33 1.46-.1 1.48s.44-.07.53-.67C342.5 157.6 342.55 157.17 342.55 157.17zM340.11 159.38l.63.05c0 0-.3 1.39-.63 1.35C339.77 160.74 340.11 159.38 340.11 159.38z"></path></g><path fill="#2E2943" d="M332.02,170.83c0,0,0.6-2.49,7.29-2.56s6.55,2.93,6.55,2.93l-7.6,5.23l-6.48-3.69L332.02,170.83z"></path><polygon fill="#E7A291" points="345.87 171.2 344.06 162.98 335.8 166.2 334.16 179.01 341.96 178.73"></polygon><path fill="#F4EAE2" d="M332.02,170.83c0,0-2.76,15.72-3.21,25.65c-0.45,9.93-0.04,20.19,9.95,20.7
			c9.52,0.48,9.25-19.15,8.78-28.69s-1.67-17.28-1.67-17.28S339.14,175.01,332.02,170.83z"></path><g><g><g><path fill="#2E2943" d="M382.34,260.05l32.55,4.86c0,0,8.01-26.46,5.27-52.67c-2.75-26.21-11.66-49.7,2.6-52.98l-2.65-0.82
						c-11.92-3.08-37.69-2.59-40.8,3.1C375.95,167.69,382.34,260.05,382.34,260.05z"></path></g><g><g><polygon fill="#E7A291" points="348.58 418.94 347.96 407.72 365.66 406.61 364.93 419.79 358.67 425.97 349.9 425.48 347.07 421.2"></polygon><g><path fill="#9A634B" d="M326.99,430.81c0,0-1.09,5.85,5.8,6.64s11.74,0.48,15.31-0.25c3.58-0.73,5.59-1.82,9.33-1.46
								c3.74,0.36,7.56,1.97,9.47,0.09c1.56-1.54,0.21-5.83,0.21-5.83l-20.66-0.17L326.99,430.81z"></path><path fill="#2E2943" d="M348.69,418.41c0,0-7.96,5.82-12.02,7.75c-4.06,1.94-9.27,0.49-9.68,4.65s10.97,3.39,17.64,2.86
								s11.37-3.07,14.85-1.99s7.37-0.53,7.64-1.68c0.27-1.15-1.03-10.68-1.91-11.66c0,0-1.87,1.52-8.43,1.6
								C351.41,420.01,348.69,418.41,348.69,418.41z"></path><path fill="#FFF" d="M341.25 426.84l-.1.06c-.19.11-.44.05-.55-.15l-1.22-2.13c-.11-.19-.05-.44.15-.55l.1-.06c.19-.11.44-.05.55.15l1.22 2.13C341.51 426.48 341.45 426.73 341.25 426.84zM343.13 425.55l-.1.06c-.19.11-.44.05-.55-.15l-1.22-2.13c-.11-.19-.05-.44.15-.55l.1-.06c.19-.11.44-.05.55.15l1.22 2.13C343.39 425.19 343.32 425.44 343.13 425.55zM345.31 424.18l-.1.06c-.19.11-.44.05-.55-.15l-1.22-2.13c-.11-.19-.05-.44.15-.55l.1-.06c.19-.11.44-.05.55.15l1.22 2.13C345.57 423.82 345.51 424.07 345.31 424.18zM347.47 422.83l-.1.06c-.19.11-.44.05-.55-.15l-1.22-2.13c-.11-.19-.05-.44.15-.55l.1-.06c.19-.11.44-.05.55.15l1.22 2.13C347.73 422.47 347.66 422.72 347.47 422.83z"></path></g></g><g><path fill="#9A634B" d="M392.64,427.49c0,0-0.17,9.39,0.96,10.99c3.78,5.4,13.65,4.73,18.76,2.25
							c3.23-1.57,1.08-8.38,1.08-8.38l0,0L392.64,427.49z"></path><polygon fill="#E7A291" points="408.49 418.68 408.49 411.02 393.63 410.47 393.94 418.29 397.2 426.74 405.89 428.07 409.53 424.46"></polygon><path fill="#2E2943" d="M408.49,418.68c0,0,2.3,6.93,2.71,7.68c0.41,0.75,7.53,11.61-3.54,12.69
							c-11.07,1.08-12.85-0.85-14.65-8.44c-1.04-4.39,0.93-12.31,0.93-12.31s0.34,2.51,4.06,2.95
							C404.52,422.01,407.52,420.97,408.49,418.68z"></path><path fill="#FFF" d="M406.76 423.46l-8.4.3c-.31.01-.58-.23-.59-.55l0 0c-.01-.31.23-.58.55-.59l8.4-.3c.31-.01.58.23.59.55l0 0C407.32 423.19 407.07 423.45 406.76 423.46zM407.05 425.75l-8.4.3c-.31.01-.58-.23-.59-.55h0c-.01-.31.23-.58.55-.59l8.4-.3c.31-.01.58.23.59.55l0 0C407.6 425.48 407.36 425.74 407.05 425.75zM407.35 428.44l-8.4.3c-.31.01-.58-.23-.59-.55l0 0c-.01-.31.23-.58.55-.59l8.4-.3c.31-.01.58.23.59.55l0 0C407.91 428.17 407.66 428.43 407.35 428.44z"></path></g><path fill="#2E2943" d="M355.42,245.31c0,0-10.21,66.6-11.13,81.81s1.85,86.11,1.85,86.11l21.72-0.4l3.61-73.12l12.16-42.48
						l4.89,117.18h21.68c0,0,5.11-65.26,6.49-82.89s4.39-86.21,4.39-86.21H355.42z"></path><g><path fill="#474E68" d="M416.45,271.97c-11.6-0.3-15.95-13.1-15.99-13.23l0.5-0.16c0.04,0.13,4.28,12.58,15.51,12.87
							L416.45,271.97z"></path></g><g><path fill="#474E68" d="M381.77,281.34c-0.96,0-1.86-0.37-2.54-1.05c-0.69-0.69-1.07-1.6-1.06-2.58l0.18-28.6l0.52,0
							l-0.18,28.6c-0.01,0.83,0.32,1.61,0.91,2.2c0.58,0.58,1.35,0.9,2.17,0.9c0.01,0,0.02,0,0.03,0l2.39-0.02l0,0.52l-2.39,0.02
							C381.79,281.34,381.78,281.34,381.77,281.34z"></path></g><g><polygon fill="#474E68" points="383.89 297.23 383.37 297.21 383.92 281.05 384.74 253.8 385.27 253.82 384.45 281.06"></polygon></g></g><g><g><path fill="#E7A291" d="M401.28,153.85c0,0-3.6,18.48-12.55,21.67c-8.01,2.84-20.69-9.96-20.74-9.83
							c0.06-0.01,7.22-6.76,8.95-10.64c0-0.01,0.95-0.82,1.7-2.06c0.32-0.52,0.61-1.13,0.8-1.76c0.1-0.37,0.18-0.75,0.26-1.17
							c0.33-1.59,0.53-3.34,0.64-4.84c0.17-2.17,0.18-3.83,0.18-3.83l7.2-2.82l2.81-1.12l7.02-2.75l1.77-0.69l0.05,1.1l0.03,0.3
							l0.86,8.49L401.28,153.85z"></path><g><g><g><path fill="#E7A291" d="M372,130.61c1.29,9.68,4.22,19.54,13.55,18.97c6.52-0.4,13.53-8.74,15.67-16.79
										c1.1-4.15,2.11-7.77,2.34-10.54c0.19-2.19,0.21-3.58,0.21-3.58l-1.14-4.91l-0.67-2.88c0,0-1.91-1.86-4.05-3.95
										c-2.67-2.62-7.41,0.38-7.47,0.21c-0.09-0.26-12.84-3.25-17.38,1.55c-0.02,0.01-0.03,0.02-0.02,0.03
										c-0.41,0.44-0.74,0.89-0.97,1.36c-0.19,0.39-0.3,0.79-0.34,1.21c-0.07,0.8-0.15,1.99-0.24,3.51
										c-0.02,0.63-0.06,1.32-0.08,2.06c-0.04,1.24-0.06,2.6-0.05,4.03C371.37,123.9,371.55,127.27,372,130.61z"></path><path fill="#2E2943" d="M404,122.2c0,0,3.46-20.64-8.65-21.75c0,0-10.99-8.34-20.76-1.03c-4.69,3.51-4.74,12.64-4.32,15.58
										c0.27,1.84,0.85,3.4,1.1,3.33c0.69-0.21,0.92-2.01,3.3-1.23c9.64,3.17,18.35-4.12,20.96-2.26s5.34,19.11,5.34,19.11
										S402.06,126.3,404,122.2z"></path><path fill="#2E2943" d="M371.16,118.15c1.1,2.23,3.77,4.66,10.32,0.93c10.12-5.77,16.55-2.06,16.32-4.53
										s-6.5-3.91-13.99-3.2C376.31,112.05,370.11,116.02,371.16,118.15z"></path><g><path fill="#E7A291" d="M400.81,123.84c0,0,5.82-3.41,5.36,2.26c-0.45,5.68-5.96,7.89-5.96,7.89L400.81,123.84z"></path><path fill="#2E2943" d="M402.11,125.73c0,0,4.49-1.13-0.27,4.77L402.11,125.73z"></path></g><g><g><ellipse cx="376.42" cy="128.71" fill="#2E2943" rx="1.13" ry="1.41"></ellipse><g><path fill="#FFF" d="M379.95,140.14c0,0,0.09,0.26,0.32,0.6c0.26,0.37,0.7,0.82,1.4,1.1
													c0.39,0.16,0.87,0.26,1.45,0.26c1.42,0,2.3-0.64,2.8-1.2c0.05-0.05,0.1-0.11,0.13-0.16c0.3-0.37,0.42-0.67,0.42-0.67
													L379.95,140.14z"></path></g><path fill="#2E2943" d="M378.64,123.97c0,0-3.13-1.82-6.46,0.2L378.64,123.97z"></path></g><g><ellipse cx="388.69" cy="128.71" fill="#2E2943" rx="1.02" ry="1.41"></ellipse><path fill="#2E2943" d="M386.64,123.97c0,0,2.88-1.82,5.94,0.2L386.64,123.97z"></path></g><g><path fill="#2E2943" d="M381.93,136.24c-0.48-0.29-0.76-0.62-0.85-1.01c-0.13-0.58,0.2-1.11,0.51-1.58
												c0.13-0.21,0.25-0.4,0.31-0.56l0.46,0.17c-0.08,0.21-0.22,0.43-0.36,0.66c-0.26,0.41-0.53,0.83-0.44,1.21
												c0.06,0.25,0.26,0.47,0.63,0.7L381.93,136.24z"></path></g></g></g></g><g><path fill="#2E2943" d="M384.79,149.86c-1.21,0-2.34-0.18-3.38-0.54l0.16-0.47c1.2,0.41,2.52,0.58,3.96,0.49
									c3.21-0.2,6.84-2.46,9.97-6.21l0.38,0.32c-3.22,3.86-6.98,6.18-10.32,6.39C385.3,149.85,385.04,149.86,384.79,149.86z"></path></g></g></g></g><path fill="#F4EAE2" d="M400.7,149.2c0,0,21.54,6.13,27.63,10.56c0,0-9.6,27.82-9.78,44.8c-0.18,16.98,0.74,46.61,0.74,46.61
					s-22.24-9.37-37.93-12.51s-25.93,6-25.93,6s2.76-10.94,3.68-24.42c0.92-13.47,2.03-43.37,2.4-49.46
					c0.37-6.09,2.21-14.4,2.21-14.4l16.26-4.69c0,0,0.04,0.83,0.18,1.91c0.32,2.43,3.88,4.22,8.62,4.22
					C395.62,157.82,400.7,149.2,400.7,149.2z"></path><polygon fill="#9A634B" points="384.34 160.89 387.61 164.44 383.87 195.64 387.49 204.37 393.72 198.52 391.3 164.23 394.18 160.7 388.8 157.82"></polygon><polygon fill="#F4EAE2" points="380.22 148.97 375.76 152.94 383.36 161.86 388.8 157.82"></polygon><g><polygon fill="#2E2943" points="383.32 162.2 383.17 162.02 375.57 153.1 375.95 152.78 383.4 161.53 388.65 157.62 388.94 158.02"></polygon></g><polygon fill="#F4EAE2" points="388.8 157.82 400.57 147.58 406.08 150.85 394.58 161.93"></polygon><g><polygon fill="#2E2943" points="394.6 162.25 388.65 158.02 388.94 157.62 394.56 161.61 405.91 150.67 406.25 151.03"></polygon></g><path fill="#474E68" d="M406.08,150.85l-18.77,48.78l-5.39,44.41c0,0,24.16,13.94,40.33,7.34c3.5-1.43,0.19-47.11,0.19-47.11
					c-7.06,0.37-9.52-26.95,1.9-46.88L406.08,150.85z"></path><circle cx="390.24" cy="209.62" r="1.63" fill="#2E2943"></circle><circle cx="388.93" cy="222.21" r="1.63" fill="#2E2943"></circle><path fill="#474E68" d="M374.65,153.01l12.66,46.62l-5.39,44.41c0,0-24.87,7.15-27.13,3.53c-3.72-5.95,5.16-44.18,5.16-45.16
					c0-0.98,6.47-32.27,3.79-46.03L374.65,153.01z"></path><g><polygon fill="#2E2943" points="383.65 241.47 383.16 241.42 387.06 199.61 387.55 199.66"></polygon></g><path fill="#2E2943" d="M413.88,245.72c0,0-1.81,1.86-5.85-1.9c-4.04-3.76,8.08-6.55,8.08-6.55L413.88,245.72z"></path><path fill="#E7A291" d="M436.59,195.72c0,0,3.69,25.02-2.36,31.79c-10.87,12.17-27.32,18.12-27.32,18.12l-6.78-7.62l18.77-19.7
					l0.84-21.88l9.29-1.38L436.59,195.72z"></path><path fill="#F4EAE2" d="M438.02,197.82c0,0-0.86-12.29-2.38-23.08c-1.52-10.8-7.31-14.98-7.31-14.98L418.2,181.1l0.73,14.58
					l-0.87,22.63l-13.75,15.52c10.59-2.32,9.57,11.89,9.57,11.89s18.77-12.27,22.11-19.33
					C439.34,219.33,438.02,197.82,438.02,197.82z"></path><g><path fill="#E7A291" d="M399.2,235.73c0,0-5.46-0.47-7.57-0.11c-2.11,0.36-6.62,3.54-7.42,4.14s0.91,3.28,0.91,3.28l11.07-3.71
						L399.2,235.73z"></path><rect width="26.57" height="35.02" x="364.77" y="223.82" fill="#F4EAE2" transform="rotate(153.32 378.061 241.336)"></rect><rect width="27.85" height="35.89" x="366.15" y="225.09" fill="#FFF" transform="rotate(162.746 380.084 243.03)"></rect><g><g><path fill="#E7A291" d="M403.23,236.16l5.08,8.74c-0.06-0.01-2.23,1.89-2.28,1.88c-1.23,1.37-2.97,2.61-4.32,3.64
								c-1.37,1.03-2.89,2.51-6.11,2.92c-3.22,0.41-3.7-1.79-3.7-1.79c-2.68,0.02-2.91-2.68-2.91-2.68c-2.35,0.44-4.1-2.27-4.1-2.27
								c-4.78,1.67-3.78-1.83-2.97-2.55c0.82-0.71,4.9-3.64,6.39-4.34c1.5-0.71,4.84-2.81,6.8-3.14c2.56-0.43,2.35-1,5.01-0.82
								C401.46,235.84,402.74,235.99,403.23,236.16z"></path><g><path fill="#2E2943" d="M385.01,246.82l-0.24-0.43c0.02-0.01,2.46-1.34,5.59-2.81c3.1-1.46,5.35-3.12,5.38-3.13l0.3,0.4
									c-0.02,0.02-2.32,1.71-5.46,3.19C387.45,245.49,385.03,246.81,385.01,246.82z"></path></g><g><path fill="#2E2943" d="M389.05,249.12l-0.12-0.48c0.04-0.01,3.91-1.03,7.83-3.15l0.24,0.43
									C393.02,248.07,389.09,249.11,389.05,249.12z"></path></g><g><path fill="#2E2943" d="M391.93,251.8l-0.07-0.49c0.04-0.01,4.04-0.57,6.89-1.94l0.22,0.45
									C396.05,251.22,392.1,251.77,391.93,251.8z"></path></g></g></g></g></g></g><g><path fill="#2E2943" d="M346.81,207.77l-0.48-0.1c2.74-12.49,0.3-26.39,0.28-26.52l0.49-0.09
				C347.11,181.19,349.57,195.19,346.81,207.77z"></path></g><g><path fill="#2E2943" d="M418.25,218.48l-0.36-0.34c0.17-0.19,4.02-4.31,8.1-4.31c0.25,0,0.5,0.02,0.75,0.05l-0.06,0.49
				C422.59,213.83,418.29,218.43,418.25,218.48z"></path></g></g><g><path fill="#2E2943" d="M390.43,200.62l-0.45-0.22c8.69-17.78,18.49-46.88,18.59-47.17l0.47,0.16
			C408.94,153.68,399.13,182.81,390.43,200.62z"></path></g><g><path fill="#2E2943" d="M383.77,199.59c-3.96-12.27-11.33-44.1-11.41-44.42l0.48-0.11c0.07,0.32,7.44,32.13,11.4,44.38
			L383.77,199.59z"></path></g><g><path fill="#2E2943" d="M270.9,195.31c0,0,0.7,25.2,0.3,34.4c0,0,20.6,1.6,25-0.4c0,0,2-28.6,0.4-32.6L270.9,195.31z"></path><path fill="#FFF" d="M274.1,192.91c0,0,0.7,25.2,0.3,34.4c0,0,20.6,1.6,25-0.4c0,0,2-28.6,0.4-32.6L274.1,192.91z"></path><rect width="4.2" height="8.85" x="285.8" y="188.46" fill="#9A634B" transform="rotate(25.568 287.908 192.896)"></rect><g><polygon fill="#474E68" points="282.13 202.44 282.12 201.9 293.97 201.76 293.98 202.29"></polygon></g><g><polygon fill="#474E68" points="281.9 207.84 281.9 207.3 293.75 207.16 293.76 207.69"></polygon></g><g><polygon fill="#474E68" points="281.31 216.84 281.3 216.3 293.15 216.16 293.16 216.69"></polygon></g></g><g opacity=".5"><g><g><path fill="#F4EAE2" d="M147.48,154.48c-0.01,0-0.02,0-0.03,0l-26.99-1.54c-0.28-0.02-0.5-0.25-0.5-0.53l-0.05-9.12
					c-2.42,0.24-10.41,0.82-12.56-1.92c-2.09-2.67-2.61-10.4-2.72-12.42l-5.08-0.39c-0.17-0.01-0.33-0.11-0.42-0.26
					c-0.09-0.15-0.1-0.33-0.03-0.49l4.82-10.92c-0.06-1.41-0.33-12.52,6.91-19.44c4.48-4.28,10.89-6,19.05-5.11
					c20.87,2.28,30.56,13.22,29.62,33.43c-0.4,8.61-9.78,14.01-11.63,15l0.13,13.16c0,0.15-0.06,0.29-0.16,0.39
					C147.75,154.42,147.62,154.48,147.48,154.48z M121.02,151.9l25.93,1.48l-0.13-12.92c0-0.21,0.11-0.39,0.29-0.48
					c0.11-0.05,10.93-5.53,11.34-14.25c0.92-19.54-8.46-30.12-28.67-32.33c-7.83-0.85-13.95,0.76-18.2,4.81
					c-7.22,6.89-6.59,18.62-6.58,18.74c0,0.09-0.01,0.17-0.05,0.25l-4.57,10.35l4.8,0.37c0.27,0.02,0.48,0.24,0.49,0.51
					c0,0.1,0.37,9.54,2.52,12.28c1.71,2.19,9.37,1.8,12.18,1.46c0.17-0.01,0.3,0.03,0.42,0.13c0.11,0.1,0.18,0.24,0.18,0.4
					L121.02,151.9z"></path></g><g><path fill="#F4EAE2" d="M128.44,121.9c-0.01,0-0.03,0-0.05,0l-4.5-0.38c-0.27-0.02-0.48-0.25-0.49-0.53l-0.01-1.45
					c-0.75-0.26-1.47-0.58-2.15-0.97l-1.19,0.92c-0.21,0.16-0.5,0.15-0.69-0.03l-3.24-3.04c-0.11-0.11-0.17-0.26-0.17-0.42
					c0.01-0.16,0.08-0.3,0.21-0.39l1.14-0.88c-0.35-0.6-0.62-1.21-0.82-1.83l-1.75-0.16c-0.27-0.02-0.48-0.25-0.48-0.53l-0.02-3.91
					c0-0.15,0.06-0.29,0.17-0.39c0.11-0.1,0.26-0.15,0.41-0.14l1.74,0.17c0.21-0.56,0.48-1.09,0.82-1.58l-1.15-1.09
					c-0.11-0.11-0.17-0.26-0.17-0.42c0.01-0.16,0.09-0.3,0.21-0.39l3.21-2.43c0.21-0.16,0.5-0.14,0.69,0.04l1.28,1.21
					c0.66-0.24,1.35-0.42,2.06-0.52l-0.01-1.31c0-0.15,0.06-0.29,0.17-0.39c0.11-0.1,0.26-0.15,0.41-0.14l4.48,0.45
					c0.27,0.03,0.48,0.26,0.48,0.53l0.01,1.44c0.74,0.26,1.45,0.59,2.11,0.99l1.15-0.88c0.21-0.16,0.5-0.15,0.69,0.04l3.15,3.02
					c0.11,0.11,0.17,0.26,0.16,0.41c-0.01,0.16-0.08,0.3-0.21,0.39l-1.09,0.85c0.34,0.58,0.61,1.18,0.8,1.79l1.67,0.16
					c0.27,0.03,0.48,0.25,0.48,0.53l0.03,3.83c0,0.15-0.06,0.29-0.17,0.39c-0.11,0.1-0.25,0.16-0.41,0.14l-1.66-0.15
					c-0.2,0.55-0.46,1.07-0.79,1.56l1.12,1.06c0.11,0.11,0.17,0.26,0.17,0.41c-0.01,0.15-0.08,0.3-0.2,0.39l-3.12,2.45
					c-0.2,0.16-0.5,0.15-0.69-0.03L131,119.5c-0.65,0.25-1.33,0.43-2.04,0.55l0.01,1.32c0,0.15-0.06,0.29-0.17,0.39
					C128.7,121.85,128.57,121.9,128.44,121.9z M124.46,120.5l3.44,0.29l-0.01-1.2c0-0.27,0.2-0.5,0.47-0.53
					c0.9-0.1,1.76-0.32,2.54-0.66c0.2-0.08,0.42-0.04,0.58,0.1l1.17,1.1l2.27-1.79l-1.01-0.96c-0.2-0.19-0.22-0.5-0.05-0.71
					c0.47-0.61,0.82-1.28,1.03-2.02c0.07-0.24,0.33-0.4,0.56-0.38l1.5,0.14l-0.02-2.77l-1.56-0.15c-0.22-0.02-0.41-0.18-0.46-0.39
					c-0.2-0.77-0.54-1.53-1.02-2.26c-0.15-0.23-0.1-0.54,0.12-0.71l0.98-0.76l-2.38-2.28l-1.08,0.83c-0.18,0.13-0.43,0.15-0.61,0.03
					c-0.78-0.5-1.64-0.9-2.55-1.19c-0.22-0.07-0.37-0.27-0.37-0.5l-0.01-1.34l-3.42-0.35l0.01,1.19c0,0.27-0.21,0.5-0.48,0.53
					c-0.9,0.09-1.76,0.3-2.57,0.63c-0.19,0.08-0.42,0.04-0.57-0.11l-1.19-1.14l-2.35,1.78l1.04,0.98c0.2,0.19,0.22,0.5,0.05,0.72
					c-0.49,0.61-0.84,1.3-1.06,2.03c-0.07,0.24-0.33,0.4-0.56,0.38l-1.58-0.15l0.01,2.83l1.64,0.15c0.22,0.02,0.41,0.18,0.47,0.4
					c0.2,0.78,0.55,1.55,1.04,2.29c0.15,0.23,0.1,0.54-0.12,0.71l-1.03,0.79l2.45,2.31l1.12-0.87c0.18-0.14,0.42-0.15,0.61-0.03
					c0.8,0.5,1.67,0.89,2.58,1.17c0.22,0.07,0.38,0.27,0.38,0.51L124.46,120.5z M126.8,116.52c-2.22,0-4.13-1.1-5.23-2.45
					c-1.37-1.69-1.56-3.76-0.51-5.56c0.51-0.88,1.37-1.54,2.44-1.88c3.09-0.97,5.92,0.37,7.34,2.13c1.35,1.67,1.55,3.73,0.54,5.51
					c-0.5,0.88-1.35,1.55-2.4,1.89l0,0C128.24,116.41,127.5,116.52,126.8,116.52z M125.6,107.37c-0.57,0-1.17,0.09-1.78,0.27
					c-0.81,0.26-1.46,0.75-1.84,1.4c-0.83,1.42-0.67,3.01,0.42,4.36c1.21,1.5,3.62,2.62,6.25,1.76c0,0,0,0,0,0
					c0.8-0.26,1.44-0.76,1.8-1.4c0.8-1.4,0.64-2.98-0.44-4.32C129.1,108.3,127.49,107.37,125.6,107.37z"></path></g><g><path fill="#F4EAE2" d="M146.06,130.73c-0.01,0-0.03,0-0.04,0l-2.86-0.22c-0.27-0.02-0.49-0.25-0.49-0.52l-0.01-0.81
					c-0.4-0.14-0.78-0.32-1.15-0.52l-0.65,0.52c-0.21,0.16-0.51,0.15-0.7-0.03l-2.05-1.94c-0.11-0.11-0.17-0.26-0.17-0.41
					c0.01-0.15,0.08-0.3,0.2-0.39l0.6-0.48c-0.17-0.31-0.31-0.63-0.42-0.95l-0.97-0.08c-0.27-0.02-0.49-0.25-0.49-0.53l-0.02-2.52
					c0-0.15,0.06-0.29,0.17-0.39c0.11-0.1,0.24-0.15,0.41-0.14l0.95,0.08c0.11-0.28,0.24-0.55,0.4-0.8l-0.62-0.59
					c-0.11-0.11-0.17-0.26-0.17-0.41c0.01-0.15,0.08-0.3,0.2-0.39l2.02-1.6c0.21-0.17,0.5-0.15,0.7,0.03l0.72,0.68
					c0.34-0.13,0.7-0.22,1.07-0.29l-0.01-0.69c0-0.15,0.06-0.29,0.17-0.39c0.11-0.1,0.26-0.16,0.41-0.14l2.85,0.25
					c0.27,0.02,0.48,0.25,0.48,0.52l0.01,0.8c0.39,0.14,0.77,0.32,1.13,0.52l0.63-0.5c0.21-0.17,0.51-0.15,0.7,0.03l2.02,1.93
					c0.11,0.11,0.17,0.26,0.16,0.41c-0.01,0.15-0.08,0.3-0.2,0.39l-0.57,0.46c0.17,0.31,0.3,0.62,0.41,0.94l0.94,0.08
					c0.27,0.02,0.48,0.25,0.49,0.52l0.03,2.49c0,0.15-0.06,0.29-0.17,0.39c-0.11,0.1-0.24,0.17-0.4,0.14l-0.92-0.07
					c-0.11,0.27-0.24,0.54-0.39,0.79l0.61,0.58c0.11,0.11,0.17,0.25,0.16,0.41c-0.01,0.15-0.08,0.29-0.2,0.39l-1.98,1.6
					c-0.21,0.17-0.5,0.16-0.7-0.03l-0.71-0.67c-0.34,0.13-0.69,0.23-1.06,0.3l0.01,0.7c0,0.15-0.06,0.29-0.17,0.39
					C146.33,130.68,146.2,130.73,146.06,130.73z M143.73,129.49l1.8,0.14l-0.01-0.58c0-0.27,0.2-0.5,0.47-0.53
					c0.55-0.06,1.07-0.21,1.56-0.43c0.2-0.09,0.43-0.05,0.58,0.1l0.62,0.59l1.15-0.93l-0.5-0.47c-0.2-0.19-0.22-0.49-0.06-0.7
					c0.29-0.38,0.5-0.8,0.63-1.26c0.07-0.24,0.3-0.42,0.55-0.38l0.75,0.06l-0.01-1.42l-0.82-0.07c-0.22-0.02-0.41-0.18-0.47-0.39
					c-0.12-0.48-0.34-0.95-0.63-1.4c-0.15-0.23-0.1-0.53,0.11-0.7l0.46-0.37l-1.24-1.19l-0.55,0.44c-0.18,0.14-0.42,0.16-0.62,0.03
					c-0.49-0.31-1.02-0.56-1.58-0.73c-0.22-0.07-0.37-0.27-0.37-0.5l-0.01-0.7l-1.79-0.16l0,0.57c0,0.27-0.2,0.5-0.47,0.53
					c-0.55,0.06-1.07,0.2-1.57,0.41c-0.2,0.09-0.42,0.05-0.58-0.1l-0.63-0.6l-1.18,0.93l0.5,0.48c0.2,0.19,0.22,0.49,0.06,0.71
					c-0.29,0.38-0.5,0.81-0.64,1.26c-0.07,0.24-0.26,0.41-0.56,0.38l-0.78-0.07l0.01,1.45l0.85,0.07c0.23,0.02,0.42,0.18,0.47,0.4
					c0.12,0.48,0.34,0.96,0.64,1.42c0.15,0.23,0.1,0.53-0.11,0.7l-0.48,0.38l1.27,1.21l0.57-0.46c0.17-0.14,0.42-0.15,0.61-0.04
					c0.49,0.31,1.02,0.55,1.59,0.72c0.22,0.07,0.38,0.27,0.38,0.5L143.73,129.49z M144.98,127.26c-1.43,0-2.67-0.7-3.4-1.57
					c-0.96-1.15-1.11-2.59-0.4-3.85c0.34-0.62,0.93-1.08,1.65-1.32c1.75-0.58,3.7-0.05,4.84,1.33c0.95,1.14,1.1,2.57,0.41,3.82
					c-0.34,0.61-0.92,1.08-1.63,1.32C145.96,127.18,145.46,127.26,144.98,127.26z M144.28,121.35c-0.36,0-0.73,0.06-1.11,0.18
					c-0.47,0.15-0.84,0.45-1.06,0.83c-0.49,0.87-0.38,1.83,0.29,2.64c0.73,0.88,2.16,1.52,3.71,0.99h0
					c0.46-0.16,0.83-0.45,1.04-0.83c0.48-0.87,0.37-1.82-0.3-2.63C146.31,121.89,145.37,121.35,144.28,121.35z"></path></g></g><g><g><g><polygon fill="#F4EAE2" points="237.02 155.25 191.6 152.18 191.59 151.54 236.36 154.59 235.57 122.87 236.22 122.94"></polygon></g></g><g><g><path fill="#F4EAE2" d="M226.53,154.31c-0.18-0.65-0.28-1.33-0.29-2.02c-0.11-4.88,3.99-8.52,9.1-8.12
						c0.38,0.03,0.75,0.08,1.14,0.16l-0.07,0.6c-0.36-0.08-0.7-0.12-1.05-0.15c-4.75-0.37-8.56,3.02-8.45,7.55
						c0.01,0.64,0.11,1.27,0.27,1.87L226.53,154.31z"></path></g></g><g><g><polygon fill="#F4EAE2" points="195.95 152.4 195.51 151.87 235.77 125.73 236.17 126.24"></polygon></g></g><g><g><polygon fill="#F4EAE2" points="194.98 142.48 194.57 141.93 238.23 115.92 238.62 116.44"></polygon></g></g><g><g><polygon fill="#F4EAE2" points="198.77 143.36 193.57 142.67 194.75 137.66 195.43 137.86 194.42 142.15 198.8 142.73"></polygon></g></g><g><g><path fill="#F4EAE2" d="M211.91,127.75c-0.16-0.02-0.28-0.07-0.37-0.17c-0.09-0.09-0.13-0.24-0.13-0.43
						c0-0.09,0.02-0.21,0.05-0.35c0.03-0.14,0.08-0.28,0.13-0.42c0.05-0.14,0.12-0.25,0.19-0.34c0.13-0.16,0.31-0.27,0.55-0.33
						c0.24-0.06,0.52-0.04,0.84,0.07c0.06,0.02,0.09,0.04,0.11,0.07c0.02,0.03,0.03,0.06,0.03,0.11c0,0.03-0.01,0.06-0.04,0.09
						c-0.03,0.03-0.06,0.04-0.1,0.03c-0.3-0.1-0.53-0.13-0.7-0.09c-0.17,0.04-0.31,0.13-0.43,0.27c-0.04,0.05-0.09,0.12-0.12,0.2
						c-0.03,0.09-0.07,0.17-0.09,0.26c-0.03,0.09-0.05,0.17-0.06,0.25c-0.02,0.07-0.02,0.13-0.02,0.16c0,0.1,0.02,0.18,0.05,0.23
						c0.03,0.05,0.09,0.08,0.16,0.09c0.09,0.01,0.17,0,0.26-0.04c0.08-0.04,0.17-0.08,0.24-0.14c0.08-0.06,0.15-0.12,0.2-0.19
						c0.06-0.06,0.1-0.12,0.13-0.16c0.02-0.03,0.05-0.06,0.08-0.08c0.04-0.02,0.08-0.01,0.13,0.01c0.04,0.02,0.06,0.05,0.08,0.08
						c0.02,0.04,0.02,0.08,0,0.11c-0.06,0.12-0.16,0.24-0.28,0.35c-0.12,0.12-0.26,0.21-0.42,0.28
						C212.22,127.74,212.07,127.77,211.91,127.75z"></path></g></g><g><g><path fill="#F4EAE2" d="M238.79,138.36c-0.1-0.01-0.18-0.06-0.24-0.14c-0.06-0.08-0.09-0.2-0.09-0.35
						c0-0.12,0.02-0.25,0.06-0.4c0.04-0.15,0.08-0.29,0.14-0.43c0.06-0.14,0.12-0.25,0.19-0.34c0.12-0.16,0.26-0.26,0.44-0.3
						c0.17-0.04,0.35-0.05,0.52-0.04l0.55,0.06l0,0.3l-0.55-0.06c-0.11-0.01-0.23-0.01-0.37,0.02c-0.14,0.02-0.25,0.1-0.35,0.23
						c-0.05,0.07-0.1,0.17-0.15,0.29c-0.05,0.12-0.09,0.24-0.12,0.37c-0.03,0.12-0.04,0.22-0.04,0.3c0,0.05,0,0.09,0.01,0.13
						c0.01,0.04,0.03,0.06,0.07,0.06c0.06,0.01,0.15-0.03,0.27-0.11c0.12-0.08,0.27-0.23,0.46-0.44c0.13-0.14,0.25-0.28,0.35-0.41
						c0.1-0.13,0.2-0.26,0.28-0.39l0.19,0.02c-0.04,0.12-0.09,0.25-0.15,0.37c-0.07,0.12-0.13,0.24-0.21,0.34
						c-0.07,0.1-0.14,0.19-0.2,0.25c-0.12,0.14-0.24,0.26-0.36,0.36c-0.12,0.1-0.23,0.18-0.35,0.24
						C239.03,138.36,238.91,138.38,238.79,138.36z M240.1,138.48c-0.07-0.01-0.11-0.03-0.13-0.06c-0.01-0.03-0.02-0.06-0.02-0.09
						l0.26-1.16l0-0.75l0.22,0.02c0.07,0.01,0.12,0.03,0.15,0.06c0.03,0.04,0.04,0.09,0.02,0.16l-0.32,1.7
						c0,0.01-0.01,0.04-0.03,0.07C240.23,138.47,240.19,138.49,240.1,138.48z"></path></g></g><g><g><path fill="#F4EAE2" d="M213.37,159.05c-0.04,0-0.06-0.02-0.08-0.05c-0.02-0.03-0.02-0.06-0.02-0.09l0.72-3.61
						c0.02-0.06,0.04-0.1,0.08-0.13c0.04-0.02,0.08-0.03,0.13-0.03c0.04,0,0.07,0.02,0.1,0.05c0.03,0.03,0.03,0.08,0.02,0.13
						l-0.63,3.15l0,0.59L213.37,159.05z M214.17,159.12l-0.62-0.05l0-0.28l0.62,0.05c0.2,0.02,0.37-0.01,0.51-0.09
						c0.13-0.07,0.24-0.18,0.32-0.31c0.08-0.13,0.14-0.27,0.17-0.43c0.03-0.15,0.05-0.3,0.05-0.44c0-0.07-0.01-0.12-0.02-0.16
						c-0.01-0.04-0.05-0.06-0.11-0.07c-0.04,0-0.11,0.02-0.19,0.08c-0.08,0.06-0.18,0.14-0.29,0.24c-0.11,0.1-0.22,0.21-0.33,0.34
						c-0.12,0.13-0.23,0.26-0.33,0.4c-0.1,0.14-0.2,0.27-0.28,0.4l-0.13-0.01l0-0.24c0.07-0.12,0.15-0.25,0.25-0.39
						c0.1-0.14,0.2-0.28,0.31-0.41c0.11-0.13,0.23-0.26,0.35-0.36c0.12-0.11,0.24-0.19,0.36-0.25c0.12-0.06,0.23-0.09,0.35-0.08
						c0.12,0.01,0.21,0.06,0.28,0.14c0.07,0.08,0.1,0.21,0.1,0.36c0,0.19-0.03,0.38-0.07,0.58c-0.05,0.19-0.12,0.37-0.23,0.53
						c-0.11,0.16-0.25,0.28-0.42,0.37C214.65,159.11,214.43,159.14,214.17,159.12z"></path></g></g></g><g><path fill="#F4EAE2" d="M116.26 185.52c.03.02.06.05.09.07s.06.05.09.08c.11-.11.25-.16.44-.16.09 0 .18.01.26.04.08.03.16.06.23.11.07.05.12.11.16.17.04.07.05.15.04.24v.03c0 .01 0 .01-.01.03l-.62 4.81c-.02.17-.1.31-.24.42-.13.1-.29.15-.46.12-.17-.02-.31-.1-.41-.23-.11-.14-.15-.29-.13-.46l.01-.05c-.23.27-.48.49-.76.65-.28.17-.58.26-.92.27-.32 0-.62-.05-.91-.16-.28-.11-.54-.3-.77-.58-.16-.21-.29-.46-.4-.75-.11-.29-.17-.63-.18-1.03-.01-.14-.01-.28 0-.43.01-.15.02-.31.04-.49h.01c.04-.32.11-.63.22-.92.11-.29.25-.55.42-.79.17-.24.36-.45.58-.64.22-.18.44-.34.68-.46.18-.1.38-.18.6-.23.21-.05.42-.07.63-.07.29.02.54.06.75.14C115.91 185.31 116.1 185.4 116.26 185.52zM116 187.3c-.11-.05-.2-.13-.27-.24-.06-.11-.09-.23-.08-.37 0-.05-.04-.11-.13-.17-.07-.05-.16-.1-.27-.13s-.21-.05-.31-.05c-.12 0-.23.02-.34.05-.11.03-.22.07-.33.12-.3.16-.57.39-.8.7-.23.31-.37.68-.42 1.11-.02.27-.03.51-.03.73.02.48.12.82.31 1.04.08.11.18.19.29.22.11.04.23.05.35.05.25-.01.48-.12.69-.31.21-.2.4-.45.56-.75.17-.3.32-.63.44-.99C115.8 187.97 115.91 187.63 116 187.3zM119.81 184.63c0 .1-.03.19-.1.27-.07.08-.16.12-.26.12-.1 0-.19-.03-.26-.1-.07-.07-.11-.15-.11-.26.01-.25.05-.47.14-.64.09-.17.22-.32.38-.43.29-.21.68-.32 1.18-.33.3 0 .55.04.73.12.19.08.34.2.45.34.1.12.18.26.23.41.05.15.08.31.08.48 0 .2-.03.39-.1.56-.07.18-.16.36-.29.55-.09.12-.19.25-.3.38-.11.13-.23.25-.35.37-.12.12-.25.24-.38.35-.13.11-.26.22-.38.33-.1.09-.2.17-.28.25-.09.08-.17.15-.25.22.18-.01.35-.01.51-.01.19 0 .37 0 .53.01.16.01.31.02.43.03.14.01.27.03.4.04.1.01.18.06.24.13.06.08.09.17.07.27-.01.1-.06.18-.14.24-.08.06-.17.09-.27.07-.13-.01-.25-.03-.37-.04-.11-.01-.24-.02-.4-.02-.15-.01-.32-.01-.49-.01-.2 0-.4.01-.61.02-.21.01-.42.04-.63.07-.07.01-.13 0-.19-.02-.06-.02-.11-.06-.15-.11-.04-.05-.06-.1-.08-.17s-.01-.12.01-.19c.04-.12.1-.24.17-.34.07-.11.16-.22.26-.32.1-.11.21-.22.34-.33.12-.11.26-.23.4-.35.1-.09.21-.18.32-.28.12-.11.24-.21.35-.33.12-.11.23-.23.34-.34.11-.11.2-.22.27-.33.09-.13.15-.25.2-.36.04-.11.06-.23.06-.35 0-.17-.05-.31-.15-.43-.05-.06-.12-.11-.2-.15s-.22-.05-.39-.05c-.35.01-.61.08-.79.2-.07.05-.12.11-.16.19C119.83 184.46 119.81 184.55 119.81 184.63zM125.25 189.14h-1.45c-.17.01-.32-.05-.45-.17-.12-.12-.18-.27-.18-.44-.01-.17.05-.32.17-.44.12-.12.27-.19.44-.19h1.6l.21-1.91c.02-.17.1-.32.23-.43.13-.11.29-.15.46-.13.17.02.31.09.42.23s.15.29.13.46l-.21 1.77h1.46c.17-.01.32.05.44.17s.19.27.19.44c0 .17-.06.32-.18.44-.12.12-.26.19-.44.19h-1.61l-.22 1.91c-.02.17-.09.31-.23.42-.13.11-.29.15-.46.13-.17-.02-.31-.09-.42-.23-.11-.13-.15-.29-.13-.46L125.25 189.14zM130.89 183.35c.02-.17.09-.31.22-.42.13-.11.28-.16.46-.14.17.02.32.09.43.23.11.13.16.29.14.46l-.23 2.17c.17-.12.36-.22.57-.29.21-.07.43-.1.68-.1.4 0 .76.07 1.06.22.3.15.55.34.75.6.2.25.35.54.45.87s.15.68.15 1.05c0 .45-.06.87-.19 1.26-.13.39-.3.73-.53 1.03-.22.3-.48.55-.78.76-.3.2-.62.35-.96.43-.25.07-.49.1-.73.1-.18 0-.37-.02-.55-.06-.18-.04-.35-.11-.51-.2-.03-.02-.06-.04-.09-.05-.03-.02-.06-.04-.09-.06-.11.08-.25.12-.42.12-.16 0-.31-.04-.44-.13-.13-.08-.2-.21-.19-.38.01-.21.01-.4.03-.58.01-.18.03-.38.06-.62.03-.23.06-.49.11-.76L130.89 183.35zM131.5 189.44c.14.05.24.15.32.28.07.13.1.28.07.43 0 .01.02.03.05.06.06.03.13.05.2.07s.15.02.24.02c.08 0 .15-.01.23-.02.08-.01.15-.02.21-.04.22-.05.42-.15.6-.28.18-.13.34-.3.47-.5.13-.2.23-.42.31-.67.07-.25.11-.52.11-.81 0-.2-.02-.39-.06-.56-.04-.18-.1-.34-.19-.47-.09-.13-.21-.24-.36-.32-.15-.08-.33-.12-.55-.12-.23 0-.43.07-.6.2-.17.13-.32.3-.45.51-.13.21-.24.45-.32.72-.09.27-.16.54-.21.82L131.5 189.44zM137.82 184.63c0 .1-.03.19-.1.27-.07.08-.16.12-.26.12-.1 0-.19-.03-.26-.1-.07-.07-.11-.15-.11-.26.01-.25.05-.47.14-.64s.22-.32.38-.43c.29-.21.68-.32 1.18-.33.3 0 .55.04.73.12s.34.2.45.34c.1.12.18.26.23.41.05.15.08.31.08.48 0 .2-.03.39-.1.56-.07.18-.16.36-.29.55-.09.12-.19.25-.3.38-.11.13-.23.25-.35.37-.12.12-.25.24-.38.35-.13.11-.26.22-.38.33-.1.09-.2.17-.28.25-.09.08-.17.15-.25.22.18-.01.35-.01.51-.01.19 0 .37 0 .53.01.16.01.31.02.43.03.14.01.27.03.4.04.1.01.18.06.24.13.06.08.09.17.07.27-.01.1-.06.18-.14.24-.08.06-.17.09-.27.07-.13-.01-.25-.03-.37-.04-.11-.01-.24-.02-.4-.02s-.32-.01-.49-.01c-.2 0-.4.01-.61.02s-.42.04-.63.07c-.07.01-.13 0-.19-.02-.06-.02-.11-.06-.15-.11-.04-.05-.06-.1-.08-.17s-.01-.12.01-.19c.04-.12.1-.24.17-.34.07-.11.16-.22.26-.32.1-.11.21-.22.34-.33.12-.11.26-.23.4-.35.1-.09.21-.18.32-.28.12-.11.24-.21.35-.33.12-.11.23-.23.34-.34.11-.11.2-.22.27-.33.09-.13.15-.25.2-.36.04-.11.06-.23.06-.35 0-.17-.05-.31-.15-.43-.05-.06-.12-.11-.2-.15S139 184 138.82 184c-.35.01-.61.08-.79.2-.07.05-.12.11-.16.19C137.84 184.46 137.82 184.55 137.82 184.63zM141.8 188.06c-.17.01-.32-.05-.45-.17-.12-.12-.18-.27-.18-.44-.01-.17.05-.32.17-.44s.27-.19.44-.19l3.59-.02c.17-.01.32.05.44.17.12.12.19.27.19.44 0 .17-.06.32-.18.44-.12.12-.27.19-.44.19L141.8 188.06zM141.8 189.78c-.17 0-.32-.05-.45-.18-.12-.12-.18-.27-.18-.44-.01-.17.05-.32.17-.44.12-.12.27-.18.44-.19l3.59-.02c.17-.01.32.05.44.17.12.12.19.27.19.44 0 .17-.06.32-.18.44-.12.12-.27.19-.44.19L141.8 189.78zM150.31 181.72c.18 0 .34.06.46.2.11.11.16.25.16.42 0 .18-.07.33-.2.46-.17.18-.33.35-.46.53-.14.17-.29.38-.45.62-.16.25-.32.53-.48.85-.15.32-.29.67-.42 1.06-.13.39-.22.81-.27 1.26-.01.12-.02.24-.03.35s-.01.23-.01.34c0 .37.03.72.09 1.04.06.33.14.62.24.89.1.27.2.51.31.72.11.21.22.38.31.53s.21.29.34.45c.11.13.16.27.16.43 0 .18-.07.33-.2.46-.13.11-.27.16-.43.16-.18 0-.33-.07-.46-.2-.16-.19-.3-.38-.43-.56-.12-.18-.25-.4-.39-.66-.14-.26-.27-.55-.39-.89-.12-.33-.22-.7-.3-1.1-.08-.4-.12-.83-.12-1.28 0-.27.02-.55.05-.84.06-.53.17-1.02.32-1.47.15-.46.31-.87.49-1.25.18-.38.37-.71.57-1 .2-.29.38-.54.54-.74.16-.2.34-.41.55-.62C150 181.77 150.14 181.72 150.31 181.72zM156.78 185.52c.03.02.06.05.09.07s.06.05.09.08c.11-.11.25-.16.44-.16.09 0 .18.01.26.04.08.03.16.06.23.11.07.05.12.11.16.17.04.07.05.15.04.24v.03c0 .01 0 .01-.01.03l-.62 4.81c-.02.17-.1.31-.24.42-.13.1-.29.15-.46.12-.17-.02-.31-.1-.41-.23-.11-.14-.15-.29-.13-.46l.01-.05c-.23.27-.48.49-.76.65-.28.17-.58.26-.92.27-.32 0-.62-.05-.91-.16-.28-.11-.54-.3-.77-.58-.16-.21-.29-.46-.4-.75-.11-.29-.17-.63-.18-1.03-.01-.14-.01-.28 0-.43.01-.15.02-.31.04-.49h.01c.04-.32.11-.63.22-.92.11-.29.25-.55.42-.79.17-.24.36-.45.58-.64.22-.18.44-.34.68-.46.18-.1.38-.18.6-.23.21-.05.42-.07.63-.07.29.02.54.06.75.14C156.43 185.31 156.62 185.4 156.78 185.52zM156.52 187.3c-.11-.05-.2-.13-.27-.24-.06-.11-.09-.23-.08-.37 0-.05-.04-.11-.13-.17-.07-.05-.16-.1-.27-.13-.11-.03-.21-.05-.31-.05-.12 0-.23.02-.34.05-.11.03-.22.07-.33.12-.3.16-.57.39-.8.7-.23.31-.37.68-.42 1.11-.02.27-.03.51-.03.73.02.48.12.82.31 1.04.08.11.18.19.29.22.11.04.23.05.35.05.25-.01.48-.12.69-.31.21-.2.4-.45.56-.75.17-.3.32-.63.44-.99C156.32 187.97 156.43 187.63 156.52 187.3zM161.51 189.14h-1.45c-.17.01-.32-.05-.45-.17-.12-.12-.18-.27-.18-.44-.01-.17.05-.32.17-.44s.27-.19.44-.19h1.6l.21-1.91c.02-.17.1-.32.23-.43.13-.11.29-.15.46-.13.17.02.31.09.42.23s.15.29.13.46l-.21 1.77h1.46c.17-.01.32.05.44.17s.19.27.19.44c0 .17-.06.32-.18.44-.12.12-.26.19-.44.19h-1.61l-.22 1.91c-.02.17-.09.31-.23.42-.13.11-.29.15-.46.13-.17-.02-.31-.09-.42-.23-.11-.13-.15-.29-.13-.46L161.51 189.14zM167.15 183.35c.02-.17.09-.31.22-.42.13-.11.28-.16.46-.14.17.02.32.09.43.23.11.13.16.29.14.46l-.23 2.17c.17-.12.36-.22.57-.29.21-.07.43-.1.68-.1.4 0 .76.07 1.06.22.3.15.55.34.75.6.2.25.35.54.45.87.1.33.15.68.15 1.05 0 .45-.06.87-.19 1.26-.13.39-.3.73-.53 1.03-.22.3-.48.55-.78.76-.3.2-.62.35-.96.43-.25.07-.49.1-.73.1-.18 0-.37-.02-.55-.06-.18-.04-.35-.11-.51-.2-.03-.02-.06-.04-.09-.05-.03-.02-.06-.04-.09-.06-.11.08-.25.12-.42.12-.16 0-.31-.04-.44-.13-.13-.08-.2-.21-.19-.38.01-.21.01-.4.03-.58.01-.18.03-.38.06-.62.03-.23.06-.49.11-.76L167.15 183.35zM167.76 189.44c.14.05.24.15.32.28.07.13.1.28.07.43 0 .01.02.03.05.06.06.03.13.05.2.07s.15.02.24.02c.08 0 .15-.01.23-.02.08-.01.15-.02.21-.04.22-.05.42-.15.6-.28.18-.13.34-.3.47-.5.13-.2.23-.42.31-.67.07-.25.11-.52.11-.81 0-.2-.02-.39-.06-.56-.04-.18-.1-.34-.19-.47-.09-.13-.21-.24-.36-.32-.15-.08-.33-.12-.55-.12-.23 0-.43.07-.6.2-.17.13-.32.3-.45.51-.13.21-.24.45-.32.72-.09.27-.16.54-.21.82L167.76 189.44zM173.99 182.35c0-.09.02-.18.06-.26.04-.08.1-.16.17-.22.11-.1.24-.14.39-.14.09 0 .18.02.26.06.08.04.16.1.22.17.16.2.3.4.42.59.12.19.24.42.38.68.14.27.27.57.38.9.12.33.22.69.3 1.08.08.39.12.8.12 1.23 0 .12 0 .24-.01.36-.01.12-.02.24-.03.37-.05.48-.15.94-.29 1.38-.14.44-.3.85-.48 1.24-.17.39-.36.73-.55 1.05-.19.32-.36.59-.52.81s-.34.46-.55.71c-.13.15-.29.22-.48.22-.15 0-.28-.05-.4-.15-.14-.13-.21-.28-.21-.48 0-.16.05-.29.15-.41.33-.41.65-.85.93-1.33.12-.21.24-.43.36-.68.12-.24.24-.5.34-.76.11-.27.2-.55.28-.84.08-.29.14-.59.17-.9.01-.1.02-.2.03-.3.01-.1.01-.19.01-.29 0-.35-.03-.68-.1-1-.07-.32-.15-.61-.24-.89-.1-.27-.2-.52-.31-.74-.11-.22-.22-.41-.32-.56-.1-.16-.21-.32-.34-.49C174.03 182.61 173.99 182.48 173.99 182.35zM180.98 181.72c.18 0 .34.06.46.2.11.11.16.25.16.42 0 .18-.07.33-.2.46-.17.18-.33.35-.46.53-.14.17-.29.38-.45.62-.16.25-.32.53-.48.85-.15.32-.29.67-.42 1.06-.13.39-.22.81-.27 1.26-.01.12-.02.24-.03.35s-.01.23-.01.34c0 .37.03.72.09 1.04.06.33.14.62.24.89.1.27.2.51.31.72s.22.38.31.53.21.29.34.45c.11.13.16.27.16.43 0 .18-.07.33-.2.46-.13.11-.27.16-.43.16-.18 0-.33-.07-.46-.2-.16-.19-.3-.38-.43-.56-.12-.18-.25-.4-.39-.66-.14-.26-.27-.55-.39-.89-.12-.33-.22-.7-.3-1.1-.08-.4-.12-.83-.12-1.28 0-.27.02-.55.05-.84.06-.53.17-1.02.32-1.47.15-.46.31-.87.49-1.25.18-.38.37-.71.57-1 .2-.29.38-.54.54-.74.16-.2.34-.41.55-.62C180.68 181.77 180.82 181.72 180.98 181.72zM187.46 185.52c.03.02.06.05.09.07s.06.05.09.08c.11-.11.25-.16.44-.16.09 0 .18.01.26.04.08.03.16.06.23.11.07.05.12.11.16.17.04.07.05.15.04.24v.03c0 .01 0 .01-.01.03l-.62 4.81c-.02.17-.1.31-.24.42-.13.1-.29.15-.46.12-.17-.02-.31-.1-.41-.23-.11-.14-.15-.29-.13-.46l.01-.05c-.23.27-.48.49-.76.65-.28.17-.58.26-.92.27-.32 0-.62-.05-.91-.16-.28-.11-.54-.3-.77-.58-.16-.21-.29-.46-.4-.75-.11-.29-.17-.63-.18-1.03-.01-.14-.01-.28 0-.43.01-.15.02-.31.04-.49h.01c.04-.32.11-.63.22-.92.11-.29.25-.55.42-.79.17-.24.36-.45.58-.64.22-.18.44-.34.68-.46.18-.1.38-.18.6-.23.21-.05.42-.07.63-.07.29.02.54.06.75.14C187.1 185.31 187.29 185.4 187.46 185.52zM187.19 187.3c-.11-.05-.2-.13-.27-.24-.06-.11-.09-.23-.08-.37 0-.05-.04-.11-.13-.17-.07-.05-.16-.1-.27-.13s-.21-.05-.31-.05c-.12 0-.23.02-.34.05s-.22.07-.33.12c-.3.16-.57.39-.8.7-.23.31-.37.68-.42 1.11-.02.27-.03.51-.03.73.02.48.12.82.31 1.04.08.11.18.19.29.22.11.04.23.05.35.05.25-.01.48-.12.69-.31.21-.2.4-.45.56-.75.17-.3.32-.63.44-.99C186.99 187.97 187.1 187.63 187.19 187.3zM192.18 189.14h-1.45c-.17.01-.32-.05-.45-.17-.12-.12-.18-.27-.18-.44-.01-.17.05-.32.17-.44.12-.12.27-.19.44-.19h1.6l.21-1.91c.02-.17.1-.32.23-.43.13-.11.29-.15.46-.13.17.02.31.09.42.23s.15.29.13.46l-.21 1.77h1.46c.17-.01.32.05.44.17s.19.27.19.44c0 .17-.06.32-.18.44-.12.12-.26.19-.44.19h-1.61l-.22 1.91c-.02.17-.09.31-.23.42-.13.11-.29.15-.46.13-.17-.02-.31-.09-.42-.23-.11-.13-.15-.29-.13-.46L192.18 189.14zM197.82 183.35c.02-.17.09-.31.22-.42.13-.11.28-.16.46-.14.17.02.32.09.43.23.11.13.16.29.14.46l-.23 2.17c.17-.12.36-.22.57-.29s.43-.1.68-.1c.4 0 .76.07 1.06.22.3.15.55.34.75.6.2.25.35.54.45.87s.15.68.15 1.05c0 .45-.06.87-.19 1.26-.13.39-.3.73-.53 1.03-.22.3-.48.55-.78.76-.3.2-.62.35-.96.43-.25.07-.49.1-.73.1-.18 0-.37-.02-.55-.06-.18-.04-.35-.11-.51-.2-.03-.02-.06-.04-.09-.05-.03-.02-.06-.04-.09-.06-.11.08-.25.12-.42.12-.16 0-.31-.04-.44-.13-.13-.08-.2-.21-.19-.38.01-.21.01-.4.03-.58.01-.18.03-.38.06-.62.03-.23.06-.49.11-.76L197.82 183.35zM198.43 189.44c.14.05.24.15.32.28.07.13.1.28.07.43 0 .01.02.03.05.06.06.03.13.05.2.07.07.01.15.02.24.02.08 0 .15-.01.23-.02.08-.01.15-.02.21-.04.22-.05.42-.15.6-.28.18-.13.34-.3.47-.5.13-.2.23-.42.31-.67.07-.25.11-.52.11-.81 0-.2-.02-.39-.06-.56-.04-.18-.1-.34-.19-.47-.09-.13-.21-.24-.36-.32-.15-.08-.33-.12-.55-.12-.23 0-.43.07-.6.2-.17.13-.32.3-.45.51-.13.21-.24.45-.32.72-.09.27-.16.54-.21.82L198.43 189.44zM204.66 182.35c0-.09.02-.18.06-.26.04-.08.1-.16.17-.22.11-.1.24-.14.39-.14.09 0 .18.02.26.06.08.04.16.1.22.17.16.2.3.4.42.59.12.19.24.42.38.68.14.27.27.57.38.9.12.33.22.69.3 1.08.08.39.12.8.12 1.23 0 .12 0 .24-.01.36-.01.12-.02.24-.03.37-.05.48-.15.94-.29 1.38-.14.44-.3.85-.48 1.24-.17.39-.36.73-.55 1.05-.19.32-.36.59-.52.81-.16.22-.34.46-.55.71-.13.15-.29.22-.48.22-.15 0-.28-.05-.4-.15-.14-.13-.21-.28-.21-.48 0-.16.05-.29.15-.41.33-.41.65-.85.93-1.33.12-.21.24-.43.36-.68.12-.24.24-.5.34-.76.11-.27.2-.55.28-.84.08-.29.14-.59.17-.9.01-.1.02-.2.03-.3.01-.1.01-.19.01-.29 0-.35-.03-.68-.1-1-.07-.32-.15-.61-.24-.89-.1-.27-.2-.52-.31-.74-.11-.22-.22-.41-.32-.56-.1-.16-.21-.32-.34-.49C204.71 182.61 204.66 182.48 204.66 182.35z"></path></g><g><path fill="#F4EAE2" d="M277.83,173.61c-0.24,0-0.48-0.01-0.72-0.02c-7.46-0.39-13.7-6.73-13.92-14.13
				c-0.11-3.55,1.19-6.8,3.65-9.15c2.5-2.39,5.89-3.55,9.52-3.26c7.24,0.56,13.33,6.86,13.57,14.05l0,0
				c0.12,3.51-1.14,6.73-3.54,9.09C284.14,172.41,281.12,173.61,277.83,173.61z M275.29,148.08c-2.96,0-5.67,1.05-7.72,3
				c-2.24,2.13-3.42,5.1-3.32,8.34c0.2,6.86,5.99,12.74,12.91,13.1c3.3,0.19,6.29-0.93,8.5-3.09c2.18-2.14,3.33-5.09,3.22-8.29l0,0
				c-0.23-6.66-5.88-12.5-12.59-13.02C275.95,148.1,275.62,148.08,275.29,148.08z"></path></g><g><path fill="#F4EAE2" d="M260.25,166.18c-1.73,0-2.97-0.27-3.21-0.98c-0.06-0.18-0.1-0.47,0.09-0.83
				c1.08-2.01,9.9-5.03,17.64-6.99c0.74-0.19,18.06-4.53,19.03-1.67l0,0c0.06,0.18,0.1,0.47-0.09,0.81
				c-1.04,1.94-9.52,4.9-16.96,6.82C276.17,163.5,265.71,166.18,260.25,166.18z M290.87,155.78c-2.79,0-8.36,0.74-15.85,2.64
				c-10.57,2.67-16.75,5.53-16.98,6.49c0.67,0.68,8.02,0.1,18.43-2.59c9.92-2.57,15.82-5.29,16.28-6.27
				C292.53,155.88,291.88,155.78,290.87,155.78z M292.81,156.1L292.81,156.1L292.81,156.1z"></path></g><g><path fill="#F4EAE2" d="M272.54,153.55c0.03,0.81-0.62,1.42-1.45,1.36c-0.83-0.06-1.52-0.77-1.54-1.58
				c-0.02-0.81,0.62-1.42,1.45-1.36C271.83,152.03,272.52,152.74,272.54,153.55z"></path></g><g><g><rect width="1.06" height="35.57" x="277.18" y="101.91" fill="#F4EAE2" transform="rotate(-83.962 277.702 119.69)"></rect></g><g><rect width="1.06" height="35.58" x="277.32" y="106.11" fill="#F4EAE2" transform="rotate(-84.197 277.839 123.894)"></rect></g></g><g><g><path fill="#F4EAE2" d="M244.67,227.8h-27.85c-0.29,0-0.53-0.23-0.53-0.52l-0.6-27.13c0-0.15,0.05-0.29,0.16-0.39
					c0.1-0.1,0.2-0.13,0.39-0.16l27.74,0.71c0.28,0.01,0.51,0.23,0.52,0.52l0.72,26.42c0,0.14-0.05,0.28-0.15,0.39
					C244.95,227.75,244.81,227.8,244.67,227.8z M217.34,226.74h26.79l-0.69-25.37l-26.68-0.68L217.34,226.74z"></path></g><g><path fill="#F4EAE2" d="M243.95,201.38c0,0-0.01,0-0.01,0l-27.74-0.71c-0.21-0.01-0.4-0.14-0.48-0.34s-0.02-0.43,0.13-0.57
					l6.43-6.06c0.1-0.1,0.22-0.16,0.38-0.15l27.37,0.86c0.21,0.01,0.4,0.14,0.48,0.34c0.08,0.2,0.03,0.43-0.12,0.57l-6.07,5.91
					C244.22,201.33,244.09,201.38,243.95,201.38z M217.52,199.64l26.22,0.67l5.01-4.88l-25.9-0.82L217.52,199.64z"></path></g><g><path fill="#F4EAE2" d="M244.67,227.8c-0.07,0-0.13-0.01-0.2-0.04c-0.2-0.08-0.33-0.27-0.34-0.48l-0.72-26.42
					c0-0.15,0.05-0.29,0.16-0.39l6.07-5.91c0.15-0.15,0.38-0.2,0.57-0.11c0.2,0.08,0.33,0.27,0.33,0.48l0.74,26.21
					c0,0.15-0.05,0.29-0.15,0.39l-6.09,6.13C244.95,227.75,244.81,227.8,244.67,227.8z M244.49,201.07l0.68,24.95l5.06-5.09
					l-0.7-24.77L244.49,201.07z"></path></g><g><g><polygon fill="#F4EAE2" points="250.76 221.68 249.65 221.67 249.65 220.61 250.76 220.62"></polygon></g><g><path fill="#F4EAE2" d="M247.35,221.66l-2.3-0.01l0.01-1.06l2.3,0.01L247.35,221.66z M242.76,221.63l-2.3-0.01l0.01-1.06
						l2.3,0.01L242.76,221.63z M238.16,221.6l-2.3-0.01l0.01-1.06l2.3,0.01L238.16,221.6z M233.57,221.58l-2.3-0.01l0.01-1.06
						l2.3,0.01L233.57,221.58z M228.98,221.55l-2.3-0.01l0.01-1.06l2.3,0.01L228.98,221.55z"></path></g><g><polygon fill="#F4EAE2" points="224.39 221.52 222.76 221.51 222.72 219.88 223.78 219.86 223.8 220.45 224.39 220.46"></polygon></g><g><path fill="#F4EAE2" d="M222.67,217.64l-0.05-2.24l1.06-0.02l0.05,2.24L222.67,217.64z M222.56,213.15l-0.05-2.25l1.06-0.02
						l0.05,2.25L222.56,213.15z M222.46,208.66l-0.05-2.24l1.06-0.02l0.05,2.24L222.46,208.66z M222.35,204.18l-0.05-2.25l1.06-0.02
						l0.05,2.25L222.35,204.18z M222.25,199.69l-0.05-2.24l1.06-0.02l0.05,2.24L222.25,199.69z"></path></g><g><polygon fill="#F4EAE2" points="222.14 195.2 222.12 194.09 223.18 194.07 223.21 195.18"></polygon></g></g><g><g><polygon fill="#F4EAE2" points="222.85 222.14 222.11 221.38 222.91 220.6 223.65 221.36"></polygon></g><g><polygon fill="#F4EAE2" points="219.61 225.3 218.87 224.54 220.49 222.96 221.23 223.72"></polygon></g><g><polygon fill="#F4EAE2" points="217.19 227.65 216.45 226.89 217.24 226.12 217.99 226.88"></polygon></g></g></g><g><g><path fill="#F4EAE2" d="M182.26,225.63c-0.01,0-0.02,0-0.04,0c-3.2-0.23-6.26-1.52-8.6-3.64l-9.58-8.63
					c-5.19-4.71-13.63-4.81-18.81-0.22l-7.79,6.86c-5.78,5.07-15.31,5.01-21.24-0.11l-8.24-7.17c-2.8-2.43-6.54-3.77-10.54-3.79
					c-0.29,0-0.53-0.24-0.53-0.53c0-0.29,0.24-0.53,0.53-0.53h0c4.25,0.02,8.24,1.45,11.23,4.05l8.23,7.17
					c5.54,4.79,14.45,4.84,19.84,0.12l7.79-6.85c5.58-4.93,14.65-4.82,20.23,0.23l9.58,8.63c2.17,1.96,5,3.16,7.97,3.37
					c0.29,0.02,0.51,0.27,0.49,0.57C182.77,225.42,182.53,225.63,182.26,225.63z"></path></g><g><path fill="#F4EAE2" d="M154.86,223.84c-3.69,0-7.42-1.27-10.28-3.8l-7.9-6.99c-5.44-4.82-14.33-4.93-19.82-0.23l-8.2,7.02
					c-2.96,2.53-7.01,3.95-11.25,3.87c-0.29,0-0.53-0.24-0.53-0.54c0-0.29,0.24-0.53,0.53-0.53c0.05-0.01,0.1,0,0.15,0
					c3.98,0,7.67-1.28,10.41-3.62l8.19-7.02c5.88-5.02,15.39-4.91,21.22,0.24l7.9,6.99c5.29,4.68,13.74,4.73,18.83,0.11l9.36-8.48
					c2.26-2.07,5.28-3.31,8.5-3.48c0.28-0.01,0.54,0.21,0.56,0.5c0.01,0.29-0.21,0.54-0.5,0.56c-2.97,0.16-5.76,1.3-7.84,3.21
					l-9.36,8.48C162.11,222.61,158.5,223.84,154.86,223.84z"></path></g><g><path fill="#F4EAE2" d="M118.49,221.06c-0.29,0-0.53-0.24-0.53-0.53l-0.03-8.99c0-0.29,0.24-0.53,0.53-0.53h0
					c0.29,0,0.53,0.24,0.53,0.53l0.03,8.99C119.03,220.82,118.79,221.06,118.49,221.06L118.49,221.06z"></path></g><g><path fill="#F4EAE2" d="M125.3,222.98c-0.29,0-0.53-0.24-0.53-0.53l-0.07-13.8c0-0.29,0.23-0.53,0.53-0.53h0
					c0.29,0,0.53,0.24,0.53,0.53l0.07,13.8C125.84,222.74,125.6,222.98,125.3,222.98L125.3,222.98z"></path></g><g><path fill="#F4EAE2" d="M132.29,222.93c-0.29,0-0.53-0.24-0.53-0.53l-0.08-12.47c0-0.3,0.22-0.58,0.53-0.54
					c0.29,0,0.53,0.24,0.53,0.53l0.08,12.47C132.82,222.68,132.59,222.92,132.29,222.93C132.29,222.93,132.29,222.93,132.29,222.93z
					"></path></g><g><path fill="#F4EAE2" d="M147.22,221.2c-0.29,0-0.53-0.23-0.53-0.53l-0.08-8.77c0-0.29,0.23-0.53,0.53-0.54c0,0,0,0,0,0
					c0.29,0,0.53,0.23,0.53,0.53l0.08,8.77C147.75,220.96,147.52,221.2,147.22,221.2C147.22,221.2,147.22,221.2,147.22,221.2z"></path></g><g><path fill="#F4EAE2" d="M153.7,223.07c-0.29,0-0.53-0.23-0.53-0.53l-0.13-13.46c0-0.29,0.23-0.54,0.53-0.54c0,0,0,0,0.01,0
					c0.29,0,0.53,0.23,0.53,0.53l0.13,13.46C154.24,222.83,154,223.07,153.7,223.07C153.71,223.07,153.7,223.07,153.7,223.07z"></path></g><g><path fill="#F4EAE2" d="M160.35,223.01c-0.29,0-0.53-0.23-0.53-0.53l-0.13-12.17c0-0.29,0.23-0.53,0.53-0.54c0,0,0,0,0.01,0
					c0.29,0,0.53,0.23,0.53,0.53l0.13,12.17C160.89,222.77,160.65,223.01,160.35,223.01C160.36,223.01,160.35,223.01,160.35,223.01z
					"></path></g></g><g><g><path fill="#F4EAE2" d="M185.8,112.99c-0.02,0-0.04,0-0.05,0l-9.66-1c-0.27-0.03-0.47-0.25-0.48-0.52l-0.06-3.61
					c-3.63-2.14-5.91-5.73-5.96-9.45c-0.03-2.49,0.96-4.76,2.78-6.4c2.12-1.89,5.16-2.76,8.35-2.36
					c6.02,0.74,10.99,5.75,11.08,11.18c0.06,3.66-2.05,6.74-5.53,8.13l0.05,3.51c0,0.15-0.06,0.3-0.17,0.4
					C186.06,112.94,185.94,112.99,185.8,112.99z M176.67,110.98l8.6,0.89l-0.05-3.28c0-0.23,0.14-0.43,0.35-0.51
					c3.25-1.15,5.24-3.93,5.18-7.24c-0.08-4.91-4.64-9.46-10.15-10.14c-2.89-0.35-5.62,0.41-7.51,2.1c-1.6,1.43-2.46,3.42-2.43,5.6
					c0.05,3.43,2.22,6.76,5.68,8.69c0.17,0.09,0.27,0.27,0.27,0.46L176.67,110.98z"></path></g><g><path fill="#F4EAE2" d="M185.84,115.35c-0.02,0-0.04,0-0.05,0l-9.66-0.98c-0.27-0.03-0.47-0.25-0.48-0.52l-0.03-2.38
					c0-0.15,0.06-0.3,0.17-0.4c0.11-0.1,0.27-0.15,0.41-0.14l9.66,1c0.27,0.03,0.47,0.25,0.48,0.52l0.04,2.36
					c0,0.15-0.06,0.3-0.17,0.4C186.1,115.3,185.97,115.35,185.84,115.35z M176.7,113.36l8.6,0.87l-0.02-1.29l-8.6-0.89L176.7,113.36
					z"></path></g><g><path fill="#F4EAE2" d="M182.97,117.99c-0.13,0-0.27-0.01-0.41-0.02l-3.09-0.31c-2.09-0.21-3.8-1.92-3.83-3.81
					c0-0.15,0.06-0.3,0.17-0.4c0.11-0.1,0.26-0.16,0.41-0.14l9.66,0.98c0.27,0.03,0.47,0.25,0.48,0.52
					c0.01,0.88-0.33,1.69-0.97,2.28C184.77,117.67,183.9,117.99,182.97,117.99z M176.8,114.44c0.32,1.12,1.45,2.04,2.78,2.17
					l3.09,0.31c0.79,0.08,1.51-0.14,2.01-0.6c0.3-0.28,0.5-0.62,0.58-1.01L176.8,114.44z"></path></g><g><path fill="#F4EAE2" d="M183.03,112.6c-0.29,0-0.53-0.23-0.53-0.52l-0.07-4.4c0-0.14,0.05-0.27,0.15-0.38
					c0.59-0.61,2.16-2.6,1.71-3.68c-0.06-0.15-0.12-0.21-0.14-0.21c-0.16,0-0.85,0.54-1.34,1.28c-0.13,0.2-0.37,0.28-0.59,0.22
					c-0.22-0.07-0.38-0.27-0.38-0.5c-0.02-1.58-0.42-3.16-0.8-3.21c-0.5,0.38-0.75,1.76-0.79,2.58c-0.01,0.26-0.21,0.47-0.46,0.5
					c-0.26,0.03-0.5-0.13-0.57-0.37c-0.3-0.99-0.9-2.15-1.3-2.3c-0.44,0.41,0.39,2.99,1.63,5.43c0.04,0.07,0.06,0.15,0.06,0.23
					l0.06,4.13c0,0.29-0.23,0.54-0.52,0.54c0,0-0.01,0-0.01,0c-0.29,0-0.53-0.23-0.53-0.52l-0.06-4.01c-1.1-2.18-2.67-5.84-1.3-6.69
					c0.33-0.21,0.69-0.24,1.04-0.11c0.48,0.18,0.88,0.68,1.2,1.23c0.16-0.56,0.4-1.1,0.76-1.41c0.27-0.23,0.58-0.33,0.92-0.29
					c1.08,0.12,1.49,1.65,1.65,2.89c0.42-0.4,0.93-0.75,1.45-0.68c0.31,0.03,0.74,0.2,1.02,0.86c0.72,1.71-1.17,3.99-1.77,4.66
					l0.06,4.18C183.57,112.35,183.34,112.6,183.03,112.6C183.04,112.6,183.04,112.6,183.03,112.6z"></path></g></g><g><path fill="#F4EAE2" d="M212.09,174.63c-0.01,0-0.02,0-0.02,0l-31.24-1.52c-0.29-0.01-0.52-0.26-0.51-0.56
				c0.02-0.29,0.28-0.53,0.56-0.51l31.24,1.52c0.29,0.01,0.52,0.26,0.51,0.56C212.6,174.41,212.37,174.63,212.09,174.63z"></path></g></g><g><g><g><path fill="#474E68" d="M139.47,418.61l-0.35-0.05c4.82-30.78-4.21-57.31-12.63-74.13c-9.13-18.24-19.55-29.35-19.65-29.46
					l0.25-0.24c0.1,0.11,10.55,11.24,19.7,29.53C135.25,361.13,144.31,387.73,139.47,418.61z"></path></g><g><path fill="#474E68" d="M130.36,351.75l-0.34,0.06c-1.93-10.61,3.85-23.53,3.91-23.66l0.32,0.14
					C134.18,328.43,128.44,341.25,130.36,351.75z"></path></g><g><path fill="#474E68" d="M140.23,386.98l-0.35-0.05c0.03-0.18,2.76-18.42,9.91-28.53l0.29,0.2
					C142.98,368.65,140.26,386.8,140.23,386.98z"></path></g><g><path fill="#474E68" d="M144.48,370.19l-0.35,0c-0.07-7.59-3.34-14.88-3.38-14.96l0.32-0.15
					C141.11,355.17,144.41,362.52,144.48,370.19z"></path></g><g><path fill="#474E68" d="M142.26,377.99l-0.29-0.21c0.02-0.02,1.75-2.42,4.39-4.98c2.44-2.37,6.18-5.37,10.12-6.18l0.07,0.34
					C149.14,368.5,142.33,377.9,142.26,377.99z"></path></g><g><path fill="#474E68" d="M143.96,309.95c-10.9-1.82-10.69,19.81-10.69,19.81S154.87,311.77,143.96,309.95z M141.83,311.08
					c-0.27,0.23-0.62,0.59-1.03,1c-0.41,0.41-0.85,0.94-1.29,1.52c-0.44,0.57-0.87,1.21-1.27,1.86c-0.19,0.33-0.39,0.66-0.57,0.99
					c-0.17,0.34-0.34,0.67-0.51,1c-0.14,0.33-0.3,0.65-0.45,0.96c-0.14,0.31-0.26,0.61-0.37,0.88c-0.23,0.55-0.41,1.02-0.53,1.34
					c-0.15,0.33-0.23,0.52-0.23,0.52s0-0.2,0-0.56c0.03-0.35-0.01-0.88,0.12-1.48c0.06-0.3,0.11-0.64,0.18-0.98
					c0.09-0.34,0.19-0.7,0.31-1.07c0.13-0.37,0.29-0.74,0.45-1.12c0.18-0.37,0.38-0.73,0.58-1.1c0.46-0.7,0.94-1.39,1.51-1.94
					c0.53-0.57,1.14-0.99,1.65-1.35c0.51-0.35,1.01-0.54,1.34-0.68c0.31-0.1,0.5-0.15,0.54-0.16
					C142.22,310.75,142.06,310.87,141.83,311.08z"></path></g><g><path fill="#474E68" d="M116.95,305.94c-10.35,3.89,0.68,22.5,0.68,22.5S127.31,302.05,116.95,305.94z M115.68,307.98
					c-0.13,0.33-0.24,0.82-0.39,1.38c-0.15,0.57-0.26,1.24-0.35,1.96c-0.1,0.72-0.15,1.48-0.16,2.25c0,0.38-0.01,0.77,0.01,1.14
					c0.02,0.38,0.04,0.75,0.06,1.12c0.04,0.36,0.07,0.71,0.09,1.05c0.03,0.34,0.08,0.65,0.13,0.95c0.08,0.59,0.15,1.09,0.21,1.43
					c0.04,0.36,0.06,0.56,0.06,0.56s-0.1-0.18-0.28-0.48c-0.15-0.32-0.45-0.75-0.64-1.34c-0.09-0.29-0.23-0.6-0.33-0.94
					c-0.1-0.34-0.19-0.7-0.27-1.08c-0.08-0.38-0.12-0.78-0.17-1.19c-0.03-0.41-0.03-0.82-0.05-1.24c0.05-0.83,0.12-1.67,0.33-2.43
					c0.17-0.76,0.49-1.43,0.75-1.99c0.27-0.56,0.6-0.97,0.82-1.26c0.21-0.24,0.36-0.39,0.39-0.41
					C115.85,307.51,115.77,307.69,115.68,307.98z"></path></g><g><path fill="#474E68" d="M115.49,325.81c0,0-18.42-11.34-22.49-1.07C88.94,335.03,115.49,325.81,115.49,325.81z M94.55,323.69
					c0.02-0.03,0.17-0.17,0.41-0.38c0.29-0.21,0.71-0.54,1.27-0.8c0.57-0.25,1.24-0.56,2-0.72c0.76-0.2,1.6-0.26,2.44-0.29
					c0.42,0.03,0.83,0.04,1.24,0.07c0.41,0.06,0.8,0.11,1.19,0.19c0.38,0.09,0.74,0.19,1.08,0.29c0.34,0.11,0.65,0.25,0.93,0.35
					c0.59,0.2,1.01,0.51,1.33,0.66c0.31,0.19,0.48,0.29,0.48,0.29s-0.2-0.03-0.56-0.07c-0.34-0.06-0.84-0.15-1.43-0.24
					c-0.29-0.05-0.61-0.11-0.94-0.14c-0.34-0.03-0.69-0.06-1.05-0.11c-0.36-0.03-0.74-0.06-1.12-0.08
					c-0.38-0.02-0.76-0.02-1.14-0.03c-0.77,0-1.54,0.04-2.25,0.13c-0.72,0.08-1.39,0.18-1.96,0.32c-0.57,0.15-1.05,0.25-1.39,0.37
					C94.78,323.59,94.59,323.67,94.55,323.69z"></path></g><g><path fill="#474E68" d="M127.06,345.13c0,0-14.13-16.39-21.11-7.82C98.96,345.88,127.06,345.13,127.06,345.13z M107.74,336.77
					c0.03-0.02,0.21-0.11,0.51-0.24c0.34-0.11,0.83-0.3,1.46-0.37c0.61-0.07,1.35-0.16,2.13-0.08c0.78,0.04,1.6,0.24,2.41,0.46
					c0.39,0.15,0.78,0.29,1.16,0.45c0.37,0.18,0.73,0.35,1.07,0.54c0.33,0.2,0.65,0.4,0.94,0.6c0.29,0.21,0.54,0.43,0.79,0.62
					c0.5,0.36,0.81,0.79,1.07,1.03c0.23,0.27,0.37,0.42,0.37,0.42s-0.18-0.09-0.51-0.24c-0.31-0.17-0.76-0.39-1.29-0.66
					c-0.26-0.14-0.55-0.29-0.86-0.42c-0.32-0.13-0.64-0.26-0.97-0.42c-0.34-0.14-0.69-0.28-1.04-0.42
					c-0.35-0.13-0.72-0.25-1.08-0.37c-0.73-0.23-1.48-0.43-2.18-0.56c-0.71-0.15-1.38-0.25-1.97-0.29
					c-0.58-0.03-1.08-0.08-1.44-0.07C107.99,336.75,107.79,336.77,107.74,336.77z"></path></g><g><path fill="#474E68" d="M136.69,373.39c0,0-14.13-16.39-21.11-7.82C108.59,374.14,136.69,373.39,136.69,373.39z M117.37,365.03
					c0.03-0.02,0.21-0.11,0.51-0.24c0.34-0.11,0.83-0.3,1.46-0.37c0.61-0.07,1.35-0.16,2.13-0.08c0.78,0.04,1.6,0.24,2.41,0.46
					c0.39,0.15,0.78,0.29,1.16,0.45c0.37,0.18,0.73,0.35,1.07,0.54c0.33,0.2,0.65,0.4,0.94,0.6c0.29,0.21,0.54,0.43,0.79,0.62
					c0.5,0.36,0.81,0.79,1.07,1.03c0.23,0.27,0.37,0.42,0.37,0.42s-0.18-0.09-0.51-0.24c-0.31-0.17-0.76-0.39-1.29-0.66
					c-0.26-0.14-0.55-0.29-0.86-0.42c-0.32-0.13-0.64-0.26-0.97-0.42c-0.34-0.14-0.69-0.28-1.04-0.42
					c-0.35-0.13-0.72-0.25-1.08-0.37c-0.73-0.23-1.48-0.43-2.18-0.56c-0.71-0.15-1.38-0.25-1.97-0.29
					c-0.58-0.03-1.08-0.08-1.44-0.07C117.62,365.01,117.42,365.03,117.37,365.03z"></path></g><g><path fill="#474E68" d="M138.8,336.17c-9.86,4.99,3.12,22.29,3.12,22.29S148.66,331.18,138.8,336.17z M137.75,338.35
					c-0.09,0.34-0.15,0.84-0.24,1.42c-0.09,0.58-0.13,1.26-0.14,1.98c-0.02,0.72,0.02,1.49,0.08,2.25c0.04,0.38,0.08,0.76,0.13,1.14
					c0.06,0.38,0.13,0.74,0.18,1.11c0.08,0.35,0.15,0.7,0.2,1.04c0.07,0.33,0.15,0.64,0.23,0.93c0.14,0.58,0.27,1.06,0.36,1.4
					c0.08,0.36,0.12,0.55,0.12,0.55s-0.12-0.16-0.34-0.45c-0.18-0.3-0.53-0.7-0.78-1.26c-0.13-0.28-0.29-0.58-0.43-0.9
					c-0.13-0.33-0.27-0.68-0.39-1.04c-0.12-0.37-0.2-0.76-0.3-1.16c-0.07-0.4-0.12-0.82-0.19-1.23c-0.04-0.83-0.06-1.68,0.07-2.45
					c0.09-0.78,0.33-1.47,0.53-2.06c0.2-0.59,0.49-1.03,0.68-1.34c0.19-0.27,0.32-0.42,0.34-0.45
					C137.87,337.85,137.81,338.04,137.75,338.35z"></path></g><g><path fill="#474E68" d="M164.46,343.57c-9.99-4.73-15.69,16.15-15.69,16.15S174.46,348.3,164.46,343.57z M162.11,344.09
					c-0.33,0.14-0.75,0.4-1.27,0.68c-0.51,0.29-1.07,0.67-1.65,1.11c-0.58,0.43-1.17,0.93-1.73,1.45c-0.27,0.27-0.56,0.53-0.82,0.8
					c-0.26,0.28-0.51,0.56-0.76,0.82c-0.23,0.28-0.46,0.55-0.69,0.8c-0.22,0.25-0.41,0.51-0.59,0.75c-0.37,0.46-0.67,0.86-0.88,1.15
					c-0.23,0.28-0.36,0.44-0.36,0.44s0.06-0.2,0.15-0.54c0.13-0.33,0.23-0.85,0.52-1.39c0.14-0.27,0.28-0.58,0.44-0.89
					c0.18-0.31,0.37-0.63,0.59-0.95c0.22-0.32,0.48-0.63,0.74-0.95c0.27-0.3,0.57-0.6,0.85-0.9c0.63-0.55,1.29-1.08,1.98-1.45
					c0.67-0.41,1.37-0.64,1.95-0.85c0.59-0.2,1.12-0.24,1.47-0.29c0.32-0.02,0.53-0.01,0.56,0
					C162.57,343.88,162.38,343.95,162.11,344.09z"></path></g><g><path fill="#474E68" d="M176.19,360.76c-6.48-8.95-21.52,6.6-21.52,6.6S182.67,369.72,176.19,360.76z M173.88,360.08
					c-0.35-0.03-0.85-0.01-1.44-0.01c-0.59,0.01-1.27,0.07-1.98,0.18c-0.72,0.09-1.47,0.25-2.21,0.44c-0.37,0.1-0.74,0.2-1.1,0.31
					c-0.36,0.12-0.72,0.24-1.06,0.36c-0.34,0.14-0.67,0.26-0.99,0.36c-0.32,0.12-0.61,0.25-0.88,0.37
					c-0.55,0.23-1.01,0.43-1.32,0.58c-0.34,0.13-0.53,0.21-0.53,0.21s0.14-0.14,0.39-0.4c0.27-0.23,0.61-0.63,1.13-0.97
					c0.26-0.17,0.52-0.38,0.82-0.57c0.3-0.18,0.63-0.37,0.97-0.55c0.35-0.18,0.72-0.32,1.1-0.48c0.38-0.14,0.79-0.25,1.18-0.38
					c0.82-0.17,1.65-0.32,2.43-0.32c0.78-0.04,1.51,0.1,2.12,0.2c0.62,0.11,1.1,0.33,1.43,0.46c0.29,0.14,0.47,0.25,0.49,0.27
					C174.38,360.11,174.19,360.08,173.88,360.08z"></path></g><g><path fill="#474E68" d="M154.64,382.52c-10.41-3.71-14.01,17.62-14.01,17.62S165.06,386.23,154.64,382.52z M152.35,383.26
					c-0.31,0.17-0.71,0.47-1.19,0.8c-0.48,0.34-1,0.78-1.53,1.27c-0.54,0.48-1.07,1.04-1.58,1.61c-0.25,0.29-0.5,0.58-0.73,0.88
					c-0.23,0.3-0.45,0.6-0.67,0.89c-0.2,0.3-0.41,0.59-0.61,0.86c-0.19,0.28-0.36,0.55-0.52,0.8c-0.32,0.5-0.58,0.93-0.76,1.23
					c-0.2,0.3-0.31,0.47-0.31,0.47s0.04-0.2,0.1-0.55c0.1-0.34,0.14-0.87,0.38-1.44c0.12-0.28,0.22-0.61,0.35-0.93
					c0.15-0.32,0.31-0.66,0.49-1c0.19-0.34,0.41-0.67,0.64-1.02c0.24-0.33,0.51-0.65,0.76-0.98c0.58-0.61,1.17-1.2,1.82-1.64
					c0.62-0.47,1.3-0.77,1.86-1.03c0.57-0.26,1.09-0.35,1.44-0.43c0.32-0.05,0.52-0.06,0.56-0.06
					C152.79,383.01,152.61,383.09,152.35,383.26z"></path></g><g><path fill="#474E68" d="M140.85,396.45c0,0-4.5-21.16-14.74-17.01C115.86,383.58,140.85,396.45,140.85,396.45z M127.94,379.82
					c0.03,0,0.24,0,0.56,0.04c0.35,0.07,0.88,0.14,1.45,0.37c0.57,0.24,1.26,0.51,1.9,0.96c0.67,0.41,1.29,0.98,1.89,1.56
					c0.27,0.32,0.55,0.63,0.8,0.95c0.24,0.34,0.48,0.66,0.68,0.99c0.2,0.33,0.37,0.66,0.53,0.98c0.15,0.32,0.26,0.64,0.39,0.92
					c0.26,0.56,0.33,1.08,0.44,1.42c0.08,0.35,0.12,0.55,0.12,0.55s-0.12-0.16-0.33-0.46c-0.19-0.29-0.47-0.71-0.81-1.2
					c-0.17-0.25-0.34-0.52-0.55-0.78c-0.21-0.26-0.43-0.54-0.65-0.84c-0.23-0.28-0.47-0.57-0.71-0.87
					c-0.25-0.29-0.51-0.57-0.77-0.85c-0.53-0.55-1.09-1.08-1.65-1.54c-0.55-0.47-1.09-0.89-1.58-1.2c-0.5-0.31-0.91-0.59-1.23-0.75
					C128.17,379.92,127.98,379.84,127.94,379.82z"></path></g><g><path fill="#474E68" d="M95.76,298.09c-6.58,8.88,12.79,18.53,12.79,18.53S102.34,289.2,95.76,298.09z M95.8,300.5
					c0.08,0.35,0.24,0.82,0.42,1.37c0.18,0.56,0.45,1.19,0.77,1.83c0.31,0.65,0.68,1.33,1.08,1.98c0.21,0.32,0.41,0.65,0.63,0.96
					c0.22,0.31,0.45,0.61,0.66,0.91c0.23,0.28,0.45,0.56,0.65,0.84c0.21,0.27,0.42,0.5,0.62,0.73c0.38,0.45,0.72,0.83,0.95,1.09
					c0.23,0.28,0.36,0.44,0.36,0.44s-0.18-0.09-0.5-0.25c-0.3-0.19-0.79-0.39-1.26-0.78c-0.24-0.19-0.52-0.38-0.79-0.61
					c-0.27-0.23-0.54-0.49-0.82-0.76c-0.27-0.28-0.52-0.59-0.79-0.91c-0.25-0.33-0.48-0.67-0.72-1.01
					c-0.41-0.73-0.81-1.47-1.04-2.22c-0.27-0.73-0.36-1.47-0.45-2.08c-0.08-0.62-0.02-1.14,0-1.5c0.05-0.32,0.09-0.52,0.11-0.55
					C95.69,300,95.72,300.2,95.8,300.5z"></path></g></g><path fill="#9A634B" d="M131.78,437.11c-15.27-17.48,2.53-28.4,2.53-28.4l-0.01-2.55l12.66-0.04l0.01,2.55
			c0,0,17.86,10.8,2.72,28.38L131.78,437.11z"></path></g></g></svg>